<svg id="svg" version="1.1" xmlns="http://www.w3.org/2000/svg" xmlns:xlink="http://www.w3.org/1999/xlink" width="400" height="394.66666666666663" viewBox="0, 0, 400,394.66666666666663"><g id="svgg"><path id="path0" d="M187.935 61.432 C 187.187 61.992,185.864 62.815,184.995 63.260 C 184.126 63.705,182.316 65.157,180.971 66.487 C 179.627 67.816,177.317 69.997,175.838 71.333 C 174.359 72.669,170.624 76.071,167.539 78.894 C 164.453 81.717,161.077 84.704,160.036 85.532 C 158.996 86.359,156.900 88.167,155.380 89.549 C 153.860 90.930,151.503 93.070,150.143 94.303 C 143.542 100.289,137.127 106.276,133.886 109.477 C 132.402 110.943,130.997 112.142,130.765 112.142 C 130.533 112.142,129.124 113.342,127.634 114.808 C 123.268 119.102,115.203 126.621,113.919 127.595 C 113.268 128.089,110.424 130.648,107.601 133.281 C 104.778 135.914,101.579 138.770,100.494 139.627 C 98.284 141.371,95.257 144.118,92.241 147.115 C 91.133 148.216,89.605 149.544,88.845 150.066 C 88.085 150.588,86.397 152.058,85.094 153.332 C 79.391 158.908,77.924 160.267,76.936 160.886 C 76.359 161.248,75.486 162.128,74.997 162.841 C 74.509 163.555,73.471 164.556,72.691 165.067 C 71.911 165.577,70.207 167.021,68.904 168.275 C 60.192 176.659,45.724 189.840,42.152 192.647 C 37.922 195.971,36.640 200.020,39.153 202.119 C 39.838 202.691,41.519 204.225,42.889 205.528 C 44.258 206.831,46.732 209.141,48.385 210.661 C 50.039 212.182,52.512 214.492,53.882 215.795 C 55.252 217.098,58.099 219.674,60.209 221.520 C 62.320 223.366,64.517 225.386,65.093 226.009 C 65.669 226.632,67.206 227.963,68.509 228.968 C 70.631 230.603,76.574 235.910,84.819 243.533 C 86.405 244.999,88.952 247.354,90.478 248.766 C 92.004 250.178,94.208 252.290,95.376 253.460 C 96.544 254.630,98.116 255.963,98.868 256.422 C 99.621 256.880,100.774 257.934,101.430 258.764 C 102.086 259.593,103.388 260.826,104.322 261.503 C 105.257 262.179,106.374 263.189,106.805 263.746 C 107.236 264.303,108.124 265.202,108.779 265.745 C 109.434 266.288,110.859 267.621,111.945 268.707 C 113.031 269.793,114.630 271.200,115.499 271.833 C 116.367 272.467,117.888 273.799,118.878 274.795 C 119.869 275.790,122.607 278.292,124.963 280.355 C 127.319 282.419,131.601 286.239,134.478 288.845 C 137.356 291.451,141.423 295.094,143.517 296.940 C 145.610 298.786,148.152 301.149,149.165 302.192 C 150.178 303.234,151.569 304.434,152.255 304.858 C 152.942 305.282,153.909 306.222,154.406 306.947 C 154.903 307.672,155.947 308.684,156.726 309.197 C 157.506 309.709,159.238 311.204,160.576 312.518 C 161.913 313.831,164.312 316.106,165.906 317.572 C 167.501 319.038,170.049 321.396,171.570 322.812 C 180.703 331.318,184.956 334.965,186.654 335.749 L 188.549 336.624 261.007 336.733 C 336.402 336.846,339.198 336.793,340.465 335.229 C 341.456 334.006,341.334 332.948,340.090 331.954 C 339.498 331.482,338.032 330.111,336.832 328.908 C 335.632 327.704,333.850 326.164,332.873 325.485 C 331.895 324.805,330.740 323.699,330.306 323.026 C 329.872 322.352,328.861 321.365,328.059 320.832 C 327.258 320.299,325.374 318.658,323.873 317.187 C 322.372 315.715,320.096 313.581,318.815 312.444 C 317.534 311.307,313.998 308.102,310.958 305.322 C 307.917 302.543,304.541 299.571,303.455 298.718 C 302.369 297.865,300.670 296.361,299.680 295.375 C 298.689 294.390,296.313 292.251,294.399 290.622 C 292.485 288.993,289.800 286.594,288.431 285.291 C 287.062 283.988,284.594 281.678,282.946 280.158 C 281.299 278.638,278.810 276.328,277.416 275.025 C 276.022 273.722,273.523 271.412,271.863 269.891 C 268.361 266.684,264.819 263.355,261.397 260.055 C 260.065 258.771,258.280 257.217,257.429 256.600 C 256.577 255.984,254.502 254.134,252.817 252.490 C 251.132 250.846,248.432 248.402,246.817 247.060 C 245.202 245.718,242.537 243.399,240.894 241.907 C 234.953 236.510,232.119 233.919,229.825 231.787 C 228.540 230.592,226.127 228.371,224.463 226.851 C 222.799 225.331,220.434 223.093,219.208 221.879 C 217.982 220.665,216.345 219.293,215.570 218.831 C 214.795 218.369,213.718 217.368,213.177 216.608 C 212.636 215.847,211.405 214.654,210.440 213.956 C 209.476 213.258,208.334 212.231,207.902 211.674 C 207.470 211.117,206.697 210.306,206.183 209.872 C 202.556 206.802,196.605 201.091,196.417 200.501 C 195.977 199.113,197.771 194.788,199.281 193.599 C 200.050 192.993,201.805 191.431,203.182 190.128 C 207.515 186.028,215.938 178.397,222.139 172.952 C 224.489 170.888,227.132 168.470,228.013 167.578 C 228.894 166.686,230.237 165.542,230.997 165.036 C 231.757 164.530,233.377 163.128,234.596 161.920 C 235.816 160.712,238.171 158.480,239.830 156.960 C 241.488 155.439,243.999 153.129,245.408 151.826 C 246.817 150.523,249.234 148.302,250.779 146.890 C 252.324 145.479,254.591 143.329,255.817 142.113 C 257.042 140.896,258.801 139.407,259.724 138.802 C 260.647 138.198,261.402 137.582,261.402 137.434 C 261.402 137.285,263.490 135.247,266.041 132.905 C 268.593 130.562,271.658 127.723,272.853 126.594 C 274.047 125.466,275.913 123.847,276.999 122.996 C 278.085 122.145,281.461 119.176,284.501 116.398 C 287.542 113.620,291.245 110.238,292.731 108.882 C 297.914 104.151,300.993 101.268,303.203 99.072 C 304.428 97.856,306.140 96.393,307.009 95.822 C 307.878 95.250,308.944 94.239,309.378 93.574 C 309.812 92.908,311.093 91.746,312.225 90.989 C 313.356 90.233,314.596 89.082,314.980 88.431 C 315.365 87.780,316.394 86.772,317.267 86.191 C 318.140 85.610,319.854 84.148,321.076 82.942 C 323.373 80.676,326.916 77.421,332.144 72.775 C 339.255 66.455,339.073 66.658,339.812 64.274 C 341.154 59.948,350.290 60.415,264.181 60.415 L 189.295 60.415 187.935 61.432 " stroke="none" fill="#4cb4cc" fill-rule="evenodd"></path><path id="path1" d="M0.000 197.433 L 0.000 394.867 200.000 394.867 L 400.000 394.867 400.000 197.433 L 400.000 0.000 200.000 0.000 L 0.000 0.000 0.000 197.433 M339.791 61.213 C 340.487 61.983,340.488 62.094,339.812 64.274 C 339.073 66.658,339.255 66.455,332.144 72.775 C 326.916 77.421,323.373 80.676,321.076 82.942 C 319.854 84.148,318.140 85.610,317.267 86.191 C 316.394 86.772,315.365 87.780,314.980 88.431 C 314.596 89.082,313.356 90.233,312.225 90.989 C 311.093 91.746,309.812 92.908,309.378 93.574 C 308.944 94.239,307.878 95.250,307.009 95.822 C 306.140 96.393,304.428 97.856,303.203 99.072 C 300.993 101.268,297.914 104.151,292.731 108.882 C 291.245 110.238,287.542 113.620,284.501 116.398 C 281.461 119.176,278.085 122.145,276.999 122.996 C 275.913 123.847,274.047 125.466,272.853 126.594 C 271.658 127.723,268.593 130.562,266.041 132.905 C 263.490 135.247,261.402 137.285,261.402 137.434 C 261.402 137.582,260.647 138.198,259.724 138.802 C 258.801 139.407,257.042 140.896,255.817 142.113 C 254.591 143.329,252.324 145.479,250.779 146.890 C 249.234 148.302,246.817 150.523,245.408 151.826 C 243.999 153.129,241.488 155.439,239.830 156.960 C 238.171 158.480,235.816 160.712,234.596 161.920 C 233.377 163.128,231.757 164.530,230.997 165.036 C 230.237 165.542,228.894 166.686,228.013 167.578 C 227.132 168.470,224.489 170.888,222.139 172.952 C 215.938 178.397,207.515 186.028,203.182 190.128 C 201.805 191.431,200.050 192.993,199.281 193.599 C 197.771 194.788,195.977 199.113,196.417 200.501 C 196.605 201.091,202.556 206.802,206.183 209.872 C 206.697 210.306,207.470 211.117,207.902 211.674 C 208.334 212.231,209.476 213.258,210.440 213.956 C 211.405 214.654,212.636 215.847,213.177 216.608 C 213.718 217.368,214.795 218.369,215.570 218.831 C 216.345 219.293,217.982 220.665,219.208 221.879 C 220.434 223.093,222.799 225.331,224.463 226.851 C 226.127 228.371,228.540 230.592,229.825 231.787 C 232.119 233.919,234.953 236.510,240.894 241.907 C 242.537 243.399,245.202 245.718,246.817 247.060 C 248.432 248.402,251.132 250.846,252.817 252.490 C 254.502 254.134,256.577 255.984,257.429 256.600 C 258.280 257.217,260.065 258.771,261.397 260.055 C 264.819 263.355,268.361 266.684,271.863 269.891 C 273.523 271.412,276.022 273.722,277.416 275.025 C 278.810 276.328,281.299 278.638,282.946 280.158 C 284.594 281.678,287.062 283.988,288.431 285.291 C 289.800 286.594,292.485 288.993,294.399 290.622 C 296.313 292.251,298.689 294.390,299.680 295.375 C 300.670 296.361,302.369 297.865,303.455 298.718 C 304.541 299.571,307.917 302.543,310.958 305.322 C 313.998 308.102,317.534 311.307,318.815 312.444 C 320.096 313.581,322.372 315.715,323.873 317.187 C 325.374 318.658,327.258 320.299,328.059 320.832 C 328.861 321.365,329.872 322.352,330.306 323.026 C 330.740 323.699,331.895 324.805,332.873 325.485 C 333.850 326.164,335.632 327.704,336.832 328.908 C 338.032 330.111,339.498 331.482,340.090 331.954 C 341.334 332.948,341.456 334.006,340.465 335.229 C 339.198 336.793,336.402 336.846,261.007 336.733 L 188.549 336.624 186.654 335.749 C 184.956 334.965,180.703 331.318,171.570 322.812 C 170.049 321.396,167.501 319.038,165.906 317.572 C 164.312 316.106,161.913 313.831,160.576 312.518 C 159.238 311.204,157.506 309.709,156.726 309.197 C 155.947 308.684,154.903 307.672,154.406 306.947 C 153.909 306.222,152.942 305.282,152.255 304.858 C 151.569 304.434,150.178 303.234,149.165 302.192 C 148.152 301.149,145.610 298.786,143.517 296.940 C 141.423 295.094,137.356 291.451,134.478 288.845 C 131.601 286.239,127.319 282.419,124.963 280.355 C 122.607 278.292,119.869 275.790,118.878 274.795 C 117.888 273.799,116.367 272.467,115.499 271.833 C 114.630 271.200,113.031 269.793,111.945 268.707 C 110.859 267.621,109.434 266.288,108.779 265.745 C 108.124 265.202,107.236 264.303,106.805 263.746 C 106.374 263.189,105.257 262.179,104.322 261.503 C 103.388 260.826,102.086 259.593,101.430 258.764 C 100.774 257.934,99.621 256.880,98.868 256.422 C 98.116 255.963,96.544 254.630,95.376 253.460 C 94.208 252.290,92.004 250.178,90.478 248.766 C 88.952 247.354,86.405 244.999,84.819 243.533 C 76.574 235.910,70.631 230.603,68.509 228.968 C 67.206 227.963,65.669 226.632,65.093 226.009 C 64.517 225.386,62.320 223.366,60.209 221.520 C 58.099 219.674,55.252 217.098,53.882 215.795 C 52.512 214.492,50.039 212.182,48.385 210.661 C 46.732 209.141,44.258 206.831,42.889 205.528 C 41.519 204.225,39.838 202.691,39.153 202.119 C 36.640 200.020,37.922 195.971,42.152 192.647 C 45.724 189.840,60.192 176.659,68.904 168.275 C 70.207 167.021,71.911 165.577,72.691 165.067 C 73.471 164.556,74.509 163.555,74.997 162.841 C 75.486 162.128,76.359 161.248,76.936 160.886 C 77.924 160.267,79.391 158.908,85.094 153.332 C 86.397 152.058,88.085 150.588,88.845 150.066 C 89.605 149.544,91.133 148.216,92.241 147.115 C 95.257 144.118,98.284 141.371,100.494 139.627 C 101.579 138.770,104.778 135.914,107.601 133.281 C 110.424 130.648,113.268 128.089,113.919 127.595 C 115.203 126.621,123.268 119.102,127.634 114.808 C 129.124 113.342,130.533 112.142,130.765 112.142 C 130.997 112.142,132.402 110.943,133.886 109.477 C 137.127 106.276,143.542 100.289,150.143 94.303 C 151.503 93.070,153.860 90.930,155.380 89.549 C 156.900 88.167,158.996 86.359,160.036 85.532 C 161.077 84.704,164.453 81.717,167.539 78.894 C 170.624 76.071,174.359 72.669,175.838 71.333 C 177.317 69.997,179.627 67.816,180.971 66.487 C 182.316 65.157,184.126 63.705,184.995 63.260 C 185.864 62.815,187.187 61.992,187.935 61.432 L 189.295 60.415 264.181 60.415 C 338.846 60.415,339.070 60.417,339.791 61.213 " stroke="none" fill="#bbe3ec" fill-rule="evenodd"></path></g></svg>