<svg id="svg" version="1.1" xmlns="http://www.w3.org/2000/svg" xmlns:xlink="http://www.w3.org/1999/xlink" width="400" height="50.28901734104046" viewBox="0, 0, 400,50.28901734104046"><g id="svgg"><path id="path0" d="M56.167 0.236 C 56.167 0.366,56.099 0.497,56.015 0.528 C 55.872 0.580,55.006 1.402,49.995 6.235 C 48.846 7.343,47.196 8.918,46.328 9.734 C 45.460 10.550,43.111 12.800,41.107 14.734 C 39.103 16.668,37.115 18.578,36.690 18.980 C 35.504 20.098,30.573 24.802,29.506 25.833 C 26.216 29.010,21.327 33.706,20.833 34.162 C 19.789 35.128,12.501 42.099,9.226 45.265 C 8.648 45.823,7.458 46.968,6.581 47.810 C 5.703 48.652,5.030 49.414,5.086 49.504 C 5.151 49.610,64.994 49.667,176.106 49.667 L 347.025 49.667 348.054 48.708 C 348.620 48.181,349.121 47.712,349.167 47.667 C 349.212 47.621,350.071 46.833,351.075 45.917 C 352.078 45.000,353.286 43.875,353.759 43.417 C 354.232 42.958,354.986 42.247,355.435 41.837 C 355.883 41.426,356.851 40.526,357.586 39.837 C 358.321 39.147,359.745 37.833,360.750 36.917 C 361.756 36.000,363.249 34.612,364.068 33.833 C 364.887 33.054,365.680 32.304,365.831 32.167 C 365.981 32.029,366.512 31.546,367.010 31.092 C 367.509 30.639,368.779 29.465,369.833 28.484 C 371.701 26.746,372.079 26.392,374.334 24.270 C 374.930 23.709,375.830 22.880,376.334 22.428 C 376.838 21.977,377.889 21.002,378.671 20.262 C 379.452 19.522,381.024 18.054,382.163 17.000 C 383.303 15.946,384.799 14.558,385.488 13.917 C 386.178 13.275,387.186 12.338,387.729 11.833 C 388.272 11.329,389.107 10.542,389.584 10.083 C 390.062 9.625,391.058 8.702,391.798 8.031 C 393.227 6.736,393.305 6.663,396.075 4.083 C 399.502 0.890,399.751 0.667,399.875 0.667 C 399.944 0.667,400.000 0.517,400.000 0.333 C 400.000 0.000,399.889 0.000,228.083 0.000 C 79.874 0.000,56.167 0.033,56.167 0.236 M287.787 15.882 C 287.972 16.067,288.011 16.303,287.931 16.734 L 287.819 17.331 286.226 17.318 C 284.073 17.301,283.444 17.968,283.444 20.272 C 283.444 21.231,283.448 21.233,285.220 21.332 C 286.638 21.410,286.754 21.443,286.802 21.783 C 286.919 22.602,286.613 22.794,285.100 22.858 C 284.327 22.890,283.632 22.979,283.555 23.055 C 283.479 23.132,283.379 25.757,283.333 28.889 L 283.250 34.583 282.417 34.583 L 281.583 34.583 281.500 28.889 C 281.407 22.551,281.493 22.980,280.295 22.875 C 278.653 22.731,278.727 21.901,280.426 21.407 C 281.394 21.125,281.500 20.917,281.500 19.307 C 281.500 17.743,282.773 16.036,284.257 15.611 C 284.931 15.418,287.522 15.617,287.787 15.882 M109.908 15.955 C 109.969 16.114,110.010 18.645,109.999 21.580 C 109.988 24.515,109.984 27.056,109.989 27.226 C 109.997 27.452,110.214 27.296,110.792 26.647 C 111.561 25.782,112.507 24.773,114.714 22.458 L 115.787 21.333 116.800 21.333 C 118.223 21.333,118.219 21.344,115.816 23.840 C 114.629 25.074,113.509 26.282,113.329 26.524 L 113.002 26.965 113.610 27.858 C 113.945 28.348,114.413 28.983,114.651 29.268 C 114.889 29.552,115.233 29.998,115.417 30.257 C 115.600 30.517,116.377 31.549,117.143 32.552 C 118.208 33.946,118.482 34.409,118.309 34.518 C 118.033 34.693,116.484 34.709,116.241 34.539 C 116.048 34.405,113.060 30.501,112.639 29.833 C 111.793 28.491,111.416 28.349,110.625 29.076 L 110.000 29.650 110.000 31.958 C 110.000 34.665,109.699 35.116,108.264 34.566 C 107.989 34.460,107.839 16.050,108.111 15.778 C 108.367 15.522,109.796 15.663,109.908 15.955 M173.509 19.250 C 173.615 23.310,173.531 22.938,174.204 22.324 C 174.499 22.054,174.828 21.833,174.933 21.833 C 175.039 21.833,175.210 21.731,175.314 21.607 C 175.668 21.180,177.900 20.920,179.144 21.160 C 180.867 21.493,181.509 21.949,182.256 23.374 L 182.671 24.165 182.627 29.374 L 182.583 34.583 181.965 34.635 C 180.626 34.746,180.667 34.896,180.666 29.786 C 180.665 24.916,180.582 24.265,179.866 23.533 C 178.755 22.397,176.044 22.526,174.756 23.777 C 173.774 24.731,173.626 25.512,173.515 30.333 L 173.417 34.583 172.696 34.635 C 171.422 34.727,171.500 35.341,171.500 25.243 C 171.500 14.921,171.421 15.634,172.563 15.700 L 173.417 15.750 173.509 19.250 M209.960 24.981 C 210.006 34.973,210.034 34.667,209.077 34.667 C 207.911 34.667,208.000 35.449,208.000 25.177 C 208.000 14.918,207.919 15.633,209.077 15.701 L 209.917 15.750 209.960 24.981 M351.293 25.125 L 351.250 34.583 350.858 34.639 C 350.099 34.746,349.667 34.529,349.664 34.038 C 349.659 33.045,349.520 33.047,348.009 34.053 C 346.698 34.926,344.063 35.033,342.516 34.276 C 338.956 32.534,338.515 24.630,341.836 22.098 C 343.740 20.645,347.393 20.716,348.649 22.229 C 349.221 22.918,349.333 22.402,349.333 19.093 C 349.333 15.457,349.265 15.667,350.446 15.667 L 351.336 15.667 351.293 25.125 M122.976 16.561 C 123.878 17.263,123.330 19.000,122.207 19.000 C 121.749 19.000,121.148 18.284,121.132 17.721 C 121.097 16.514,122.103 15.882,122.976 16.561 M320.699 16.626 C 321.123 16.989,321.227 17.733,320.933 18.301 C 320.506 19.127,319.716 19.244,319.179 18.561 C 318.153 17.257,319.474 15.576,320.699 16.626 M216.214 16.817 C 216.610 17.488,216.572 18.041,216.091 18.559 C 215.043 19.691,213.674 18.270,214.421 16.825 C 214.788 16.115,215.797 16.111,216.214 16.817 M245.655 16.772 C 246.115 17.357,246.091 18.020,245.591 18.559 C 244.526 19.708,243.162 18.292,243.921 16.825 C 244.268 16.155,245.148 16.128,245.655 16.772 M62.667 17.190 C 65.565 18.131,66.652 21.139,64.977 23.583 C 64.606 24.124,63.656 24.831,63.294 24.836 C 62.545 24.845,62.702 25.159,63.690 25.627 C 67.564 27.462,67.137 32.566,62.972 34.201 C 62.041 34.566,55.791 34.852,54.407 34.593 L 53.833 34.485 53.833 25.770 C 53.833 20.977,53.887 17.002,53.953 16.936 C 54.184 16.705,61.861 16.929,62.667 17.190 M164.800 18.367 C 164.912 18.479,165.000 19.018,165.000 19.598 C 165.000 21.153,165.201 21.318,167.165 21.373 C 168.878 21.420,168.995 21.498,168.762 22.430 C 168.664 22.820,168.610 22.833,167.135 22.833 C 164.894 22.833,165.000 22.635,165.000 26.836 C 165.000 32.435,165.442 33.426,167.795 33.103 C 168.679 32.982,169.000 33.176,169.000 33.833 C 169.000 35.044,165.611 35.218,164.343 34.072 C 163.069 32.921,163.000 32.596,163.000 27.704 C 163.000 22.735,163.016 22.833,162.182 22.833 C 160.807 22.833,160.923 21.557,162.324 21.277 C 162.770 21.188,163.667 19.521,163.667 18.782 C 163.667 18.485,164.012 18.167,164.333 18.167 C 164.480 18.167,164.690 18.257,164.800 18.367 M252.161 18.489 C 252.256 18.666,252.334 19.248,252.336 19.781 C 252.340 21.205,252.381 21.237,254.368 21.333 L 256.083 21.417 256.137 21.885 C 256.229 22.688,255.951 22.833,254.325 22.833 C 252.216 22.833,252.331 22.585,252.347 27.137 C 252.366 32.615,252.566 33.083,254.884 33.083 C 256.692 33.083,257.040 34.397,255.316 34.715 C 251.287 35.460,250.333 34.118,250.333 27.706 C 250.333 22.804,250.339 22.833,249.340 22.833 C 248.465 22.833,248.175 22.310,248.739 21.746 C 248.966 21.519,249.293 21.333,249.467 21.333 C 249.981 21.333,250.833 19.960,250.833 19.132 C 250.833 18.331,251.820 17.853,252.161 18.489 M56.185 18.800 C 55.889 19.353,55.939 23.908,56.244 24.161 C 56.698 24.539,61.447 24.319,62.222 23.885 C 63.699 23.058,63.979 20.602,62.725 19.471 C 61.769 18.609,56.572 18.075,56.185 18.800 M77.343 21.351 C 77.891 22.375,77.311 23.000,75.814 23.000 C 72.747 23.000,71.833 24.727,71.833 30.523 C 71.833 34.635,71.825 34.668,70.842 34.664 C 69.776 34.660,69.825 35.004,69.873 27.906 L 69.917 21.417 70.553 21.364 C 71.365 21.297,71.666 21.553,71.669 22.312 C 71.672 22.986,71.963 23.570,72.112 23.201 C 72.747 21.628,76.736 20.217,77.343 21.351 M86.374 21.223 C 86.809 21.338,87.256 21.522,87.366 21.633 C 87.476 21.743,87.649 21.833,87.751 21.833 C 87.852 21.833,88.162 22.077,88.441 22.375 C 89.713 23.736,90.203 25.055,90.132 26.933 L 90.083 28.250 85.583 28.333 L 81.083 28.417 81.030 28.796 C 80.878 29.864,81.884 31.698,83.043 32.465 C 83.936 33.055,87.270 33.138,88.463 32.600 C 89.411 32.173,89.699 32.318,89.635 33.194 C 89.569 34.084,88.999 34.433,87.196 34.686 C 81.562 35.477,78.228 32.194,79.008 26.625 C 79.298 24.553,80.858 21.833,81.757 21.833 C 81.854 21.833,82.026 21.741,82.139 21.628 C 82.688 21.079,84.992 20.859,86.374 21.223 M100.849 21.235 C 103.524 21.875,103.829 22.730,103.831 29.617 L 103.833 34.485 103.261 34.592 C 102.550 34.726,102.374 34.621,102.204 33.964 C 101.995 33.157,101.605 33.007,101.048 33.520 C 98.079 36.251,93.118 34.686,93.118 31.020 C 93.118 28.161,94.804 27.032,99.611 26.676 C 101.944 26.502,101.901 26.530,101.772 25.289 C 101.642 24.049,101.143 23.187,100.478 23.054 C 100.211 23.001,99.953 22.892,99.903 22.812 C 99.701 22.484,96.979 22.864,96.127 23.339 C 95.341 23.777,94.833 23.454,94.833 22.515 C 94.833 21.445,98.482 20.669,100.849 21.235 M135.778 21.250 C 138.434 21.942,138.729 22.721,138.802 29.232 C 138.864 34.853,138.897 34.659,137.889 34.664 C 136.780 34.669,136.833 34.896,136.833 30.184 C 136.833 24.249,136.614 23.496,134.716 22.899 C 133.855 22.628,133.739 22.628,132.587 22.900 C 130.033 23.502,129.667 24.430,129.667 30.297 C 129.667 34.654,129.663 34.668,128.675 34.664 C 127.609 34.660,127.659 35.004,127.706 27.906 L 127.750 21.417 128.500 21.417 C 129.235 21.417,129.254 21.431,129.472 22.120 L 129.695 22.823 130.592 22.146 C 132.037 21.055,133.836 20.744,135.778 21.250 M151.167 21.302 L 153.583 21.417 153.583 21.909 C 153.583 22.444,153.262 22.618,152.212 22.650 C 151.536 22.671,151.372 23.154,151.742 24.038 C 152.956 26.945,150.782 29.536,146.892 29.818 C 145.082 29.950,144.221 30.706,144.696 31.747 C 144.949 32.302,145.168 32.352,147.985 32.500 C 152.213 32.721,153.193 33.341,153.309 35.866 C 153.466 39.300,150.648 40.893,145.154 40.474 C 140.900 40.150,139.224 35.371,142.875 33.976 C 143.392 33.778,143.501 33.180,143.083 32.833 C 142.607 32.438,142.754 30.935,143.333 30.275 C 143.936 29.589,143.968 29.127,143.439 28.780 C 142.007 27.842,141.601 24.408,142.744 22.910 C 143.829 21.488,145.121 20.980,147.333 21.107 C 148.112 21.152,149.837 21.240,151.167 21.302 M193.835 21.216 C 196.265 21.866,197.739 24.085,197.632 26.935 L 197.583 28.250 193.085 28.333 C 187.954 28.428,188.276 28.307,188.753 29.958 C 189.084 31.104,189.619 31.854,190.543 32.465 C 191.436 33.055,194.770 33.138,195.963 32.600 C 196.915 32.171,197.199 32.318,197.135 33.207 C 196.971 35.471,190.560 35.402,188.269 33.111 C 186.023 30.865,185.758 26.067,187.726 23.262 C 188.991 21.461,191.548 20.604,193.835 21.216 M228.716 21.331 C 229.064 21.435,229.696 21.853,230.121 22.260 C 230.954 23.059,231.079 23.115,231.283 22.783 C 232.485 20.827,236.861 20.416,238.546 22.101 C 239.678 23.234,239.833 24.145,239.833 29.677 C 239.833 34.954,239.895 34.667,238.768 34.667 C 237.660 34.667,237.684 34.782,237.631 29.250 C 237.576 23.432,237.592 23.494,235.910 22.922 C 234.198 22.340,232.358 23.138,231.683 24.753 C 231.358 25.530,231.333 25.900,231.333 29.928 C 231.333 34.664,231.333 34.667,230.372 34.667 C 229.123 34.667,229.167 34.839,229.167 29.919 C 229.167 23.708,228.765 22.667,226.371 22.667 C 223.458 22.667,222.661 24.373,222.665 30.607 C 222.667 34.851,222.714 34.669,221.611 34.664 C 220.619 34.659,220.659 34.955,220.706 27.906 L 220.750 21.417 221.537 21.366 L 222.324 21.315 222.515 22.074 C 222.707 22.836,222.932 23.037,223.101 22.597 C 223.559 21.403,226.633 20.710,228.716 21.331 M272.250 21.220 C 277.707 22.566,278.511 31.669,273.400 34.240 C 272.029 34.929,269.220 34.974,267.929 34.328 C 265.286 33.004,264.006 29.976,264.581 26.402 C 264.839 24.805,264.910 24.607,265.662 23.417 C 266.887 21.478,269.612 20.569,272.250 21.220 M303.900 21.335 C 304.292 21.452,304.861 21.848,305.332 22.332 L 306.114 23.134 306.515 22.645 C 308.051 20.770,311.759 20.451,313.581 22.036 C 314.825 23.118,315.000 24.064,315.000 29.702 C 315.000 34.904,315.046 34.670,314.028 34.664 C 312.759 34.658,312.853 35.056,312.799 29.428 C 312.750 24.413,312.748 24.389,312.347 23.804 C 311.112 22.002,307.773 22.555,306.823 24.719 C 306.468 25.526,306.437 25.881,306.347 30.083 L 306.250 34.583 305.853 34.639 C 305.635 34.670,305.204 34.648,304.895 34.590 L 304.333 34.485 304.333 29.983 C 304.333 23.754,303.918 22.667,301.538 22.667 C 298.636 22.667,297.848 24.323,297.839 30.441 C 297.833 34.868,297.883 34.669,296.778 34.664 C 295.786 34.659,295.826 34.955,295.873 27.906 L 295.917 21.417 296.704 21.366 L 297.491 21.315 297.682 22.074 C 297.875 22.842,298.058 23.023,298.219 22.604 C 298.338 22.293,299.781 21.334,300.133 21.331 C 300.289 21.329,300.529 21.251,300.667 21.156 C 300.968 20.948,302.981 21.059,303.900 21.335 M333.445 21.250 C 336.101 21.942,336.396 22.721,336.468 29.232 C 336.531 34.853,336.564 34.659,335.555 34.664 C 334.445 34.669,334.500 34.910,334.500 30.049 C 334.500 24.130,334.320 23.508,332.440 22.917 C 330.525 22.314,328.087 23.371,327.740 24.954 C 327.685 25.209,327.570 25.634,327.486 25.900 C 327.402 26.166,327.333 28.157,327.333 30.325 C 327.333 34.651,327.329 34.668,326.342 34.664 C 325.276 34.660,325.325 35.004,325.373 27.906 L 325.417 21.417 326.053 21.364 C 326.778 21.305,327.166 21.547,327.169 22.062 C 327.174 22.669,327.444 22.968,327.702 22.649 C 328.813 21.273,331.252 20.679,333.445 21.250 M123.127 27.958 L 123.083 34.583 122.250 34.583 L 121.417 34.583 121.373 28.167 C 121.323 20.767,121.243 21.333,122.330 21.333 L 123.170 21.333 123.127 27.958 M216.294 27.906 C 216.341 34.955,216.381 34.659,215.389 34.664 C 214.261 34.670,214.333 35.128,214.333 28.010 C 214.333 20.844,214.259 21.300,215.410 21.368 L 216.250 21.417 216.294 27.906 M245.732 21.597 C 245.938 22.134,245.845 34.255,245.633 34.467 C 245.422 34.678,244.539 34.735,244.097 34.566 C 243.822 34.460,243.674 21.715,243.944 21.444 C 244.185 21.204,245.629 21.328,245.732 21.597 M320.899 21.597 C 321.105 22.134,321.012 34.255,320.800 34.467 C 320.588 34.678,319.706 34.735,319.264 34.566 C 318.989 34.460,318.841 21.715,319.111 21.444 C 319.351 21.204,320.795 21.328,320.899 21.597 M145.833 22.628 C 142.232 24.385,144.379 29.444,148.192 28.186 C 150.139 27.543,150.597 24.440,148.942 23.101 C 148.299 22.581,146.493 22.306,145.833 22.628 M83.417 22.961 C 82.490 23.325,81.672 24.278,81.326 25.398 C 80.948 26.618,80.833 26.573,84.511 26.638 C 88.071 26.700,88.067 26.701,87.891 25.421 C 87.609 23.364,85.435 22.168,83.417 22.961 M190.917 22.971 C 189.778 23.434,188.667 25.017,188.667 26.176 C 188.667 26.583,189.309 26.667,192.417 26.667 C 195.524 26.667,195.560 26.652,195.393 25.433 C 195.107 23.345,192.933 22.149,190.917 22.971 M269.197 22.955 C 265.362 24.107,265.694 32.205,269.608 32.975 C 272.789 33.601,274.534 31.809,274.534 27.917 C 274.534 23.926,272.442 21.980,269.197 22.955 M344.083 22.990 C 340.594 24.560,340.967 32.249,344.568 32.997 C 346.457 33.389,348.034 32.740,348.786 31.261 C 349.375 30.102,349.404 26.198,348.834 24.872 C 348.033 23.010,345.909 22.169,344.083 22.990 M56.169 26.496 C 56.058 26.703,56.009 27.934,56.038 29.788 L 56.083 32.750 58.492 32.796 C 61.211 32.849,62.183 32.636,63.107 31.785 C 64.437 30.561,64.349 27.958,62.945 26.967 C 61.814 26.169,56.540 25.803,56.169 26.496 M98.083 28.327 C 94.815 28.774,94.066 32.339,97.098 33.018 C 99.415 33.536,101.466 32.083,101.730 29.736 C 101.915 28.084,101.380 27.877,98.083 28.327 M144.758 34.521 C 142.499 35.050,142.349 38.012,144.544 38.761 C 148.365 40.064,152.902 37.463,151.036 35.039 C 150.546 34.404,146.636 34.081,144.758 34.521 " stroke="none" fill="#bbe3eb" fill-rule="evenodd"></path><path id="path1" d="M284.257 15.611 C 282.773 16.036,281.500 17.743,281.500 19.307 C 281.500 20.917,281.394 21.125,280.426 21.407 C 278.727 21.901,278.653 22.731,280.295 22.875 C 281.493 22.980,281.407 22.551,281.500 28.889 L 281.583 34.583 282.417 34.583 L 283.250 34.583 283.333 28.889 C 283.379 25.757,283.479 23.132,283.555 23.055 C 283.632 22.979,284.327 22.890,285.100 22.858 C 286.613 22.794,286.919 22.602,286.802 21.783 C 286.754 21.443,286.638 21.410,285.220 21.332 C 283.448 21.233,283.444 21.231,283.444 20.272 C 283.444 17.968,284.073 17.301,286.226 17.318 L 287.819 17.331 287.931 16.734 C 288.102 15.820,287.807 15.637,286.057 15.572 C 285.247 15.542,284.436 15.560,284.257 15.611 M108.111 15.778 C 107.839 16.050,107.989 34.460,108.264 34.566 C 109.699 35.116,110.000 34.665,110.000 31.958 L 110.000 29.650 110.625 29.076 C 111.416 28.349,111.793 28.491,112.639 29.833 C 113.060 30.501,116.048 34.405,116.241 34.539 C 116.484 34.709,118.033 34.693,118.309 34.518 C 118.482 34.409,118.208 33.946,117.143 32.552 C 116.377 31.549,115.600 30.517,115.417 30.257 C 115.233 29.998,114.889 29.552,114.651 29.268 C 114.413 28.983,113.945 28.348,113.610 27.858 L 113.002 26.965 113.329 26.524 C 113.509 26.282,114.629 25.074,115.816 23.840 C 118.219 21.344,118.223 21.333,116.800 21.333 L 115.787 21.333 114.714 22.458 C 112.507 24.773,111.561 25.782,110.792 26.647 C 110.214 27.296,109.997 27.452,109.989 27.226 C 109.984 27.056,109.988 24.515,109.999 21.580 C 110.010 18.645,109.969 16.114,109.908 15.955 C 109.796 15.663,108.367 15.522,108.111 15.778 M171.604 15.922 C 171.547 16.072,171.500 20.266,171.500 25.243 C 171.500 35.341,171.422 34.727,172.696 34.635 L 173.417 34.583 173.515 30.333 C 173.626 25.512,173.774 24.731,174.756 23.777 C 176.044 22.526,178.755 22.397,179.866 23.533 C 180.582 24.265,180.665 24.916,180.666 29.786 C 180.667 34.896,180.626 34.746,181.965 34.635 L 182.583 34.583 182.627 29.374 L 182.671 24.165 182.256 23.374 C 181.509 21.949,180.867 21.493,179.144 21.160 C 177.900 20.920,175.668 21.180,175.314 21.607 C 175.210 21.731,175.039 21.833,174.933 21.833 C 174.828 21.833,174.499 22.054,174.204 22.324 C 173.531 22.938,173.615 23.310,173.509 19.250 L 173.417 15.750 172.563 15.700 C 171.896 15.662,171.686 15.710,171.604 15.922 M208.119 15.770 C 208.053 15.836,208.000 20.068,208.000 25.177 C 208.000 35.449,207.911 34.667,209.077 34.667 C 210.034 34.667,210.006 34.973,209.960 24.981 L 209.917 15.750 209.077 15.701 C 208.615 15.674,208.184 15.705,208.119 15.770 M349.444 15.778 C 349.383 15.839,349.333 17.331,349.333 19.093 C 349.333 22.402,349.221 22.918,348.649 22.229 C 347.393 20.716,343.740 20.645,341.836 22.098 C 338.515 24.630,338.956 32.534,342.516 34.276 C 344.063 35.033,346.698 34.926,348.009 34.053 C 349.520 33.047,349.659 33.045,349.664 34.038 C 349.667 34.529,350.099 34.746,350.858 34.639 L 351.250 34.583 351.293 25.125 L 351.336 15.667 350.446 15.667 C 349.956 15.667,349.506 15.717,349.444 15.778 M121.886 16.346 C 121.088 16.642,120.880 17.923,121.518 18.603 C 122.158 19.284,123.015 19.049,123.325 18.109 C 123.686 17.015,122.847 15.988,121.886 16.346 M319.553 16.346 C 318.793 16.628,318.592 17.815,319.179 18.561 C 319.716 19.244,320.506 19.127,320.933 18.301 C 321.483 17.238,320.582 15.963,319.553 16.346 M214.421 16.825 C 213.674 18.270,215.043 19.691,216.091 18.559 C 216.887 17.701,216.402 16.333,215.302 16.333 C 214.777 16.333,214.634 16.413,214.421 16.825 M243.921 16.825 C 243.162 18.292,244.526 19.708,245.591 18.559 C 246.385 17.703,245.863 16.333,244.742 16.333 C 244.283 16.333,244.127 16.427,243.921 16.825 M53.953 16.936 C 53.887 17.002,53.833 20.977,53.833 25.770 L 53.833 34.485 54.407 34.593 C 55.791 34.852,62.041 34.566,62.972 34.201 C 67.137 32.566,67.564 27.462,63.690 25.627 C 62.702 25.159,62.545 24.845,63.294 24.836 C 63.656 24.831,64.606 24.124,64.977 23.583 C 66.652 21.139,65.565 18.131,62.667 17.190 C 61.861 16.929,54.184 16.705,53.953 16.936 M163.867 18.367 C 163.757 18.477,163.667 18.663,163.667 18.782 C 163.667 19.521,162.770 21.188,162.324 21.277 C 160.923 21.557,160.807 22.833,162.182 22.833 C 163.016 22.833,163.000 22.735,163.000 27.704 C 163.000 32.596,163.069 32.921,164.343 34.072 C 165.611 35.218,169.000 35.044,169.000 33.833 C 169.000 33.176,168.679 32.982,167.795 33.103 C 165.442 33.426,165.000 32.435,165.000 26.836 C 165.000 22.635,164.894 22.833,167.135 22.833 C 168.610 22.833,168.664 22.820,168.762 22.430 C 168.995 21.498,168.878 21.420,167.165 21.373 C 165.201 21.318,165.000 21.153,165.000 19.598 C 165.000 18.551,164.821 18.167,164.333 18.167 C 164.187 18.167,163.977 18.257,163.867 18.367 M251.109 18.471 C 250.957 18.639,250.833 18.937,250.833 19.132 C 250.833 19.960,249.981 21.333,249.467 21.333 C 249.293 21.333,248.966 21.519,248.739 21.746 C 248.175 22.310,248.465 22.833,249.340 22.833 C 250.339 22.833,250.333 22.804,250.333 27.706 C 250.333 34.118,251.287 35.460,255.316 34.715 C 257.040 34.397,256.692 33.083,254.884 33.083 C 252.566 33.083,252.366 32.615,252.347 27.137 C 252.331 22.585,252.216 22.833,254.325 22.833 C 255.951 22.833,256.229 22.688,256.137 21.885 L 256.083 21.417 254.368 21.333 C 252.381 21.237,252.340 21.205,252.336 19.781 C 252.332 18.283,251.797 17.712,251.109 18.471 M61.667 18.919 C 63.904 19.734,64.242 22.754,62.222 23.885 C 61.447 24.319,56.698 24.539,56.244 24.161 C 55.939 23.908,55.889 19.353,56.185 18.800 C 56.420 18.360,60.369 18.446,61.667 18.919 M74.655 21.226 C 73.657 21.546,72.380 22.538,72.112 23.201 C 71.963 23.570,71.672 22.986,71.669 22.312 C 71.666 21.553,71.365 21.297,70.553 21.364 L 69.917 21.417 69.873 27.906 C 69.825 35.004,69.776 34.660,70.842 34.664 C 71.825 34.668,71.833 34.635,71.833 30.523 C 71.833 24.727,72.747 23.000,75.814 23.000 C 77.109 23.000,77.304 22.909,77.427 22.251 C 77.650 21.063,76.495 20.636,74.655 21.226 M83.047 21.233 C 82.660 21.337,82.252 21.515,82.139 21.628 C 82.026 21.741,81.854 21.833,81.757 21.833 C 80.858 21.833,79.298 24.553,79.008 26.625 C 78.228 32.194,81.562 35.477,87.196 34.686 C 88.999 34.433,89.569 34.084,89.635 33.194 C 89.699 32.318,89.411 32.173,88.463 32.600 C 87.270 33.138,83.936 33.055,83.043 32.465 C 81.884 31.698,80.878 29.864,81.030 28.796 L 81.083 28.417 85.583 28.333 L 90.083 28.250 90.132 26.933 C 90.203 25.055,89.713 23.736,88.441 22.375 C 88.162 22.077,87.852 21.833,87.751 21.833 C 87.649 21.833,87.476 21.743,87.366 21.633 C 86.813 21.080,84.433 20.859,83.047 21.233 M97.250 21.205 C 95.752 21.490,94.833 21.989,94.833 22.515 C 94.833 23.454,95.341 23.777,96.127 23.339 C 96.979 22.864,99.701 22.484,99.903 22.812 C 99.953 22.892,100.211 23.001,100.478 23.054 C 101.143 23.187,101.642 24.049,101.772 25.289 C 101.901 26.530,101.944 26.502,99.611 26.676 C 94.804 27.032,93.118 28.161,93.118 31.020 C 93.118 34.686,98.079 36.251,101.048 33.520 C 101.605 33.007,101.995 33.157,102.204 33.964 C 102.374 34.621,102.550 34.726,103.261 34.592 L 103.833 34.485 103.831 29.617 C 103.829 24.456,103.722 23.513,103.022 22.530 C 102.109 21.248,99.801 20.718,97.250 21.205 M132.286 21.249 C 131.848 21.370,131.085 21.773,130.592 22.146 L 129.695 22.823 129.472 22.120 C 129.254 21.431,129.235 21.417,128.500 21.417 L 127.750 21.417 127.706 27.906 C 127.659 35.004,127.609 34.660,128.675 34.664 C 129.663 34.668,129.667 34.654,129.667 30.297 C 129.667 24.430,130.033 23.502,132.587 22.900 C 133.739 22.628,133.855 22.628,134.716 22.899 C 136.614 23.496,136.833 24.249,136.833 30.184 C 136.833 34.896,136.780 34.669,137.889 34.664 C 138.897 34.659,138.864 34.853,138.802 29.232 C 138.745 24.134,138.740 24.075,138.331 23.265 C 137.378 21.382,134.859 20.542,132.286 21.249 M145.112 21.253 C 141.973 22.140,140.872 27.098,143.439 28.780 C 143.968 29.127,143.936 29.589,143.333 30.275 C 142.754 30.935,142.607 32.438,143.083 32.833 C 143.501 33.180,143.392 33.778,142.875 33.976 C 139.224 35.371,140.900 40.150,145.154 40.474 C 150.648 40.893,153.466 39.300,153.309 35.866 C 153.193 33.341,152.213 32.721,147.985 32.500 C 145.168 32.352,144.949 32.302,144.696 31.747 C 144.221 30.706,145.082 29.950,146.892 29.818 C 150.782 29.536,152.956 26.945,151.742 24.038 C 151.372 23.154,151.536 22.671,152.212 22.650 C 153.262 22.618,153.583 22.444,153.583 21.909 L 153.583 21.417 151.167 21.302 C 149.837 21.240,148.112 21.152,147.333 21.107 C 146.406 21.054,145.639 21.104,145.112 21.253 M190.667 21.229 C 189.591 21.500,188.371 22.344,187.726 23.262 C 185.758 26.067,186.023 30.865,188.269 33.111 C 190.560 35.402,196.971 35.471,197.135 33.207 C 197.199 32.318,196.915 32.171,195.963 32.600 C 194.770 33.138,191.436 33.055,190.543 32.465 C 189.619 31.854,189.084 31.104,188.753 29.958 C 188.276 28.307,187.954 28.428,193.085 28.333 L 197.583 28.250 197.632 26.935 C 197.786 22.823,194.622 20.231,190.667 21.229 M225.250 21.222 C 224.484 21.450,223.235 22.249,223.101 22.597 C 222.932 23.037,222.707 22.836,222.515 22.074 L 222.324 21.315 221.537 21.366 L 220.750 21.417 220.706 27.906 C 220.659 34.955,220.619 34.659,221.611 34.664 C 222.714 34.669,222.667 34.851,222.665 30.607 C 222.661 24.373,223.458 22.667,226.371 22.667 C 228.765 22.667,229.167 23.708,229.167 29.919 C 229.167 34.839,229.123 34.667,230.372 34.667 C 231.333 34.667,231.333 34.664,231.333 29.928 C 231.333 25.900,231.358 25.530,231.683 24.753 C 232.358 23.138,234.198 22.340,235.910 22.922 C 237.592 23.494,237.576 23.432,237.631 29.250 C 237.684 34.782,237.660 34.667,238.768 34.667 C 239.895 34.667,239.833 34.954,239.833 29.677 C 239.833 24.145,239.678 23.234,238.546 22.101 C 236.861 20.416,232.485 20.827,231.283 22.783 C 231.079 23.115,230.954 23.059,230.121 22.260 C 229.009 21.195,226.873 20.740,225.250 21.222 M268.747 21.242 C 267.460 21.557,266.336 22.350,265.662 23.417 C 264.910 24.607,264.839 24.805,264.581 26.402 C 263.787 31.341,266.241 34.746,270.588 34.734 C 273.766 34.726,275.645 33.315,276.437 30.345 C 278.004 24.464,274.161 19.914,268.747 21.242 M300.667 21.156 C 300.529 21.251,300.289 21.329,300.133 21.331 C 299.781 21.334,298.338 22.293,298.219 22.604 C 298.058 23.023,297.875 22.842,297.682 22.074 L 297.491 21.315 296.704 21.366 L 295.917 21.417 295.873 27.906 C 295.826 34.955,295.786 34.659,296.778 34.664 C 297.883 34.669,297.833 34.868,297.839 30.441 C 297.848 24.323,298.636 22.667,301.538 22.667 C 303.918 22.667,304.333 23.754,304.333 29.983 L 304.333 34.485 304.895 34.590 C 305.204 34.648,305.635 34.670,305.853 34.639 L 306.250 34.583 306.347 30.083 C 306.437 25.881,306.468 25.526,306.823 24.719 C 307.773 22.555,311.112 22.002,312.347 23.804 C 312.748 24.389,312.750 24.413,312.799 29.428 C 312.853 35.056,312.759 34.658,314.028 34.664 C 315.046 34.670,315.000 34.904,315.000 29.702 C 315.000 24.064,314.825 23.118,313.581 22.036 C 311.759 20.451,308.051 20.770,306.515 22.645 L 306.114 23.134 305.332 22.332 C 304.311 21.284,301.505 20.576,300.667 21.156 M329.945 21.261 C 329.163 21.474,328.139 22.108,327.702 22.649 C 327.444 22.968,327.174 22.669,327.169 22.062 C 327.166 21.547,326.778 21.305,326.053 21.364 L 325.417 21.417 325.373 27.906 C 325.325 35.004,325.276 34.660,326.342 34.664 C 327.329 34.668,327.333 34.651,327.333 30.325 C 327.333 28.157,327.402 26.166,327.486 25.900 C 327.570 25.634,327.685 25.209,327.740 24.954 C 328.087 23.371,330.525 22.314,332.440 22.917 C 334.320 23.508,334.500 24.130,334.500 30.049 C 334.500 34.910,334.445 34.669,335.555 34.664 C 336.564 34.659,336.531 34.853,336.468 29.232 C 336.412 24.134,336.407 24.075,335.997 23.265 C 335.040 21.374,332.551 20.550,329.945 21.261 M121.409 21.542 C 121.365 21.657,121.349 24.638,121.373 28.167 L 121.417 34.583 122.250 34.583 L 123.083 34.583 123.127 27.958 L 123.170 21.333 122.330 21.333 C 121.810 21.333,121.459 21.413,121.409 21.542 M214.452 21.437 C 214.387 21.502,214.333 24.460,214.333 28.010 C 214.333 35.128,214.261 34.670,215.389 34.664 C 216.381 34.659,216.341 34.955,216.294 27.906 L 216.250 21.417 215.410 21.368 C 214.948 21.340,214.517 21.372,214.452 21.437 M243.944 21.444 C 243.674 21.715,243.822 34.460,244.097 34.566 C 244.539 34.735,245.422 34.678,245.633 34.467 C 245.845 34.255,245.938 22.134,245.732 21.597 C 245.629 21.328,244.185 21.204,243.944 21.444 M319.111 21.444 C 318.841 21.715,318.989 34.460,319.264 34.566 C 319.706 34.735,320.588 34.678,320.800 34.467 C 321.012 34.255,321.105 22.134,320.899 21.597 C 320.795 21.328,319.351 21.204,319.111 21.444 M148.942 23.101 C 150.597 24.440,150.139 27.543,148.192 28.186 C 144.379 29.444,142.232 24.385,145.833 22.628 C 146.493 22.306,148.299 22.581,148.942 23.101 M85.993 22.970 C 86.967 23.343,87.744 24.346,87.891 25.421 C 88.067 26.701,88.071 26.700,84.511 26.638 C 80.833 26.573,80.948 26.618,81.326 25.398 C 81.995 23.235,83.985 22.200,85.993 22.970 M193.562 22.991 C 194.845 23.541,195.936 25.690,195.313 26.441 C 194.886 26.956,188.667 26.707,188.667 26.176 C 188.667 23.830,191.388 22.059,193.562 22.991 M272.045 23.005 C 274.912 23.822,275.613 30.270,273.054 32.288 C 269.949 34.736,266.237 31.990,266.546 27.474 C 266.802 23.730,268.823 22.087,272.045 23.005 M346.744 22.921 C 348.613 23.488,349.189 24.697,349.198 28.071 C 349.206 31.470,348.606 32.546,346.448 32.993 C 343.454 33.615,341.750 31.804,341.750 28.000 C 341.750 24.011,343.722 22.005,346.744 22.921 M61.428 26.425 C 63.609 26.931,64.538 28.419,63.913 30.406 C 63.312 32.315,62.064 32.865,58.492 32.796 L 56.083 32.750 56.038 29.788 C 56.009 27.934,56.058 26.703,56.169 26.496 C 56.400 26.065,59.683 26.021,61.428 26.425 M101.737 28.444 C 102.643 30.804,99.787 33.620,97.098 33.018 C 94.788 32.501,94.561 29.670,96.750 28.670 C 97.886 28.151,101.561 27.984,101.737 28.444 M149.748 34.499 C 152.485 34.947,151.885 37.962,148.896 38.773 C 145.099 39.804,141.984 38.114,143.233 35.700 C 143.882 34.444,146.485 33.964,149.748 34.499 " stroke="none" fill="#234270" fill-rule="evenodd"></path><path id="path2" d="M0.000 25.083 L 0.000 50.167 200.000 50.167 L 400.000 50.167 400.000 25.417 C 400.000 11.804,399.944 0.667,399.875 0.667 C 399.751 0.667,399.502 0.890,396.075 4.083 C 393.305 6.663,393.227 6.736,391.798 8.031 C 391.058 8.702,390.062 9.625,389.584 10.083 C 389.107 10.542,388.272 11.329,387.729 11.833 C 387.186 12.338,386.178 13.275,385.488 13.917 C 384.799 14.558,383.303 15.946,382.163 17.000 C 381.024 18.054,379.452 19.522,378.671 20.262 C 377.889 21.002,376.838 21.977,376.334 22.428 C 375.830 22.880,374.930 23.709,374.334 24.270 C 372.079 26.392,371.701 26.746,369.833 28.484 C 368.779 29.465,367.509 30.639,367.010 31.092 C 366.512 31.546,365.981 32.029,365.831 32.167 C 365.680 32.304,364.887 33.054,364.068 33.833 C 363.249 34.612,361.756 36.000,360.750 36.917 C 359.745 37.833,358.321 39.147,357.586 39.837 C 356.851 40.526,355.883 41.426,355.435 41.837 C 354.986 42.247,354.232 42.958,353.759 43.417 C 353.286 43.875,352.078 45.000,351.075 45.917 C 350.071 46.833,349.212 47.621,349.167 47.667 C 349.121 47.712,348.620 48.181,348.054 48.708 L 347.025 49.667 176.106 49.667 C 64.994 49.667,5.151 49.610,5.086 49.504 C 5.030 49.414,5.703 48.652,6.581 47.810 C 7.458 46.968,8.648 45.823,9.226 45.265 C 12.501 42.099,19.789 35.128,20.833 34.162 C 21.327 33.706,26.216 29.010,29.506 25.833 C 30.573 24.802,35.504 20.098,36.690 18.980 C 37.115 18.578,39.103 16.668,41.107 14.734 C 43.111 12.800,45.460 10.550,46.328 9.734 C 47.196 8.918,48.846 7.343,49.995 6.235 C 55.006 1.402,55.872 0.580,56.015 0.528 C 56.099 0.497,56.167 0.366,56.167 0.236 C 56.167 0.033,52.201 0.000,28.083 0.000 L 0.000 0.000 0.000 25.083 " stroke="none" fill="#fafbfc" fill-rule="evenodd"></path></g></svg>