<svg id="svg" version="1.1" xmlns="http://www.w3.org/2000/svg" xmlns:xlink="http://www.w3.org/1999/xlink" width="400" height="89.41176470588235" viewBox="0, 0, 400,89.41176470588235"><g id="svgg"><path id="path0" d="M0.000 44.667 L 0.000 89.333 200.000 89.333 L 400.000 89.333 400.000 44.667 L 400.000 0.000 200.000 0.000 L 0.000 0.000 0.000 44.667 M390.750 0.895 C 394.709 2.349,397.176 4.770,398.540 8.543 L 398.917 9.583 398.917 44.167 L 398.917 78.750 398.540 79.790 C 397.879 81.617,396.738 83.479,395.597 84.588 C 394.912 85.254,393.187 86.500,392.950 86.500 C 392.816 86.500,392.618 86.608,392.509 86.739 C 392.400 86.871,392.090 87.027,391.820 87.086 C 391.551 87.145,391.087 87.319,390.790 87.472 C 390.287 87.731,377.310 87.750,199.917 87.750 L 9.583 87.750 8.541 87.375 C 5.606 86.319,2.983 84.079,1.770 81.591 C 1.222 80.466,1.088 80.068,0.653 78.250 C 0.553 77.833,0.512 64.901,0.543 43.667 C 0.599 5.804,0.476 9.545,1.751 6.917 C 2.608 5.152,4.487 3.046,5.844 2.331 C 6.067 2.213,6.287 2.067,6.333 2.005 C 6.482 1.806,7.902 1.199,8.500 1.079 C 8.821 1.014,9.158 0.902,9.250 0.829 C 9.342 0.756,9.642 0.663,9.917 0.623 C 11.870 0.337,389.965 0.606,390.750 0.895 M226.917 17.500 C 226.550 17.577,225.537 17.692,224.667 17.755 C 223.796 17.819,222.933 17.964,222.750 18.077 C 222.567 18.191,222.067 18.337,221.639 18.400 C 221.211 18.464,220.770 18.625,220.660 18.758 C 220.550 18.891,220.248 19.000,219.989 19.000 C 219.731 19.000,219.477 19.069,219.425 19.154 C 219.372 19.238,218.848 19.542,218.259 19.829 C 217.670 20.116,217.165 20.403,217.136 20.467 C 217.076 20.600,216.056 21.333,215.931 21.333 C 215.886 21.333,215.669 21.502,215.450 21.708 C 215.231 21.915,214.627 22.476,214.109 22.955 C 213.591 23.434,213.167 23.872,213.167 23.928 C 213.167 23.983,212.946 24.266,212.677 24.556 C 211.926 25.364,211.072 26.637,210.478 27.833 C 210.181 28.429,209.878 28.942,209.803 28.972 C 209.728 29.003,209.666 29.190,209.666 29.389 C 209.666 29.587,209.516 29.996,209.333 30.296 C 209.150 30.596,209.000 31.048,209.000 31.300 C 209.000 31.553,208.899 31.907,208.775 32.088 C 208.651 32.269,208.499 32.854,208.438 33.389 C 208.377 33.924,208.216 34.577,208.080 34.839 C 207.729 35.519,207.717 43.791,208.066 44.467 C 208.194 44.714,208.354 45.367,208.422 45.917 C 208.490 46.467,208.647 47.065,208.773 47.245 C 208.898 47.426,209.000 47.781,209.000 48.033 C 209.000 48.285,209.150 48.738,209.333 49.038 C 209.516 49.338,209.666 49.744,209.666 49.941 C 209.666 50.137,209.772 50.338,209.901 50.388 C 210.030 50.437,210.186 50.708,210.248 50.989 C 210.309 51.270,210.424 51.500,210.502 51.500 C 210.580 51.500,210.697 51.667,210.762 51.872 C 210.870 52.210,211.328 52.938,211.750 53.439 C 211.842 53.548,212.179 53.959,212.500 54.352 C 213.241 55.261,214.831 56.840,215.334 57.167 C 215.545 57.304,215.836 57.548,215.980 57.708 C 216.123 57.869,216.325 58.000,216.428 58.000 C 216.531 58.000,216.751 58.150,216.917 58.333 C 217.083 58.517,217.322 58.667,217.448 58.667 C 217.574 58.667,217.720 58.779,217.773 58.917 C 217.826 59.054,218.037 59.167,218.242 59.167 C 218.448 59.167,218.789 59.317,219.000 59.500 C 219.211 59.683,219.551 59.833,219.755 59.833 C 219.959 59.833,220.211 59.936,220.316 60.063 C 220.421 60.189,220.795 60.338,221.148 60.394 C 221.501 60.451,222.005 60.610,222.270 60.747 C 222.534 60.885,223.088 61.002,223.500 61.006 C 223.912 61.011,224.550 61.123,224.917 61.255 C 225.694 61.535,230.993 61.604,231.485 61.341 C 231.649 61.254,232.359 61.111,233.064 61.023 C 233.769 60.936,234.440 60.785,234.556 60.689 C 234.672 60.593,235.080 60.464,235.463 60.403 C 235.847 60.342,236.246 60.189,236.351 60.063 C 236.455 59.936,236.663 59.833,236.812 59.832 C 236.961 59.832,237.308 59.682,237.583 59.500 C 237.858 59.318,238.215 59.168,238.375 59.168 C 238.535 59.167,238.667 59.090,238.667 58.996 C 238.667 58.902,238.865 58.750,239.107 58.658 C 239.821 58.386,241.574 56.946,242.818 55.607 C 243.147 55.253,243.660 54.708,243.958 54.395 C 244.256 54.083,244.500 53.790,244.500 53.745 C 244.500 53.700,244.745 53.308,245.044 52.873 C 245.674 51.958,246.720 49.864,246.999 48.961 C 247.104 48.618,247.261 48.295,247.345 48.242 C 247.430 48.190,247.500 47.868,247.500 47.527 C 247.500 47.186,247.612 46.747,247.750 46.551 C 247.894 46.345,248.068 45.498,248.160 44.555 C 248.247 43.654,248.394 42.579,248.486 42.167 C 248.696 41.219,248.696 39.005,248.486 37.917 C 248.397 37.458,248.253 36.363,248.166 35.484 C 248.078 34.604,247.893 33.666,247.754 33.400 C 247.616 33.134,247.502 32.640,247.501 32.302 C 247.500 31.963,247.430 31.643,247.345 31.591 C 247.261 31.538,247.103 31.215,246.996 30.873 C 246.752 30.097,246.242 28.933,245.810 28.167 C 245.629 27.846,245.372 27.340,245.238 27.042 C 245.105 26.744,244.929 26.500,244.847 26.500 C 244.766 26.500,244.621 26.275,244.525 26.000 C 244.429 25.725,244.272 25.500,244.175 25.500 C 244.079 25.500,244.000 25.419,244.000 25.319 C 244.000 25.054,243.113 24.124,240.475 21.625 C 240.305 21.465,240.095 21.333,240.008 21.333 C 239.921 21.333,239.790 21.238,239.717 21.121 C 239.643 21.005,239.377 20.819,239.125 20.708 C 238.873 20.598,238.667 20.431,238.667 20.337 C 238.667 20.243,238.521 20.167,238.343 20.167 C 238.165 20.167,237.973 20.092,237.917 20.000 C 237.790 19.794,236.246 19.075,235.625 18.932 C 235.373 18.874,235.167 18.760,235.167 18.678 C 235.167 18.596,234.848 18.481,234.458 18.423 C 234.069 18.364,233.487 18.215,233.167 18.092 C 232.846 17.969,231.683 17.781,230.583 17.675 C 229.483 17.569,228.358 17.454,228.083 17.421 C 227.808 17.387,227.283 17.422,226.917 17.500 M90.833 18.490 C 87.142 18.630,87.167 18.618,87.167 20.256 C 87.167 21.136,87.228 21.502,87.375 21.508 C 89.677 21.598,90.910 21.808,91.195 22.160 C 91.486 22.520,91.500 23.286,91.498 39.060 C 91.495 57.322,91.558 56.299,90.413 56.578 C 90.048 56.666,89.651 56.835,89.530 56.953 C 89.409 57.070,89.184 57.167,89.030 57.168 C 88.876 57.168,88.525 57.318,88.250 57.500 C 87.975 57.682,87.619 57.832,87.458 57.832 C 87.298 57.833,87.167 57.912,87.167 58.009 C 87.167 58.105,86.942 58.262,86.667 58.358 C 86.109 58.553,86.040 58.877,86.367 59.780 L 86.567 60.333 98.242 60.332 C 108.101 60.330,110.044 60.291,110.735 60.082 C 111.185 59.945,112.020 59.833,112.592 59.833 C 113.270 59.833,113.882 59.719,114.357 59.504 C 114.756 59.322,115.355 59.172,115.688 59.170 C 116.020 59.168,116.386 59.054,116.500 58.917 C 116.614 58.779,116.867 58.666,117.062 58.666 C 117.257 58.665,117.642 58.515,117.917 58.333 C 118.192 58.151,118.548 58.002,118.708 58.001 C 118.869 58.000,119.000 57.934,119.000 57.854 C 119.000 57.773,119.225 57.614,119.500 57.500 C 119.775 57.386,120.000 57.232,120.000 57.158 C 120.000 57.083,120.135 56.980,120.301 56.927 C 120.466 56.875,120.860 56.572,121.176 56.254 C 121.491 55.937,121.844 55.675,121.958 55.672 C 122.073 55.669,122.167 55.558,122.167 55.425 C 122.167 55.292,122.261 55.123,122.375 55.050 C 122.567 54.928,123.012 54.294,123.723 53.131 C 123.875 52.882,124.000 52.497,124.000 52.276 C 124.000 52.055,124.112 51.781,124.250 51.667 C 124.452 51.499,124.500 50.973,124.500 48.917 C 124.500 46.860,124.452 46.335,124.250 46.167 C 124.112 46.053,124.000 45.749,124.000 45.491 C 124.000 45.234,123.897 44.921,123.772 44.796 C 123.647 44.670,123.489 44.395,123.422 44.184 C 123.355 43.973,123.177 43.670,123.025 43.511 C 122.874 43.352,122.638 43.049,122.500 42.839 C 122.289 42.515,121.827 42.046,120.768 41.081 C 120.230 40.590,118.760 39.778,117.889 39.491 C 117.583 39.390,117.333 39.238,117.333 39.154 C 117.333 39.069,117.118 39.000,116.854 39.000 C 115.849 39.000,115.312 38.798,115.144 38.357 C 114.941 37.824,115.301 37.500,116.093 37.500 C 116.384 37.500,116.812 37.350,117.045 37.167 C 117.279 36.983,117.626 36.833,117.818 36.833 C 118.010 36.833,118.167 36.760,118.167 36.671 C 118.167 36.582,118.383 36.397,118.648 36.260 C 119.424 35.858,120.876 34.319,121.078 33.684 C 121.139 33.491,121.253 33.333,121.331 33.333 C 121.410 33.333,121.522 33.114,121.581 32.845 C 121.640 32.576,121.796 32.267,121.927 32.158 C 122.059 32.049,122.168 31.725,122.169 31.438 C 122.170 31.151,122.287 30.429,122.428 29.833 C 122.686 28.742,122.433 26.274,121.983 25.500 C 121.904 25.363,121.726 25.025,121.589 24.750 C 120.869 23.305,118.640 21.103,117.557 20.766 C 117.359 20.704,117.106 20.544,116.995 20.410 C 116.883 20.276,116.657 20.167,116.491 20.167 C 116.326 20.167,116.087 20.063,115.961 19.937 C 115.834 19.811,115.473 19.653,115.157 19.587 C 114.842 19.521,114.417 19.362,114.214 19.234 C 114.011 19.105,113.578 19.000,113.251 19.000 C 112.924 19.000,112.377 18.871,112.036 18.713 C 111.357 18.398,97.203 18.250,90.833 18.490 M127.903 18.486 C 127.717 18.672,127.855 23.854,128.074 24.900 C 128.206 25.532,128.361 26.844,128.419 27.816 C 128.476 28.788,128.592 29.733,128.675 29.917 C 128.758 30.100,128.902 30.458,128.994 30.713 L 129.162 31.177 131.275 31.130 L 133.389 31.083 133.692 29.833 C 133.858 29.146,133.996 27.967,133.997 27.214 C 133.999 26.461,134.107 25.524,134.238 25.131 C 134.370 24.738,134.501 24.203,134.530 23.942 C 134.613 23.205,135.404 23.017,139.293 22.809 C 141.955 22.666,142.722 22.671,142.919 22.835 C 143.138 23.017,143.163 25.034,143.126 39.396 L 143.083 55.750 142.167 56.206 C 141.662 56.457,141.128 56.664,140.979 56.665 C 140.830 56.666,140.614 56.779,140.500 56.917 C 140.386 57.054,140.133 57.167,139.938 57.168 C 139.743 57.168,139.358 57.318,139.083 57.500 C 138.808 57.682,138.415 57.832,138.208 57.832 C 138.002 57.833,137.833 57.907,137.833 57.998 C 137.833 58.088,137.571 58.272,137.250 58.406 C 136.593 58.681,136.509 59.045,136.921 59.842 L 137.175 60.333 147.899 60.333 L 158.624 60.333 158.740 59.156 C 158.903 57.494,158.497 57.178,156.167 57.160 C 155.571 57.156,154.783 57.044,154.417 56.912 C 154.050 56.780,153.544 56.671,153.292 56.669 C 152.083 56.663,152.167 57.926,152.167 39.595 C 152.167 21.131,152.049 22.661,153.470 22.673 C 155.543 22.690,159.498 23.012,160.161 23.219 C 161.121 23.517,161.315 23.964,161.330 25.917 C 161.336 26.742,161.422 27.717,161.521 28.083 C 161.620 28.450,161.733 29.050,161.773 29.417 C 161.812 29.783,161.883 30.327,161.930 30.625 L 162.015 31.167 164.155 31.167 C 166.738 31.167,166.725 31.177,166.898 28.917 C 166.961 28.092,167.124 27.074,167.260 26.655 C 167.454 26.057,167.497 25.101,167.462 22.170 L 167.417 18.446 147.694 18.431 C 136.847 18.423,127.941 18.448,127.903 18.486 M170.833 20.145 L 170.833 21.456 171.458 21.560 C 171.802 21.617,172.421 21.666,172.833 21.670 C 173.246 21.674,173.996 21.820,174.500 21.994 L 175.417 22.310 175.459 39.099 C 175.506 57.757,175.590 56.374,174.400 56.598 C 174.095 56.655,173.758 56.806,173.652 56.934 C 173.546 57.062,173.337 57.167,173.188 57.168 C 173.039 57.168,172.692 57.318,172.417 57.500 C 172.142 57.682,171.785 57.832,171.625 57.832 C 171.465 57.833,171.333 57.912,171.333 58.009 C 171.333 58.105,171.116 58.260,170.850 58.352 C 170.243 58.564,170.141 58.938,170.479 59.720 L 170.745 60.333 187.862 60.333 L 204.980 60.333 205.066 59.625 C 205.113 59.235,205.195 58.109,205.248 57.121 C 205.301 56.134,205.417 55.135,205.505 54.902 C 205.594 54.669,205.667 52.582,205.667 50.263 L 205.667 46.048 203.601 45.959 C 202.465 45.910,201.399 45.794,201.232 45.700 C 200.831 45.475,200.179 46.485,200.172 47.343 C 200.169 47.669,200.057 48.082,199.922 48.260 C 199.787 48.438,199.675 48.811,199.672 49.090 C 199.669 49.368,199.517 49.890,199.333 50.250 C 199.150 50.610,199.000 51.174,199.000 51.503 C 199.000 51.833,198.890 52.249,198.755 52.426 C 198.621 52.604,198.507 52.975,198.503 53.250 C 198.484 54.421,197.796 54.657,194.083 54.766 C 192.525 54.812,190.650 54.954,189.917 55.082 C 187.552 55.492,185.542 55.566,185.074 55.259 L 184.667 54.992 184.667 39.080 L 184.667 23.167 185.458 22.670 C 185.894 22.397,186.372 22.172,186.521 22.170 C 186.670 22.168,186.886 22.054,187.000 21.917 C 187.114 21.779,187.307 21.667,187.428 21.667 C 187.685 21.667,188.979 20.998,189.607 20.541 C 189.995 20.258,190.027 20.154,189.922 19.529 L 189.804 18.833 180.319 18.833 L 170.833 18.833 170.833 20.145 M252.964 19.370 C 252.459 19.756,252.495 21.568,253.009 21.641 C 253.233 21.673,253.509 21.775,253.622 21.867 C 253.735 21.960,254.404 22.101,255.109 22.180 C 255.814 22.259,256.467 22.401,256.562 22.495 C 256.656 22.589,256.897 22.667,257.096 22.667 C 257.885 22.667,257.889 22.708,257.777 30.296 C 257.719 34.212,257.603 38.017,257.519 38.750 C 257.434 39.483,257.310 43.589,257.242 47.873 L 257.120 55.663 256.567 56.084 C 256.264 56.316,255.789 56.551,255.511 56.606 C 255.234 56.661,254.922 56.810,254.817 56.937 C 254.712 57.063,254.478 57.167,254.298 57.167 C 254.117 57.167,253.779 57.317,253.545 57.500 C 253.312 57.683,252.990 57.833,252.829 57.833 C 252.668 57.833,252.492 57.946,252.440 58.083 C 252.387 58.221,252.194 58.333,252.011 58.333 C 251.379 58.333,251.189 59.463,251.710 60.125 C 251.837 60.287,253.752 60.333,260.270 60.333 L 268.667 60.333 268.667 59.604 C 268.667 59.203,268.713 58.644,268.769 58.362 C 268.862 57.899,268.826 57.840,268.394 57.749 C 268.132 57.694,267.552 57.541,267.106 57.408 C 266.660 57.275,265.993 57.167,265.624 57.167 C 265.255 57.167,264.617 56.999,264.207 56.794 L 263.461 56.421 263.564 50.169 C 263.620 46.730,263.713 42.626,263.769 41.050 C 263.837 39.159,263.810 38.006,263.691 37.664 C 263.591 37.379,263.463 36.044,263.405 34.698 C 263.347 33.352,263.194 31.880,263.066 31.428 C 262.770 30.384,262.767 28.988,263.059 28.588 C 263.316 28.237,264.333 29.949,264.333 30.735 C 264.333 30.950,264.438 31.213,264.566 31.319 C 264.694 31.425,264.850 31.787,264.913 32.122 C 264.976 32.458,265.134 32.885,265.264 33.070 C 265.394 33.256,265.500 33.601,265.500 33.837 C 265.500 34.073,265.590 34.357,265.701 34.467 C 265.811 34.578,265.990 34.986,266.098 35.376 C 266.340 36.246,266.636 37.090,266.931 37.750 C 267.054 38.025,267.206 38.475,267.269 38.750 C 267.332 39.025,267.484 39.398,267.608 39.579 C 267.732 39.760,267.833 40.091,267.833 40.316 C 267.833 40.540,267.949 40.852,268.090 41.008 C 268.232 41.164,268.395 41.582,268.452 41.936 C 268.510 42.291,268.656 42.680,268.778 42.802 C 268.900 42.924,269.000 43.206,269.000 43.429 C 269.000 43.652,269.150 44.114,269.333 44.456 C 269.517 44.799,269.669 45.230,269.672 45.414 C 269.675 45.599,269.787 45.896,269.922 46.074 C 270.057 46.251,270.167 46.533,270.167 46.699 C 270.167 46.865,270.317 47.281,270.500 47.623 C 270.683 47.965,270.833 48.420,270.833 48.634 C 270.833 48.849,270.946 49.136,271.083 49.274 C 271.221 49.411,271.336 49.687,271.339 49.887 C 271.342 50.087,271.490 50.550,271.667 50.917 C 271.844 51.283,271.991 51.743,271.994 51.938 C 271.997 52.133,272.112 52.386,272.250 52.500 C 272.387 52.614,272.500 52.905,272.501 53.145 C 272.502 53.386,272.651 53.808,272.833 54.083 C 273.015 54.358,273.165 54.827,273.166 55.125 C 273.166 55.423,273.239 55.667,273.327 55.667 C 273.415 55.667,273.567 55.985,273.665 56.375 C 273.763 56.765,273.953 57.282,274.088 57.526 C 274.223 57.769,274.333 58.154,274.333 58.380 C 274.333 58.607,274.440 58.881,274.570 58.989 C 274.701 59.097,274.858 59.487,274.920 59.856 L 275.034 60.525 276.290 60.408 C 276.980 60.343,277.742 60.188,277.981 60.063 C 278.221 59.938,278.743 59.835,279.141 59.834 C 281.187 59.831,282.848 58.661,282.836 57.229 C 282.835 57.034,282.946 56.781,283.083 56.667 C 283.221 56.553,283.333 56.299,283.333 56.102 C 283.333 55.906,283.483 55.465,283.667 55.123 C 283.850 54.781,284.000 54.323,284.000 54.104 C 284.000 53.886,284.112 53.614,284.250 53.500 C 284.387 53.386,284.500 53.132,284.500 52.935 C 284.500 52.739,284.650 52.299,284.833 51.956 C 285.017 51.614,285.167 51.190,285.167 51.013 C 285.167 50.835,285.279 50.578,285.417 50.440 C 285.554 50.303,285.667 50.016,285.667 49.804 C 285.668 49.591,285.818 49.171,286.001 48.871 C 286.184 48.571,286.333 48.154,286.333 47.944 C 286.333 47.735,286.443 47.418,286.578 47.240 C 286.713 47.062,286.826 46.767,286.829 46.583 C 286.833 46.400,286.985 46.025,287.167 45.750 C 287.349 45.475,287.498 45.049,287.499 44.804 C 287.500 44.558,287.603 44.254,287.730 44.127 C 287.856 44.001,288.016 43.640,288.084 43.324 C 288.153 43.008,288.312 42.602,288.438 42.421 C 288.564 42.240,288.667 41.959,288.667 41.796 C 288.667 41.632,288.817 41.219,289.000 40.877 C 289.183 40.535,289.333 40.094,289.333 39.898 C 289.333 39.701,289.446 39.447,289.583 39.333 C 289.721 39.219,289.833 38.927,289.833 38.683 C 289.833 38.440,289.940 38.089,290.070 37.904 C 290.199 37.718,290.357 37.292,290.420 36.956 C 290.483 36.620,290.640 36.258,290.767 36.152 C 290.895 36.046,291.000 35.760,291.000 35.517 C 291.000 35.273,291.106 34.922,291.236 34.737 C 291.366 34.551,291.524 34.125,291.587 33.789 C 291.650 33.453,291.806 33.092,291.934 32.986 C 292.062 32.879,292.167 32.595,292.168 32.355 C 292.168 32.114,292.318 31.692,292.500 31.417 C 292.682 31.142,292.832 30.708,292.832 30.453 C 292.833 30.198,292.938 29.949,293.066 29.900 C 293.194 29.851,293.348 29.480,293.409 29.076 C 293.538 28.214,293.788 27.990,294.126 28.433 C 294.426 28.826,294.306 33.239,293.971 34.167 C 293.809 34.614,293.758 37.209,293.755 45.274 C 293.749 57.010,293.818 56.332,292.608 56.595 C 292.319 56.658,291.935 56.812,291.755 56.938 C 291.574 57.064,291.302 57.167,291.150 57.167 C 290.998 57.167,290.785 57.274,290.676 57.406 C 290.566 57.538,290.263 57.692,290.002 57.749 C 289.741 57.807,289.489 57.956,289.441 58.081 C 289.393 58.205,289.180 58.332,288.969 58.362 C 288.644 58.408,288.575 58.530,288.531 59.137 C 288.439 60.416,287.732 60.333,298.770 60.333 L 308.667 60.333 308.667 59.091 L 308.667 57.848 308.042 57.747 C 307.698 57.691,307.229 57.566,307.000 57.470 C 306.771 57.373,306.027 57.230,305.347 57.152 C 304.666 57.074,304.033 56.933,303.938 56.838 C 303.844 56.744,303.603 56.667,303.404 56.667 C 302.417 56.667,302.372 55.951,302.228 37.708 L 302.116 23.500 302.488 23.177 C 302.693 22.999,303.094 22.803,303.379 22.740 C 303.664 22.677,304.001 22.523,304.127 22.396 C 304.254 22.270,304.493 22.167,304.658 22.167 C 304.824 22.167,305.049 22.059,305.158 21.927 C 305.267 21.796,305.576 21.640,305.845 21.581 C 306.114 21.522,306.333 21.410,306.333 21.331 C 306.333 21.253,306.483 21.142,306.667 21.083 C 307.013 20.973,307.108 20.335,306.895 19.542 L 306.794 19.167 299.762 19.167 L 292.729 19.167 292.365 19.660 C 292.164 19.931,292.000 20.289,292.000 20.454 C 292.000 20.620,291.850 21.035,291.667 21.377 C 291.483 21.719,291.333 22.177,291.333 22.396 C 291.333 22.614,291.221 22.886,291.083 23.000 C 290.946 23.114,290.833 23.368,290.833 23.565 C 290.833 23.761,290.683 24.201,290.500 24.544 C 290.317 24.886,290.167 25.301,290.167 25.468 C 290.167 25.634,290.057 25.915,289.922 26.093 C 289.787 26.271,289.675 26.568,289.672 26.752 C 289.669 26.937,289.517 27.368,289.333 27.710 C 289.150 28.052,289.000 28.515,289.000 28.737 C 289.000 28.960,288.887 29.255,288.750 29.393 C 288.612 29.530,288.500 29.782,288.500 29.953 C 288.500 30.123,288.350 30.557,288.167 30.917 C 287.983 31.276,287.833 31.689,287.833 31.833 C 287.833 31.978,287.683 32.390,287.500 32.750 C 287.317 33.110,287.167 33.566,287.167 33.765 C 287.167 33.963,287.054 34.219,286.917 34.333 C 286.779 34.447,286.666 34.700,286.666 34.895 C 286.665 35.090,286.555 35.459,286.422 35.715 C 286.288 35.971,286.131 36.437,286.072 36.751 C 286.013 37.065,285.860 37.408,285.733 37.514 C 285.605 37.621,285.500 37.886,285.500 38.104 C 285.500 38.323,285.350 38.781,285.167 39.123 C 284.983 39.465,284.833 39.906,284.833 40.102 C 284.833 40.299,284.721 40.553,284.583 40.667 C 284.446 40.781,284.333 41.060,284.333 41.286 C 284.333 41.513,284.223 41.898,284.088 42.141 C 283.953 42.384,283.763 42.902,283.665 43.292 C 283.567 43.681,283.415 44.000,283.327 44.000 C 283.239 44.000,283.167 44.188,283.167 44.417 C 283.167 44.647,283.017 45.114,282.833 45.456 C 282.650 45.799,282.500 46.243,282.500 46.444 C 282.500 46.645,282.397 46.913,282.270 47.039 C 282.144 47.166,281.988 47.579,281.924 47.958 C 281.860 48.337,281.701 48.736,281.570 48.844 C 281.440 48.952,281.333 49.224,281.333 49.448 C 281.333 50.593,280.142 50.669,279.912 49.539 C 279.862 49.288,279.711 48.871,279.577 48.611 C 279.443 48.352,279.331 48.014,279.328 47.861 C 279.325 47.709,279.177 47.283,279.000 46.917 C 278.823 46.550,278.673 46.100,278.667 45.917 C 278.661 45.733,278.551 45.445,278.423 45.276 C 278.295 45.107,278.142 44.680,278.082 44.328 C 278.023 43.975,277.867 43.597,277.737 43.489 C 277.607 43.381,277.500 43.048,277.500 42.750 C 277.500 42.452,277.389 42.116,277.254 42.004 C 277.119 41.892,276.959 41.526,276.897 41.192 C 276.836 40.857,276.684 40.435,276.560 40.255 C 276.435 40.074,276.333 39.771,276.333 39.581 C 276.333 39.392,276.183 38.943,276.000 38.583 C 275.817 38.224,275.664 37.777,275.661 37.590 C 275.658 37.403,275.546 37.104,275.411 36.926 C 275.277 36.749,275.167 36.446,275.167 36.255 C 275.167 36.064,275.060 35.756,274.930 35.570 C 274.801 35.385,274.639 34.939,274.572 34.579 C 274.504 34.219,274.348 33.824,274.224 33.701 C 274.101 33.577,274.000 33.294,274.000 33.071 C 274.000 32.848,273.850 32.386,273.667 32.044 C 273.483 31.701,273.333 31.261,273.333 31.065 C 273.333 30.868,273.221 30.614,273.083 30.500 C 272.946 30.386,272.833 30.114,272.833 29.896 C 272.833 29.677,272.683 29.219,272.500 28.877 C 272.317 28.535,272.167 28.057,272.167 27.815 C 272.167 27.572,272.054 27.281,271.917 27.167 C 271.779 27.053,271.667 26.799,271.667 26.602 C 271.667 26.406,271.517 25.965,271.333 25.623 C 271.150 25.281,271.000 24.848,271.000 24.661 C 271.000 24.475,270.895 24.155,270.766 23.952 C 270.638 23.749,270.478 23.321,270.412 23.000 C 270.346 22.679,270.220 22.371,270.133 22.316 C 270.046 22.260,269.933 21.905,269.882 21.526 C 269.832 21.148,269.687 20.753,269.562 20.649 C 269.436 20.544,269.332 20.300,269.331 20.105 C 269.324 19.221,269.621 19.254,261.128 19.204 C 254.928 19.167,253.184 19.203,252.964 19.370 M228.661 22.676 C 229.432 22.772,230.255 22.949,230.490 23.067 C 230.725 23.185,231.281 23.463,231.726 23.683 C 232.172 23.903,232.574 24.177,232.619 24.292 C 232.665 24.406,232.784 24.500,232.883 24.500 C 233.546 24.500,236.667 28.680,236.667 29.568 C 236.667 29.692,236.779 29.886,236.917 30.000 C 237.054 30.114,237.167 30.331,237.167 30.481 C 237.167 30.632,237.317 31.035,237.500 31.377 C 237.683 31.719,237.833 32.228,237.833 32.508 C 237.833 32.788,237.950 33.242,238.092 33.518 C 238.235 33.793,238.420 34.708,238.504 35.551 C 238.589 36.394,238.731 37.770,238.822 38.609 C 238.931 39.625,238.930 40.682,238.817 41.775 C 238.723 42.678,238.582 44.115,238.503 44.969 C 238.419 45.874,238.249 46.687,238.096 46.921 C 237.951 47.141,237.833 47.587,237.833 47.911 C 237.833 48.236,237.683 48.781,237.500 49.123 C 237.317 49.465,237.167 49.906,237.167 50.102 C 237.167 50.299,237.054 50.553,236.917 50.667 C 236.779 50.781,236.662 50.996,236.657 51.145 C 236.652 51.295,236.430 51.792,236.164 52.250 C 235.899 52.708,235.604 53.255,235.509 53.465 C 235.163 54.231,233.264 56.000,232.788 56.000 C 232.542 56.000,232.047 56.117,231.688 56.261 C 230.492 56.739,226.973 56.445,225.417 55.737 C 225.142 55.611,224.710 55.434,224.458 55.342 C 224.206 55.250,224.000 55.098,224.000 55.004 C 224.000 54.910,223.888 54.833,223.751 54.833 C 223.515 54.833,221.000 52.504,221.000 52.286 C 221.000 52.229,220.778 51.854,220.506 51.451 C 220.234 51.048,219.934 50.538,219.840 50.318 C 219.745 50.097,219.604 49.804,219.527 49.667 C 219.095 48.901,218.666 47.878,218.666 47.617 C 218.666 47.452,218.563 47.114,218.436 46.867 C 218.309 46.619,218.151 46.011,218.084 45.516 C 218.017 45.021,217.858 44.367,217.731 44.063 C 217.396 43.261,217.397 33.784,217.733 33.141 C 217.860 32.898,218.019 32.223,218.086 31.641 C 218.153 31.059,218.311 30.435,218.437 30.255 C 218.563 30.074,218.667 29.689,218.667 29.400 C 218.667 29.111,218.771 28.788,218.898 28.682 C 219.025 28.576,219.214 28.155,219.317 27.745 C 219.420 27.335,219.579 27.000,219.669 27.000 C 219.759 27.000,219.833 26.860,219.833 26.689 C 219.833 26.518,219.983 26.188,220.167 25.955 C 220.350 25.721,220.500 25.457,220.500 25.367 C 220.500 25.276,220.612 25.159,220.750 25.106 C 220.887 25.054,221.000 24.921,221.000 24.813 C 221.000 24.441,222.291 23.333,222.723 23.333 C 222.952 23.333,223.169 23.243,223.206 23.132 C 223.245 23.016,223.904 22.847,224.762 22.734 C 226.732 22.474,227.017 22.470,228.661 22.676 M109.329 23.079 C 109.483 23.219,109.688 23.333,109.784 23.333 C 110.023 23.333,111.368 24.640,111.757 25.251 C 111.932 25.526,112.171 25.810,112.288 25.883 C 112.404 25.957,112.500 26.176,112.500 26.370 C 112.500 26.565,112.631 26.869,112.792 27.046 C 113.277 27.581,113.320 31.544,112.847 32.184 C 112.656 32.442,112.500 32.730,112.500 32.825 C 112.500 33.271,110.668 35.114,109.907 35.431 C 109.604 35.558,109.309 35.738,109.252 35.831 C 109.194 35.924,108.983 36.003,108.782 36.006 C 108.581 36.009,108.117 36.156,107.750 36.333 C 106.835 36.775,101.190 36.833,100.762 36.405 C 100.534 36.177,100.500 35.390,100.500 30.305 C 100.500 23.031,100.392 23.341,102.925 23.336 C 103.571 23.334,104.182 23.251,104.282 23.151 C 104.766 22.667,108.810 22.610,109.329 23.079 M108.548 40.711 C 108.790 40.870,109.211 41.000,109.484 41.000 C 109.757 41.000,110.027 41.076,110.085 41.169 C 110.142 41.262,110.447 41.446,110.761 41.577 C 111.076 41.709,111.333 41.895,111.333 41.991 C 111.333 42.088,111.405 42.167,111.494 42.167 C 111.718 42.167,113.167 43.597,113.167 43.818 C 113.167 43.918,113.241 44.000,113.331 44.000 C 113.422 44.000,113.601 44.253,113.731 44.563 C 113.860 44.873,114.049 45.177,114.150 45.239 C 114.251 45.302,114.333 45.564,114.333 45.823 C 114.333 46.081,114.446 46.386,114.583 46.500 C 114.940 46.796,114.944 50.456,114.589 50.926 C 114.454 51.104,114.342 51.408,114.339 51.600 C 114.329 52.243,112.115 54.833,111.575 54.833 C 111.517 54.833,111.279 54.983,111.045 55.167 C 110.812 55.350,110.453 55.500,110.247 55.500 C 110.040 55.500,109.657 55.612,109.394 55.749 C 108.831 56.043,105.747 56.081,104.417 55.811 C 103.958 55.718,103.058 55.585,102.417 55.516 C 100.359 55.295,100.504 55.869,100.504 47.917 C 100.504 41.264,100.540 40.785,101.061 40.518 C 101.690 40.196,108.010 40.359,108.548 40.711 " stroke="none" fill="#c8e7ed" fill-rule="evenodd"></path><path id="path1" d="M11.250 0.781 C 9.907 0.954,6.989 1.836,6.667 2.166 C 6.621 2.213,6.161 2.527,5.645 2.864 C 4.203 3.806,1.843 6.644,1.835 7.445 C 1.834 7.552,1.729 7.852,1.601 8.111 C 0.807 9.720,0.830 8.601,0.832 44.354 C 0.833 73.648,0.864 77.879,1.083 78.500 C 1.221 78.890,1.333 79.354,1.333 79.531 C 1.333 79.709,1.610 80.431,1.947 81.135 C 2.702 82.711,3.562 83.779,5.327 85.333 C 5.853 85.796,7.231 86.505,8.750 87.093 C 9.572 87.412,12.098 87.417,199.570 87.458 L 389.557 87.500 390.792 87.074 C 394.550 85.777,397.266 82.996,398.351 79.333 C 398.707 78.132,398.771 10.407,398.417 9.560 C 398.280 9.229,398.162 8.800,398.156 8.605 C 398.147 8.294,397.953 7.871,396.968 6.014 C 396.267 4.692,394.062 2.705,392.500 1.989 C 392.271 1.884,391.933 1.718,391.750 1.620 C 391.388 1.428,389.909 1.060,388.583 0.834 C 387.792 0.698,12.299 0.646,11.250 0.781 M231.907 17.354 C 232.920 17.548,233.986 17.811,234.275 17.937 C 234.564 18.063,234.887 18.167,234.993 18.167 C 235.172 18.167,235.476 18.293,237.542 19.224 C 237.977 19.421,238.333 19.638,238.333 19.707 C 238.333 19.777,238.428 19.833,238.543 19.833 C 239.948 19.833,245.353 25.718,246.503 28.500 C 246.598 28.729,246.779 29.142,246.906 29.417 C 248.708 33.331,249.546 40.858,248.609 44.719 C 248.457 45.343,248.333 46.056,248.332 46.302 C 248.332 46.548,248.232 46.941,248.110 47.174 C 247.988 47.407,247.838 47.857,247.777 48.174 C 247.657 48.795,247.552 49.046,246.564 51.083 C 245.277 53.735,241.385 58.333,240.427 58.333 C 240.368 58.333,240.229 58.409,240.118 58.502 C 238.505 59.856,235.757 60.949,232.167 61.664 C 231.194 61.858,225.473 61.858,224.500 61.664 C 221.744 61.115,219.663 60.459,218.667 59.825 C 218.529 59.737,218.236 59.588,218.016 59.494 C 217.795 59.399,217.308 59.112,216.932 58.856 C 216.557 58.599,215.908 58.156,215.490 57.871 C 214.439 57.154,212.276 54.953,211.440 53.750 C 210.515 52.418,209.333 50.406,209.333 50.163 C 209.333 50.056,209.222 49.769,209.086 49.526 C 208.734 48.898,208.329 47.710,208.167 46.833 C 208.091 46.421,207.946 45.870,207.845 45.608 C 207.103 43.684,207.158 36.100,207.933 33.333 C 208.557 31.110,208.738 30.539,209.045 29.833 C 209.499 28.790,210.692 26.434,210.817 26.333 C 210.873 26.287,211.131 25.924,211.389 25.526 C 212.959 23.105,216.150 20.319,218.750 19.099 C 219.300 18.840,219.890 18.556,220.062 18.467 C 222.559 17.170,228.191 16.641,231.907 17.354 M109.750 17.936 C 112.649 18.274,114.902 18.861,116.498 19.696 C 116.817 19.863,117.133 20.000,117.201 20.000 C 117.474 20.000,119.465 21.471,120.247 22.251 C 123.854 25.849,123.936 31.268,120.445 35.248 C 119.393 36.447,117.282 37.813,116.458 37.828 C 116.120 37.834,116.104 37.904,116.339 38.344 C 116.434 38.522,116.661 38.667,116.844 38.667 C 118.532 38.667,122.879 41.875,123.669 43.704 C 123.759 43.913,123.904 44.196,123.992 44.333 C 125.605 46.868,125.164 52.741,123.204 54.812 C 123.046 54.979,122.653 55.409,122.332 55.766 C 121.720 56.446,120.507 57.453,119.924 57.766 C 119.736 57.866,119.309 58.104,118.973 58.296 C 118.384 58.633,116.959 59.209,115.583 59.668 C 114.820 59.923,112.985 60.273,111.169 60.510 C 110.427 60.607,105.108 60.655,98.038 60.628 C 84.682 60.578,85.840 60.711,85.836 59.228 C 85.833 58.169,86.040 58.009,89.250 56.588 C 89.800 56.345,90.438 56.043,90.667 55.917 L 91.083 55.688 91.129 39.386 C 91.181 20.738,91.279 22.403,90.127 22.284 C 86.687 21.928,86.500 21.819,86.500 20.146 C 86.500 18.130,86.213 18.242,91.767 18.086 C 94.324 18.014,97.504 17.903,98.833 17.839 C 103.400 17.619,107.324 17.654,109.750 17.936 M167.891 18.474 C 168.136 19.023,167.756 27.415,167.426 28.750 C 167.290 29.300,167.176 30.015,167.173 30.338 C 167.160 31.574,166.955 31.667,164.232 31.667 L 161.816 31.667 161.582 31.107 C 161.454 30.799,161.267 29.542,161.167 28.315 C 161.067 27.088,160.914 25.866,160.826 25.600 C 160.738 25.334,160.667 24.837,160.667 24.496 C 160.667 23.643,160.491 23.554,158.583 23.448 C 157.667 23.397,156.182 23.268,155.284 23.162 C 154.386 23.055,153.467 23.014,153.242 23.070 L 152.833 23.173 152.833 39.667 L 152.833 56.160 153.208 56.244 C 153.660 56.345,155.397 56.614,157.351 56.884 C 159.269 57.150,159.333 57.217,159.333 58.931 C 159.333 60.827,160.386 60.667,147.917 60.667 C 136.089 60.667,136.595 60.714,136.426 59.586 C 136.223 58.236,136.625 57.955,141.583 55.984 C 142.133 55.765,142.638 55.511,142.706 55.418 C 142.993 55.023,142.851 23.163,142.562 23.052 C 142.413 22.995,141.419 23.042,140.354 23.158 C 139.288 23.273,137.629 23.428,136.667 23.501 C 135.704 23.574,134.906 23.642,134.892 23.650 C 134.879 23.659,134.817 24.285,134.754 25.042 C 134.691 25.798,134.569 26.679,134.484 27.000 C 134.399 27.321,134.266 28.387,134.190 29.369 C 134.004 31.765,134.130 31.667,131.233 31.667 C 128.369 31.667,128.406 31.694,128.157 29.391 C 128.069 28.580,127.924 27.617,127.833 27.250 C 127.582 26.236,127.407 18.563,127.628 18.297 C 127.775 18.120,131.540 18.079,147.762 18.081 L 167.716 18.083 167.891 18.474 M189.991 18.491 C 190.170 18.670,190.400 19.128,190.503 19.510 C 190.791 20.580,190.579 20.740,186.125 22.826 L 185.333 23.196 185.333 39.005 C 185.333 48.812,185.393 54.851,185.492 54.912 C 185.579 54.965,186.460 54.934,187.450 54.842 C 188.440 54.750,190.412 54.592,191.833 54.492 C 197.974 54.056,197.885 54.085,198.320 52.333 C 198.422 51.921,198.658 51.058,198.844 50.417 C 199.030 49.775,199.247 48.950,199.326 48.583 C 199.406 48.217,199.589 47.579,199.733 47.167 C 199.877 46.754,200.036 46.208,200.086 45.952 C 200.242 45.147,202.275 45.079,205.637 45.767 L 206.024 45.846 205.959 51.381 C 205.894 56.962,205.588 60.199,205.094 60.539 C 204.805 60.739,170.697 60.695,170.322 60.494 C 169.764 60.195,169.860 58.455,170.458 58.033 C 171.015 57.641,172.708 56.833,172.974 56.833 C 173.080 56.833,173.167 56.758,173.167 56.667 C 173.167 56.575,173.247 56.500,173.344 56.500 C 173.442 56.500,173.892 56.341,174.344 56.146 L 175.167 55.792 175.167 39.156 L 175.167 22.520 174.458 22.433 C 172.350 22.173,170.813 21.854,170.526 21.618 C 170.225 21.370,170.321 18.833,170.645 18.442 C 171.030 17.979,189.525 18.025,189.991 18.491 M269.508 19.292 C 269.599 19.544,269.737 19.900,269.814 20.083 C 270.242 21.095,270.667 22.284,270.667 22.470 C 270.667 22.587,270.791 22.923,270.943 23.217 C 271.095 23.510,271.278 23.975,271.348 24.250 C 271.517 24.905,271.953 26.116,272.257 26.775 C 272.391 27.064,272.500 27.453,272.500 27.640 C 272.500 27.827,272.573 28.025,272.662 28.081 C 272.751 28.136,272.904 28.496,273.002 28.882 C 273.100 29.268,273.250 29.733,273.336 29.917 C 273.516 30.303,273.948 31.511,274.182 32.283 C 274.271 32.576,274.454 33.026,274.588 33.283 C 274.722 33.540,274.832 33.904,274.832 34.092 C 274.833 34.280,274.902 34.505,274.987 34.592 C 275.134 34.744,275.689 36.206,275.997 37.250 C 276.220 38.010,276.653 39.189,276.924 39.775 C 277.058 40.064,277.167 40.441,277.167 40.613 C 277.167 40.785,277.270 41.074,277.395 41.255 C 277.521 41.435,277.681 41.846,277.750 42.167 C 277.819 42.487,277.979 42.898,278.105 43.079 C 278.230 43.260,278.334 43.522,278.334 43.662 C 278.335 43.802,278.440 44.118,278.569 44.364 C 278.697 44.610,278.854 45.046,278.917 45.333 C 278.980 45.621,279.136 46.057,279.265 46.303 C 279.393 46.549,279.499 46.862,279.500 47.000 C 279.501 47.137,279.603 47.442,279.725 47.678 C 279.848 47.913,280.004 48.325,280.071 48.594 C 280.338 49.658,280.876 49.800,281.134 48.875 C 281.364 48.056,281.788 46.881,282.091 46.225 C 282.224 45.936,282.333 45.594,282.333 45.465 C 282.333 45.336,282.443 45.085,282.578 44.907 C 282.713 44.729,282.826 44.433,282.829 44.250 C 282.833 44.067,282.956 43.692,283.104 43.417 C 283.252 43.142,283.434 42.692,283.509 42.417 C 283.679 41.787,284.126 40.521,284.333 40.083 C 284.523 39.682,284.955 38.470,285.194 37.667 C 285.290 37.346,285.427 37.008,285.500 36.917 C 285.573 36.825,285.709 36.487,285.804 36.167 C 285.899 35.846,286.173 35.058,286.413 34.417 C 286.653 33.775,286.920 33.025,287.006 32.750 C 287.092 32.475,287.228 32.100,287.309 31.917 C 287.690 31.051,288.167 29.721,288.167 29.522 C 288.167 29.401,288.278 29.102,288.414 28.859 C 288.674 28.395,289.095 27.266,289.325 26.417 C 289.399 26.142,289.581 25.692,289.729 25.417 C 289.877 25.142,290.001 24.767,290.004 24.583 C 290.008 24.400,290.121 24.104,290.255 23.926 C 290.390 23.749,290.500 23.497,290.500 23.368 C 290.500 23.239,290.601 22.897,290.725 22.609 C 291.057 21.834,291.623 20.311,291.756 19.833 C 292.049 18.785,291.668 18.833,299.672 18.833 C 307.765 18.833,307.176 18.742,307.528 20.055 C 307.812 21.116,307.389 21.440,303.292 23.303 L 302.500 23.662 302.499 28.873 C 302.499 31.739,302.578 36.333,302.676 39.083 C 302.774 41.833,302.906 46.817,302.969 50.158 L 303.083 56.233 304.167 56.459 C 304.762 56.584,305.867 56.789,306.622 56.915 C 308.842 57.288,308.908 57.343,308.966 58.892 C 308.996 59.712,308.942 60.286,308.820 60.432 C 308.555 60.752,288.686 60.786,288.367 60.467 C 287.611 59.711,288.532 57.500,289.602 57.500 C 289.707 57.500,289.879 57.395,289.986 57.267 C 290.092 57.140,290.438 56.986,290.756 56.927 C 291.074 56.867,291.333 56.747,291.333 56.659 C 291.333 56.572,291.416 56.500,291.518 56.500 C 291.822 56.500,293.323 55.768,293.392 55.586 C 293.427 55.493,293.395 51.631,293.321 47.003 C 293.241 42.025,293.248 38.112,293.338 37.420 C 293.421 36.776,293.494 35.612,293.500 34.833 C 293.506 34.054,293.618 32.629,293.750 31.667 C 294.039 29.555,294.049 29.283,293.833 29.417 C 293.742 29.473,293.667 29.699,293.667 29.918 C 293.667 30.137,293.570 30.377,293.451 30.450 C 293.333 30.523,293.151 30.846,293.047 31.167 C 292.728 32.146,292.333 33.232,292.167 33.583 C 291.980 33.977,291.551 35.179,291.304 35.999 C 291.208 36.319,291.025 36.730,290.898 36.911 C 290.771 37.092,290.667 37.354,290.667 37.492 C 290.667 37.726,290.250 38.883,289.725 40.109 C 289.601 40.397,289.500 40.697,289.499 40.775 C 289.498 40.853,289.393 41.118,289.265 41.364 C 289.136 41.610,288.980 42.046,288.917 42.333 C 288.854 42.621,288.697 43.057,288.569 43.303 C 288.440 43.549,288.335 43.814,288.334 43.891 C 288.334 43.969,288.232 44.269,288.108 44.558 C 287.659 45.606,287.167 46.927,287.166 47.087 C 287.165 47.176,287.055 47.460,286.921 47.717 C 286.787 47.974,286.606 48.424,286.519 48.717 C 286.431 49.010,286.199 49.663,286.002 50.167 C 285.804 50.671,285.509 51.458,285.345 51.917 C 284.601 53.999,283.987 55.607,283.834 55.873 C 283.742 56.032,283.666 56.257,283.666 56.373 C 283.665 56.489,283.567 56.771,283.448 57.000 C 283.329 57.229,283.132 57.772,283.011 58.207 C 282.798 58.971,282.150 59.824,281.769 59.842 C 281.667 59.847,281.021 59.957,280.333 60.087 C 279.646 60.217,278.596 60.409,278.000 60.514 C 277.404 60.619,276.602 60.803,276.217 60.923 C 275.368 61.187,274.880 61.083,274.737 60.607 C 274.678 60.411,274.529 60.025,274.406 59.750 C 274.108 59.085,273.675 57.869,273.515 57.250 C 273.444 56.975,273.262 56.510,273.110 56.217 C 272.958 55.923,272.831 55.548,272.828 55.383 C 272.825 55.218,272.713 54.938,272.578 54.760 C 272.443 54.582,272.333 54.282,272.332 54.093 C 272.332 53.904,272.222 53.540,272.088 53.283 C 271.954 53.026,271.771 52.576,271.682 52.283 C 271.443 51.494,271.013 50.297,270.833 49.917 C 270.614 49.454,270.170 48.184,270.015 47.579 C 269.944 47.302,269.787 46.892,269.667 46.667 C 269.546 46.442,269.390 46.031,269.319 45.754 C 269.156 45.119,268.709 43.854,268.493 43.417 C 268.402 43.233,268.258 42.858,268.173 42.583 C 268.087 42.308,267.820 41.558,267.580 40.917 C 267.339 40.275,267.065 39.487,266.971 39.167 C 266.876 38.846,266.740 38.508,266.669 38.417 C 266.597 38.325,266.484 37.987,266.417 37.667 C 266.350 37.346,266.236 37.008,266.165 36.917 C 266.093 36.825,265.956 36.487,265.860 36.167 C 265.764 35.846,265.488 35.058,265.247 34.417 C 265.006 33.775,264.737 33.010,264.649 32.717 C 264.561 32.424,264.379 31.974,264.246 31.717 C 264.112 31.460,264.002 31.123,264.001 30.968 C 264.000 30.635,263.672 30.380,263.654 30.698 C 263.597 31.726,263.722 33.757,263.945 35.417 C 264.177 37.142,264.200 38.702,264.112 46.775 C 264.032 54.053,264.054 56.169,264.213 56.296 C 264.430 56.468,264.782 56.548,266.957 56.914 C 269.131 57.281,269.333 57.461,269.333 59.030 C 269.333 60.798,270.069 60.667,260.136 60.664 C 250.586 60.661,251.253 60.749,251.097 59.480 C 250.942 58.224,251.034 58.153,255.523 56.104 L 256.462 55.675 256.548 54.462 C 256.595 53.796,256.716 50.475,256.817 47.083 C 256.917 43.692,257.090 37.992,257.201 34.417 C 257.312 30.842,257.406 26.829,257.410 25.500 L 257.417 23.083 256.583 22.976 C 256.125 22.917,255.551 22.791,255.307 22.695 C 255.064 22.599,254.403 22.468,253.838 22.404 C 252.445 22.246,252.333 22.100,252.333 20.433 C 252.333 19.675,252.383 19.006,252.444 18.944 C 252.506 18.883,256.332 18.833,260.949 18.833 L 269.342 18.833 269.508 19.292 M106.667 23.184 C 106.346 23.266,105.138 23.444,103.984 23.579 C 101.538 23.865,101.359 23.918,101.244 24.393 C 101.196 24.590,101.178 27.337,101.203 30.500 L 101.250 36.250 103.833 36.238 C 105.645 36.230,106.701 36.148,107.368 35.963 C 108.520 35.644,110.000 34.992,110.000 34.804 C 110.000 34.728,110.103 34.667,110.229 34.667 C 110.355 34.667,110.772 34.310,111.156 33.875 C 112.052 32.859,112.054 32.856,112.325 32.167 C 112.450 31.846,112.616 31.512,112.693 31.425 C 112.985 31.095,112.848 28.455,112.490 27.513 C 111.341 24.492,108.834 22.627,106.667 23.184 M223.681 23.412 C 222.482 23.772,221.987 24.147,220.994 25.446 C 220.671 25.868,219.501 28.265,219.500 28.505 C 219.500 28.645,219.403 28.907,219.285 29.088 C 219.034 29.471,218.454 31.904,218.074 34.167 C 217.557 37.247,217.920 43.831,218.740 46.245 C 218.883 46.667,219.000 47.123,219.000 47.258 C 219.000 47.394,219.070 47.635,219.155 47.794 C 219.297 48.061,219.721 48.985,220.165 50.000 C 220.362 50.449,220.519 50.717,221.190 51.750 C 221.692 52.522,223.677 54.439,224.216 54.673 C 224.418 54.761,224.696 54.901,224.833 54.985 C 226.221 55.834,229.551 56.197,232.079 55.774 C 234.083 55.439,236.944 50.921,237.583 47.083 C 237.644 46.717,237.813 46.042,237.959 45.583 C 238.374 44.276,238.355 36.391,237.932 34.667 C 235.651 25.357,230.570 21.344,223.681 23.412 M101.272 41.208 C 101.060 41.997,101.156 54.589,101.375 54.867 C 101.532 55.066,102.032 55.155,103.417 55.230 C 104.425 55.285,105.796 55.379,106.463 55.438 C 110.459 55.792,113.165 54.065,114.224 50.485 C 114.653 49.038,114.377 46.293,113.722 45.475 C 113.622 45.351,113.486 45.073,113.420 44.856 C 113.226 44.224,111.169 42.286,110.167 41.791 C 108.140 40.790,101.500 40.355,101.272 41.208 " stroke="none" fill="#1c3c6c" fill-rule="evenodd"></path><path id="path2" d="M9.917 0.623 C 9.642 0.663,9.342 0.756,9.250 0.829 C 9.158 0.902,8.821 1.014,8.500 1.079 C 7.902 1.199,6.482 1.806,6.333 2.005 C 6.287 2.067,6.067 2.213,5.844 2.331 C 4.487 3.046,2.608 5.152,1.751 6.917 C 0.476 9.545,0.599 5.804,0.543 43.667 C 0.512 64.901,0.553 77.833,0.653 78.250 C 1.088 80.068,1.222 80.466,1.770 81.591 C 2.983 84.079,5.606 86.319,8.541 87.375 L 9.583 87.750 199.917 87.750 C 377.310 87.750,390.287 87.731,390.790 87.472 C 391.087 87.319,391.551 87.145,391.820 87.086 C 392.090 87.027,392.400 86.871,392.509 86.739 C 392.618 86.608,392.816 86.500,392.950 86.500 C 393.187 86.500,394.912 85.254,395.597 84.588 C 396.738 83.479,397.879 81.617,398.540 79.790 L 398.917 78.750 398.917 44.167 L 398.917 9.583 398.540 8.543 C 397.176 4.770,394.709 2.349,390.750 0.895 C 389.965 0.606,11.870 0.337,9.917 0.623 M388.583 0.834 C 389.909 1.060,391.388 1.428,391.750 1.620 C 391.933 1.718,392.271 1.884,392.500 1.989 C 394.062 2.705,396.267 4.692,396.968 6.014 C 397.953 7.871,398.147 8.294,398.156 8.605 C 398.162 8.800,398.280 9.229,398.417 9.560 C 398.771 10.407,398.707 78.132,398.351 79.333 C 397.266 82.996,394.550 85.777,390.792 87.074 L 389.557 87.500 199.570 87.458 C 12.098 87.417,9.572 87.412,8.750 87.093 C 7.231 86.505,5.853 85.796,5.327 85.333 C 3.562 83.779,2.702 82.711,1.947 81.135 C 1.610 80.431,1.333 79.709,1.333 79.531 C 1.333 79.354,1.221 78.890,1.083 78.500 C 0.864 77.879,0.833 73.648,0.832 44.354 C 0.830 8.601,0.807 9.720,1.601 8.111 C 1.729 7.852,1.834 7.552,1.835 7.445 C 1.843 6.644,4.203 3.806,5.645 2.864 C 6.161 2.527,6.621 2.213,6.667 2.166 C 6.989 1.836,9.907 0.954,11.250 0.781 C 12.299 0.646,387.792 0.698,388.583 0.834 M223.667 17.422 C 221.870 17.817,220.612 18.182,220.062 18.467 C 219.890 18.556,219.300 18.840,218.750 19.099 C 216.150 20.319,212.959 23.105,211.389 25.526 C 211.131 25.924,210.873 26.287,210.817 26.333 C 210.692 26.434,209.499 28.790,209.045 29.833 C 208.738 30.539,208.557 31.110,207.933 33.333 C 207.158 36.100,207.103 43.684,207.845 45.608 C 207.946 45.870,208.091 46.421,208.167 46.833 C 208.329 47.710,208.734 48.898,209.086 49.526 C 209.222 49.769,209.333 50.056,209.333 50.163 C 209.333 50.406,210.515 52.418,211.440 53.750 C 212.276 54.953,214.439 57.154,215.490 57.871 C 215.908 58.156,216.557 58.599,216.932 58.856 C 217.308 59.112,217.795 59.399,218.016 59.494 C 218.236 59.588,218.529 59.737,218.667 59.825 C 219.663 60.459,221.744 61.115,224.500 61.664 C 225.473 61.858,231.194 61.858,232.167 61.664 C 235.757 60.949,238.505 59.856,240.118 58.502 C 240.229 58.409,240.368 58.333,240.427 58.333 C 241.385 58.333,245.277 53.735,246.564 51.083 C 247.552 49.046,247.657 48.795,247.777 48.174 C 247.838 47.857,247.988 47.407,248.110 47.174 C 248.232 46.941,248.332 46.548,248.332 46.302 C 248.333 46.056,248.457 45.343,248.609 44.719 C 249.546 40.858,248.708 33.331,246.906 29.417 C 246.779 29.142,246.598 28.729,246.503 28.500 C 245.353 25.718,239.948 19.833,238.543 19.833 C 238.428 19.833,238.333 19.777,238.333 19.707 C 238.333 19.638,237.977 19.421,237.542 19.224 C 235.476 18.293,235.172 18.167,234.993 18.167 C 234.887 18.167,234.564 18.063,234.275 17.937 C 232.102 16.987,226.818 16.730,223.667 17.422 M230.583 17.675 C 231.683 17.781,232.846 17.969,233.167 18.092 C 233.487 18.215,234.069 18.364,234.458 18.423 C 234.848 18.481,235.167 18.596,235.167 18.678 C 235.167 18.760,235.373 18.874,235.625 18.932 C 236.246 19.075,237.790 19.794,237.917 20.000 C 237.973 20.092,238.165 20.167,238.343 20.167 C 238.521 20.167,238.667 20.243,238.667 20.337 C 238.667 20.431,238.873 20.598,239.125 20.708 C 239.377 20.819,239.643 21.005,239.717 21.121 C 239.790 21.238,239.921 21.333,240.008 21.333 C 240.095 21.333,240.305 21.465,240.475 21.625 C 243.113 24.124,244.000 25.054,244.000 25.319 C 244.000 25.419,244.079 25.500,244.175 25.500 C 244.272 25.500,244.429 25.725,244.525 26.000 C 244.621 26.275,244.766 26.500,244.847 26.500 C 244.929 26.500,245.105 26.744,245.238 27.042 C 245.372 27.340,245.629 27.846,245.810 28.167 C 246.242 28.933,246.752 30.097,246.996 30.873 C 247.103 31.215,247.261 31.538,247.345 31.591 C 247.430 31.643,247.500 31.963,247.501 32.302 C 247.502 32.640,247.616 33.134,247.754 33.400 C 247.893 33.666,248.078 34.604,248.166 35.484 C 248.253 36.363,248.397 37.458,248.486 37.917 C 248.696 39.005,248.696 41.219,248.486 42.167 C 248.394 42.579,248.247 43.654,248.160 44.555 C 248.068 45.498,247.894 46.345,247.750 46.551 C 247.612 46.747,247.500 47.186,247.500 47.527 C 247.500 47.868,247.430 48.190,247.345 48.242 C 247.261 48.295,247.104 48.618,246.999 48.961 C 246.720 49.864,245.674 51.958,245.044 52.873 C 244.745 53.308,244.500 53.700,244.500 53.745 C 244.500 53.790,244.256 54.083,243.958 54.395 C 243.660 54.708,243.147 55.253,242.818 55.607 C 241.574 56.946,239.821 58.386,239.107 58.658 C 238.865 58.750,238.667 58.902,238.667 58.996 C 238.667 59.090,238.535 59.167,238.375 59.168 C 238.215 59.168,237.858 59.318,237.583 59.500 C 237.308 59.682,236.961 59.832,236.812 59.832 C 236.663 59.833,236.455 59.936,236.351 60.063 C 236.246 60.189,235.847 60.342,235.463 60.403 C 235.080 60.464,234.672 60.593,234.556 60.689 C 234.440 60.785,233.769 60.936,233.064 61.023 C 232.359 61.111,231.649 61.254,231.485 61.341 C 230.993 61.604,225.694 61.535,224.917 61.255 C 224.550 61.123,223.912 61.011,223.500 61.006 C 223.088 61.002,222.534 60.885,222.270 60.747 C 222.005 60.610,221.501 60.451,221.148 60.394 C 220.795 60.338,220.421 60.189,220.316 60.063 C 220.211 59.936,219.959 59.833,219.755 59.833 C 219.551 59.833,219.211 59.683,219.000 59.500 C 218.789 59.317,218.448 59.167,218.242 59.167 C 218.037 59.167,217.826 59.054,217.773 58.917 C 217.720 58.779,217.574 58.667,217.448 58.667 C 217.322 58.667,217.083 58.517,216.917 58.333 C 216.751 58.150,216.531 58.000,216.428 58.000 C 216.325 58.000,216.123 57.869,215.980 57.708 C 215.836 57.548,215.545 57.304,215.334 57.167 C 214.831 56.840,213.241 55.261,212.500 54.352 C 212.179 53.959,211.842 53.548,211.750 53.439 C 211.328 52.938,210.870 52.210,210.762 51.872 C 210.697 51.667,210.580 51.500,210.502 51.500 C 210.424 51.500,210.309 51.270,210.248 50.989 C 210.186 50.708,210.030 50.437,209.901 50.388 C 209.772 50.338,209.666 50.137,209.666 49.941 C 209.666 49.744,209.516 49.338,209.333 49.038 C 209.150 48.738,209.000 48.285,209.000 48.033 C 209.000 47.781,208.898 47.426,208.773 47.245 C 208.647 47.065,208.490 46.467,208.422 45.917 C 208.354 45.367,208.194 44.714,208.066 44.467 C 207.717 43.791,207.729 35.519,208.080 34.839 C 208.216 34.577,208.377 33.924,208.438 33.389 C 208.499 32.854,208.651 32.269,208.775 32.088 C 208.899 31.907,209.000 31.553,209.000 31.300 C 209.000 31.048,209.150 30.596,209.333 30.296 C 209.516 29.996,209.666 29.587,209.666 29.389 C 209.666 29.190,209.728 29.003,209.803 28.972 C 209.878 28.942,210.181 28.429,210.478 27.833 C 211.072 26.637,211.926 25.364,212.677 24.556 C 212.946 24.266,213.167 23.983,213.167 23.928 C 213.167 23.872,213.591 23.434,214.109 22.955 C 214.627 22.476,215.231 21.915,215.450 21.708 C 215.669 21.502,215.886 21.333,215.931 21.333 C 216.056 21.333,217.076 20.600,217.136 20.467 C 217.165 20.403,217.670 20.116,218.259 19.829 C 218.848 19.542,219.372 19.238,219.425 19.154 C 219.477 19.069,219.731 19.000,219.989 19.000 C 220.248 19.000,220.550 18.891,220.660 18.758 C 220.770 18.625,221.211 18.464,221.639 18.400 C 222.067 18.337,222.567 18.191,222.750 18.077 C 222.933 17.964,223.796 17.819,224.667 17.755 C 225.537 17.692,226.550 17.577,226.917 17.500 C 227.283 17.422,227.808 17.387,228.083 17.421 C 228.358 17.454,229.483 17.569,230.583 17.675 M98.833 17.839 C 97.504 17.903,94.324 18.014,91.767 18.086 C 86.213 18.242,86.500 18.130,86.500 20.146 C 86.500 21.819,86.687 21.928,90.127 22.284 C 91.279 22.403,91.181 20.738,91.129 39.386 L 91.083 55.688 90.667 55.917 C 90.438 56.043,89.800 56.345,89.250 56.588 C 86.040 58.009,85.833 58.169,85.836 59.228 C 85.840 60.711,84.682 60.578,98.038 60.628 C 105.108 60.655,110.427 60.607,111.169 60.510 C 112.985 60.273,114.820 59.923,115.583 59.668 C 116.959 59.209,118.384 58.633,118.973 58.296 C 119.309 58.104,119.736 57.866,119.924 57.766 C 120.507 57.453,121.720 56.446,122.332 55.766 C 122.653 55.409,123.046 54.979,123.204 54.812 C 125.164 52.741,125.605 46.868,123.992 44.333 C 123.904 44.196,123.759 43.913,123.669 43.704 C 122.879 41.875,118.532 38.667,116.844 38.667 C 116.661 38.667,116.434 38.522,116.339 38.344 C 116.104 37.904,116.120 37.834,116.458 37.828 C 117.282 37.813,119.393 36.447,120.445 35.248 C 123.936 31.268,123.854 25.849,120.247 22.251 C 119.465 21.471,117.474 20.000,117.201 20.000 C 117.133 20.000,116.817 19.863,116.498 19.696 C 113.182 17.961,107.877 17.403,98.833 17.839 M127.628 18.297 C 127.407 18.563,127.582 26.236,127.833 27.250 C 127.924 27.617,128.069 28.580,128.157 29.391 C 128.406 31.694,128.369 31.667,131.233 31.667 C 134.130 31.667,134.004 31.765,134.190 29.369 C 134.266 28.387,134.399 27.321,134.484 27.000 C 134.569 26.679,134.691 25.798,134.754 25.042 C 134.817 24.285,134.879 23.659,134.892 23.650 C 134.906 23.642,135.704 23.574,136.667 23.501 C 137.629 23.428,139.288 23.273,140.354 23.158 C 141.419 23.042,142.413 22.995,142.562 23.052 C 142.851 23.163,142.993 55.023,142.706 55.418 C 142.638 55.511,142.133 55.765,141.583 55.984 C 136.625 57.955,136.223 58.236,136.426 59.586 C 136.595 60.714,136.089 60.667,147.917 60.667 C 160.386 60.667,159.333 60.827,159.333 58.931 C 159.333 57.217,159.269 57.150,157.351 56.884 C 155.397 56.614,153.660 56.345,153.208 56.244 L 152.833 56.160 152.833 39.667 L 152.833 23.173 153.242 23.070 C 153.467 23.014,154.386 23.055,155.284 23.162 C 156.182 23.268,157.667 23.397,158.583 23.448 C 160.491 23.554,160.667 23.643,160.667 24.496 C 160.667 24.837,160.738 25.334,160.826 25.600 C 160.914 25.866,161.067 27.088,161.167 28.315 C 161.267 29.542,161.454 30.799,161.582 31.107 L 161.816 31.667 164.232 31.667 C 166.955 31.667,167.160 31.574,167.173 30.338 C 167.176 30.015,167.290 29.300,167.426 28.750 C 167.756 27.415,168.136 19.023,167.891 18.474 L 167.716 18.083 147.762 18.081 C 131.540 18.079,127.775 18.120,127.628 18.297 M170.645 18.442 C 170.321 18.833,170.225 21.370,170.526 21.618 C 170.813 21.854,172.350 22.173,174.458 22.433 L 175.167 22.520 175.167 39.156 L 175.167 55.792 174.344 56.146 C 173.892 56.341,173.442 56.500,173.344 56.500 C 173.247 56.500,173.167 56.575,173.167 56.667 C 173.167 56.758,173.080 56.833,172.974 56.833 C 172.708 56.833,171.015 57.641,170.458 58.033 C 169.860 58.455,169.764 60.195,170.322 60.494 C 170.697 60.695,204.805 60.739,205.094 60.539 C 205.588 60.199,205.894 56.962,205.959 51.381 L 206.024 45.846 205.637 45.767 C 202.275 45.079,200.242 45.147,200.086 45.952 C 200.036 46.208,199.877 46.754,199.733 47.167 C 199.589 47.579,199.406 48.217,199.326 48.583 C 199.247 48.950,199.030 49.775,198.844 50.417 C 198.658 51.058,198.422 51.921,198.320 52.333 C 197.885 54.085,197.974 54.056,191.833 54.492 C 190.412 54.592,188.440 54.750,187.450 54.842 C 186.460 54.934,185.579 54.965,185.492 54.912 C 185.393 54.851,185.333 48.812,185.333 39.005 L 185.333 23.196 186.125 22.826 C 190.579 20.740,190.791 20.580,190.503 19.510 C 190.113 18.065,190.891 18.167,180.270 18.167 C 171.736 18.167,170.853 18.192,170.645 18.442 M112.036 18.713 C 112.377 18.871,112.924 19.000,113.251 19.000 C 113.578 19.000,114.011 19.105,114.214 19.234 C 114.417 19.362,114.842 19.521,115.157 19.587 C 115.473 19.653,115.834 19.811,115.961 19.937 C 116.087 20.063,116.326 20.167,116.491 20.167 C 116.657 20.167,116.883 20.276,116.995 20.410 C 117.106 20.544,117.359 20.704,117.557 20.766 C 118.640 21.103,120.869 23.305,121.589 24.750 C 121.726 25.025,121.904 25.363,121.983 25.500 C 122.433 26.274,122.686 28.742,122.428 29.833 C 122.287 30.429,122.170 31.151,122.169 31.438 C 122.168 31.725,122.059 32.049,121.927 32.158 C 121.796 32.267,121.640 32.576,121.581 32.845 C 121.522 33.114,121.410 33.333,121.331 33.333 C 121.253 33.333,121.139 33.491,121.078 33.684 C 120.876 34.319,119.424 35.858,118.648 36.260 C 118.383 36.397,118.167 36.582,118.167 36.671 C 118.167 36.760,118.010 36.833,117.818 36.833 C 117.626 36.833,117.279 36.983,117.045 37.167 C 116.812 37.350,116.384 37.500,116.093 37.500 C 115.301 37.500,114.941 37.824,115.144 38.357 C 115.312 38.798,115.849 39.000,116.854 39.000 C 117.118 39.000,117.333 39.069,117.333 39.154 C 117.333 39.238,117.583 39.390,117.889 39.491 C 118.760 39.778,120.230 40.590,120.768 41.081 C 121.827 42.046,122.289 42.515,122.500 42.839 C 122.638 43.049,122.874 43.352,123.025 43.511 C 123.177 43.670,123.355 43.973,123.422 44.184 C 123.489 44.395,123.647 44.670,123.772 44.796 C 123.897 44.921,124.000 45.234,124.000 45.491 C 124.000 45.749,124.112 46.053,124.250 46.167 C 124.452 46.335,124.500 46.860,124.500 48.917 C 124.500 50.973,124.452 51.499,124.250 51.667 C 124.112 51.781,124.000 52.055,124.000 52.276 C 124.000 52.497,123.875 52.882,123.723 53.131 C 123.012 54.294,122.567 54.928,122.375 55.050 C 122.261 55.123,122.167 55.292,122.167 55.425 C 122.167 55.558,122.073 55.669,121.958 55.672 C 121.844 55.675,121.491 55.937,121.176 56.254 C 120.860 56.572,120.466 56.875,120.301 56.927 C 120.135 56.980,120.000 57.083,120.000 57.158 C 120.000 57.232,119.775 57.386,119.500 57.500 C 119.225 57.614,119.000 57.773,119.000 57.854 C 119.000 57.934,118.869 58.000,118.708 58.001 C 118.548 58.002,118.192 58.151,117.917 58.333 C 117.642 58.515,117.257 58.665,117.062 58.666 C 116.867 58.666,116.614 58.779,116.500 58.917 C 116.386 59.054,116.020 59.168,115.688 59.170 C 115.355 59.172,114.756 59.322,114.357 59.504 C 113.882 59.719,113.270 59.833,112.592 59.833 C 112.020 59.833,111.185 59.945,110.735 60.082 C 110.044 60.291,108.101 60.330,98.242 60.332 L 86.567 60.333 86.367 59.780 C 86.040 58.877,86.109 58.553,86.667 58.358 C 86.942 58.262,87.167 58.105,87.167 58.009 C 87.167 57.912,87.298 57.833,87.458 57.832 C 87.619 57.832,87.975 57.682,88.250 57.500 C 88.525 57.318,88.876 57.168,89.030 57.168 C 89.184 57.167,89.409 57.070,89.530 56.953 C 89.651 56.835,90.048 56.666,90.413 56.578 C 91.558 56.299,91.495 57.322,91.498 39.060 C 91.500 23.286,91.486 22.520,91.195 22.160 C 90.910 21.808,89.677 21.598,87.375 21.508 C 86.952 21.492,87.103 19.047,87.542 18.806 C 88.496 18.283,110.924 18.198,112.036 18.713 M167.462 22.170 C 167.497 25.101,167.454 26.057,167.260 26.655 C 167.124 27.074,166.961 28.092,166.898 28.917 C 166.725 31.177,166.738 31.167,164.155 31.167 L 162.015 31.167 161.930 30.625 C 161.883 30.327,161.812 29.783,161.773 29.417 C 161.733 29.050,161.620 28.450,161.521 28.083 C 161.422 27.717,161.336 26.742,161.330 25.917 C 161.315 23.964,161.121 23.517,160.161 23.219 C 159.498 23.012,155.543 22.690,153.470 22.673 C 152.049 22.661,152.167 21.131,152.167 39.595 C 152.167 57.926,152.083 56.663,153.292 56.669 C 153.544 56.671,154.050 56.780,154.417 56.912 C 154.783 57.044,155.571 57.156,156.167 57.160 C 158.497 57.178,158.903 57.494,158.740 59.156 L 158.624 60.333 147.899 60.333 L 137.175 60.333 136.921 59.842 C 136.509 59.045,136.593 58.681,137.250 58.406 C 137.571 58.272,137.833 58.088,137.833 57.998 C 137.833 57.907,138.002 57.833,138.208 57.832 C 138.415 57.832,138.808 57.682,139.083 57.500 C 139.358 57.318,139.743 57.168,139.938 57.168 C 140.133 57.167,140.386 57.054,140.500 56.917 C 140.614 56.779,140.830 56.666,140.979 56.665 C 141.128 56.664,141.662 56.457,142.167 56.206 L 143.083 55.750 143.126 39.396 C 143.163 25.034,143.138 23.017,142.919 22.835 C 142.722 22.671,141.955 22.666,139.293 22.809 C 135.404 23.017,134.613 23.205,134.530 23.942 C 134.501 24.203,134.370 24.738,134.238 25.131 C 134.107 25.524,133.999 26.461,133.997 27.214 C 133.996 27.967,133.858 29.146,133.692 29.833 L 133.389 31.083 131.275 31.130 L 129.162 31.177 128.994 30.713 C 128.902 30.458,128.758 30.100,128.675 29.917 C 128.592 29.733,128.476 28.788,128.419 27.816 C 128.361 26.844,128.206 25.532,128.074 24.900 C 127.855 23.854,127.717 18.672,127.903 18.486 C 127.941 18.448,136.847 18.423,147.694 18.431 L 167.417 18.446 167.462 22.170 M189.922 19.529 C 190.027 20.154,189.995 20.258,189.607 20.541 C 188.979 20.998,187.685 21.667,187.428 21.667 C 187.307 21.667,187.114 21.779,187.000 21.917 C 186.886 22.054,186.670 22.168,186.521 22.170 C 186.372 22.172,185.894 22.397,185.458 22.670 L 184.667 23.167 184.667 39.080 L 184.667 54.992 185.074 55.259 C 185.542 55.566,187.552 55.492,189.917 55.082 C 190.650 54.954,192.525 54.812,194.083 54.766 C 197.796 54.657,198.484 54.421,198.503 53.250 C 198.507 52.975,198.621 52.604,198.755 52.426 C 198.890 52.249,199.000 51.833,199.000 51.503 C 199.000 51.174,199.150 50.610,199.333 50.250 C 199.517 49.890,199.669 49.368,199.672 49.090 C 199.675 48.811,199.787 48.438,199.922 48.260 C 200.057 48.082,200.169 47.669,200.172 47.343 C 200.179 46.485,200.831 45.475,201.232 45.700 C 201.399 45.794,202.465 45.910,203.601 45.959 L 205.667 46.048 205.667 50.263 C 205.667 52.582,205.594 54.669,205.505 54.902 C 205.417 55.135,205.301 56.134,205.248 57.121 C 205.195 58.109,205.113 59.235,205.066 59.625 L 204.980 60.333 187.862 60.333 L 170.745 60.333 170.479 59.720 C 170.141 58.938,170.243 58.564,170.850 58.352 C 171.116 58.260,171.333 58.105,171.333 58.009 C 171.333 57.912,171.465 57.833,171.625 57.832 C 171.785 57.832,172.142 57.682,172.417 57.500 C 172.692 57.318,173.039 57.168,173.188 57.168 C 173.337 57.167,173.546 57.062,173.652 56.934 C 173.758 56.806,174.095 56.655,174.400 56.598 C 175.590 56.374,175.506 57.757,175.459 39.099 L 175.417 22.310 174.500 21.994 C 173.996 21.820,173.246 21.674,172.833 21.670 C 172.421 21.666,171.802 21.617,171.458 21.560 L 170.833 21.456 170.833 20.145 L 170.833 18.833 180.319 18.833 L 189.804 18.833 189.922 19.529 M252.444 18.944 C 252.383 19.006,252.333 19.675,252.333 20.433 C 252.333 22.100,252.445 22.246,253.838 22.404 C 254.403 22.468,255.064 22.599,255.307 22.695 C 255.551 22.791,256.125 22.917,256.583 22.976 L 257.417 23.083 257.410 25.500 C 257.406 26.829,257.312 30.842,257.201 34.417 C 257.090 37.992,256.917 43.692,256.817 47.083 C 256.716 50.475,256.595 53.796,256.548 54.462 L 256.462 55.675 255.523 56.104 C 251.034 58.153,250.942 58.224,251.097 59.480 C 251.253 60.749,250.586 60.661,260.136 60.664 C 270.069 60.667,269.333 60.798,269.333 59.030 C 269.333 57.461,269.131 57.281,266.957 56.914 C 264.782 56.548,264.430 56.468,264.213 56.296 C 264.054 56.169,264.032 54.053,264.112 46.775 C 264.200 38.702,264.177 37.142,263.945 35.417 C 263.722 33.757,263.597 31.726,263.654 30.698 C 263.672 30.380,264.000 30.635,264.001 30.968 C 264.002 31.123,264.112 31.460,264.246 31.717 C 264.379 31.974,264.561 32.424,264.649 32.717 C 264.737 33.010,265.006 33.775,265.247 34.417 C 265.488 35.058,265.764 35.846,265.860 36.167 C 265.956 36.487,266.093 36.825,266.165 36.917 C 266.236 37.008,266.350 37.346,266.417 37.667 C 266.484 37.987,266.597 38.325,266.669 38.417 C 266.740 38.508,266.876 38.846,266.971 39.167 C 267.065 39.487,267.339 40.275,267.580 40.917 C 267.820 41.558,268.087 42.308,268.173 42.583 C 268.258 42.858,268.402 43.233,268.493 43.417 C 268.709 43.854,269.156 45.119,269.319 45.754 C 269.390 46.031,269.546 46.442,269.667 46.667 C 269.787 46.892,269.944 47.302,270.015 47.579 C 270.170 48.184,270.614 49.454,270.833 49.917 C 271.013 50.297,271.443 51.494,271.682 52.283 C 271.771 52.576,271.954 53.026,272.088 53.283 C 272.222 53.540,272.332 53.904,272.332 54.093 C 272.333 54.282,272.443 54.582,272.578 54.760 C 272.713 54.938,272.825 55.218,272.828 55.383 C 272.831 55.548,272.958 55.923,273.110 56.217 C 273.262 56.510,273.444 56.975,273.515 57.250 C 273.675 57.869,274.108 59.085,274.406 59.750 C 274.529 60.025,274.678 60.411,274.737 60.607 C 274.880 61.083,275.368 61.187,276.217 60.923 C 276.602 60.803,277.404 60.619,278.000 60.514 C 278.596 60.409,279.646 60.217,280.333 60.087 C 281.021 59.957,281.667 59.847,281.769 59.842 C 282.150 59.824,282.798 58.971,283.011 58.207 C 283.132 57.772,283.329 57.229,283.448 57.000 C 283.567 56.771,283.665 56.489,283.666 56.373 C 283.666 56.257,283.742 56.032,283.834 55.873 C 283.987 55.607,284.601 53.999,285.345 51.917 C 285.509 51.458,285.804 50.671,286.002 50.167 C 286.199 49.663,286.431 49.010,286.519 48.717 C 286.606 48.424,286.787 47.974,286.921 47.717 C 287.055 47.460,287.165 47.176,287.166 47.087 C 287.167 46.927,287.659 45.606,288.108 44.558 C 288.232 44.269,288.334 43.969,288.334 43.891 C 288.335 43.814,288.440 43.549,288.569 43.303 C 288.697 43.057,288.854 42.621,288.917 42.333 C 288.980 42.046,289.136 41.610,289.265 41.364 C 289.393 41.118,289.498 40.853,289.499 40.775 C 289.500 40.697,289.601 40.397,289.725 40.109 C 290.250 38.883,290.667 37.726,290.667 37.492 C 290.667 37.354,290.771 37.092,290.898 36.911 C 291.025 36.730,291.208 36.319,291.304 35.999 C 291.551 35.179,291.980 33.977,292.167 33.583 C 292.333 33.232,292.728 32.146,293.047 31.167 C 293.151 30.846,293.333 30.523,293.451 30.450 C 293.570 30.377,293.667 30.137,293.667 29.918 C 293.667 29.699,293.742 29.473,293.833 29.417 C 294.049 29.283,294.039 29.555,293.750 31.667 C 293.618 32.629,293.506 34.054,293.500 34.833 C 293.494 35.612,293.421 36.776,293.338 37.420 C 293.248 38.112,293.241 42.025,293.321 47.003 C 293.395 51.631,293.427 55.493,293.392 55.586 C 293.323 55.768,291.822 56.500,291.518 56.500 C 291.416 56.500,291.333 56.572,291.333 56.659 C 291.333 56.747,291.074 56.867,290.756 56.927 C 290.438 56.986,290.092 57.140,289.986 57.267 C 289.879 57.395,289.707 57.500,289.602 57.500 C 288.532 57.500,287.611 59.711,288.367 60.467 C 288.686 60.786,308.555 60.752,308.820 60.432 C 308.942 60.286,308.996 59.712,308.966 58.892 C 308.908 57.343,308.842 57.288,306.622 56.915 C 305.867 56.789,304.762 56.584,304.167 56.459 L 303.083 56.233 302.969 50.158 C 302.906 46.817,302.774 41.833,302.676 39.083 C 302.578 36.333,302.499 31.739,302.499 28.873 L 302.500 23.662 303.292 23.303 C 307.389 21.440,307.812 21.116,307.528 20.055 C 307.176 18.742,307.765 18.833,299.672 18.833 C 291.668 18.833,292.049 18.785,291.756 19.833 C 291.623 20.311,291.057 21.834,290.725 22.609 C 290.601 22.897,290.500 23.239,290.500 23.368 C 290.500 23.497,290.390 23.749,290.255 23.926 C 290.121 24.104,290.008 24.400,290.004 24.583 C 290.001 24.767,289.877 25.142,289.729 25.417 C 289.581 25.692,289.399 26.142,289.325 26.417 C 289.095 27.266,288.674 28.395,288.414 28.859 C 288.278 29.102,288.167 29.401,288.167 29.522 C 288.167 29.721,287.690 31.051,287.309 31.917 C 287.228 32.100,287.092 32.475,287.006 32.750 C 286.920 33.025,286.653 33.775,286.413 34.417 C 286.173 35.058,285.899 35.846,285.804 36.167 C 285.709 36.487,285.573 36.825,285.500 36.917 C 285.427 37.008,285.290 37.346,285.194 37.667 C 284.955 38.470,284.523 39.682,284.333 40.083 C 284.126 40.521,283.679 41.787,283.509 42.417 C 283.434 42.692,283.252 43.142,283.104 43.417 C 282.956 43.692,282.833 44.067,282.829 44.250 C 282.826 44.433,282.713 44.729,282.578 44.907 C 282.443 45.085,282.333 45.336,282.333 45.465 C 282.333 45.594,282.224 45.936,282.091 46.225 C 281.788 46.881,281.364 48.056,281.134 48.875 C 280.876 49.800,280.338 49.658,280.071 48.594 C 280.004 48.325,279.848 47.913,279.725 47.678 C 279.603 47.442,279.501 47.137,279.500 47.000 C 279.499 46.862,279.393 46.549,279.265 46.303 C 279.136 46.057,278.980 45.621,278.917 45.333 C 278.854 45.046,278.697 44.610,278.569 44.364 C 278.440 44.118,278.335 43.802,278.334 43.662 C 278.334 43.522,278.230 43.260,278.105 43.079 C 277.979 42.898,277.819 42.487,277.750 42.167 C 277.681 41.846,277.521 41.435,277.395 41.255 C 277.270 41.074,277.167 40.785,277.167 40.613 C 277.167 40.441,277.058 40.064,276.924 39.775 C 276.653 39.189,276.220 38.010,275.997 37.250 C 275.689 36.206,275.134 34.744,274.987 34.592 C 274.902 34.505,274.833 34.280,274.832 34.092 C 274.832 33.904,274.722 33.540,274.588 33.283 C 274.454 33.026,274.271 32.576,274.182 32.283 C 273.948 31.511,273.516 30.303,273.336 29.917 C 273.250 29.733,273.100 29.268,273.002 28.882 C 272.904 28.496,272.751 28.136,272.662 28.081 C 272.573 28.025,272.500 27.827,272.500 27.640 C 272.500 27.453,272.391 27.064,272.257 26.775 C 271.953 26.116,271.517 24.905,271.348 24.250 C 271.278 23.975,271.095 23.510,270.943 23.217 C 270.791 22.923,270.667 22.587,270.667 22.470 C 270.667 22.284,270.242 21.095,269.814 20.083 C 269.737 19.900,269.599 19.544,269.508 19.292 L 269.342 18.833 260.949 18.833 C 256.332 18.833,252.506 18.883,252.444 18.944 M269.170 19.500 C 269.257 19.637,269.329 19.910,269.331 20.105 C 269.332 20.300,269.436 20.544,269.562 20.649 C 269.687 20.753,269.832 21.148,269.882 21.526 C 269.933 21.905,270.046 22.260,270.133 22.316 C 270.220 22.371,270.346 22.679,270.412 23.000 C 270.478 23.321,270.638 23.749,270.766 23.952 C 270.895 24.155,271.000 24.475,271.000 24.661 C 271.000 24.848,271.150 25.281,271.333 25.623 C 271.517 25.965,271.667 26.406,271.667 26.602 C 271.667 26.799,271.779 27.053,271.917 27.167 C 272.054 27.281,272.167 27.572,272.167 27.815 C 272.167 28.057,272.317 28.535,272.500 28.877 C 272.683 29.219,272.833 29.677,272.833 29.896 C 272.833 30.114,272.946 30.386,273.083 30.500 C 273.221 30.614,273.333 30.868,273.333 31.065 C 273.333 31.261,273.483 31.701,273.667 32.044 C 273.850 32.386,274.000 32.848,274.000 33.071 C 274.000 33.294,274.101 33.577,274.224 33.701 C 274.348 33.824,274.504 34.219,274.572 34.579 C 274.639 34.939,274.801 35.385,274.930 35.570 C 275.060 35.756,275.167 36.064,275.167 36.255 C 275.167 36.446,275.277 36.749,275.411 36.926 C 275.546 37.104,275.658 37.403,275.661 37.590 C 275.664 37.777,275.817 38.224,276.000 38.583 C 276.183 38.943,276.333 39.392,276.333 39.581 C 276.333 39.771,276.435 40.074,276.560 40.255 C 276.684 40.435,276.836 40.857,276.897 41.192 C 276.959 41.526,277.119 41.892,277.254 42.004 C 277.389 42.116,277.500 42.452,277.500 42.750 C 277.500 43.048,277.607 43.381,277.737 43.489 C 277.867 43.597,278.023 43.975,278.082 44.328 C 278.142 44.680,278.295 45.107,278.423 45.276 C 278.551 45.445,278.661 45.733,278.667 45.917 C 278.673 46.100,278.823 46.550,279.000 46.917 C 279.177 47.283,279.325 47.709,279.328 47.861 C 279.331 48.014,279.443 48.352,279.577 48.611 C 279.711 48.871,279.862 49.288,279.912 49.539 C 280.142 50.669,281.333 50.593,281.333 49.448 C 281.333 49.224,281.440 48.952,281.570 48.844 C 281.701 48.736,281.860 48.337,281.924 47.958 C 281.988 47.579,282.144 47.166,282.270 47.039 C 282.397 46.913,282.500 46.645,282.500 46.444 C 282.500 46.243,282.650 45.799,282.833 45.456 C 283.017 45.114,283.167 44.647,283.167 44.417 C 283.167 44.188,283.239 44.000,283.327 44.000 C 283.415 44.000,283.567 43.681,283.665 43.292 C 283.763 42.902,283.953 42.384,284.088 42.141 C 284.223 41.898,284.333 41.513,284.333 41.286 C 284.333 41.060,284.446 40.781,284.583 40.667 C 284.721 40.553,284.833 40.299,284.833 40.102 C 284.833 39.906,284.983 39.465,285.167 39.123 C 285.350 38.781,285.500 38.323,285.500 38.104 C 285.500 37.886,285.605 37.621,285.733 37.514 C 285.860 37.408,286.013 37.065,286.072 36.751 C 286.131 36.437,286.288 35.971,286.422 35.715 C 286.555 35.459,286.665 35.090,286.666 34.895 C 286.666 34.700,286.779 34.447,286.917 34.333 C 287.054 34.219,287.167 33.963,287.167 33.765 C 287.167 33.566,287.317 33.110,287.500 32.750 C 287.683 32.390,287.833 31.978,287.833 31.833 C 287.833 31.689,287.983 31.276,288.167 30.917 C 288.350 30.557,288.500 30.123,288.500 29.953 C 288.500 29.782,288.612 29.530,288.750 29.393 C 288.887 29.255,289.000 28.960,289.000 28.737 C 289.000 28.515,289.150 28.052,289.333 27.710 C 289.517 27.368,289.669 26.937,289.672 26.752 C 289.675 26.568,289.787 26.271,289.922 26.093 C 290.057 25.915,290.167 25.634,290.167 25.468 C 290.167 25.301,290.317 24.886,290.500 24.544 C 290.683 24.201,290.833 23.761,290.833 23.565 C 290.833 23.368,290.946 23.114,291.083 23.000 C 291.221 22.886,291.333 22.614,291.333 22.396 C 291.333 22.177,291.483 21.719,291.667 21.377 C 291.850 21.035,292.000 20.620,292.000 20.454 C 292.000 20.289,292.164 19.931,292.365 19.660 L 292.729 19.167 299.762 19.167 L 306.794 19.167 306.895 19.542 C 307.108 20.335,307.013 20.973,306.667 21.083 C 306.483 21.142,306.333 21.253,306.333 21.331 C 306.333 21.410,306.114 21.522,305.845 21.581 C 305.576 21.640,305.267 21.796,305.158 21.927 C 305.049 22.059,304.824 22.167,304.658 22.167 C 304.493 22.167,304.254 22.270,304.127 22.396 C 304.001 22.523,303.664 22.677,303.379 22.740 C 303.094 22.803,302.693 22.999,302.488 23.177 L 302.116 23.500 302.228 37.708 C 302.372 55.951,302.417 56.667,303.404 56.667 C 303.603 56.667,303.844 56.744,303.938 56.838 C 304.033 56.933,304.666 57.074,305.347 57.152 C 306.027 57.230,306.771 57.373,307.000 57.470 C 307.229 57.566,307.698 57.691,308.042 57.747 L 308.667 57.848 308.667 59.091 L 308.667 60.333 298.770 60.333 C 287.732 60.333,288.439 60.416,288.531 59.137 C 288.575 58.530,288.644 58.408,288.969 58.362 C 289.180 58.332,289.393 58.205,289.441 58.081 C 289.489 57.956,289.741 57.807,290.002 57.749 C 290.263 57.692,290.566 57.538,290.676 57.406 C 290.785 57.274,290.998 57.167,291.150 57.167 C 291.302 57.167,291.574 57.064,291.755 56.938 C 291.935 56.812,292.319 56.658,292.608 56.595 C 293.818 56.332,293.749 57.010,293.755 45.274 C 293.758 37.209,293.809 34.614,293.971 34.167 C 294.306 33.239,294.426 28.826,294.126 28.433 C 293.788 27.990,293.538 28.214,293.409 29.076 C 293.348 29.480,293.194 29.851,293.066 29.900 C 292.938 29.949,292.833 30.198,292.832 30.453 C 292.832 30.708,292.682 31.142,292.500 31.417 C 292.318 31.692,292.168 32.114,292.168 32.355 C 292.167 32.595,292.062 32.879,291.934 32.986 C 291.806 33.092,291.650 33.453,291.587 33.789 C 291.524 34.125,291.366 34.551,291.236 34.737 C 291.106 34.922,291.000 35.273,291.000 35.517 C 291.000 35.760,290.895 36.046,290.767 36.152 C 290.640 36.258,290.483 36.620,290.420 36.956 C 290.357 37.292,290.199 37.718,290.070 37.904 C 289.940 38.089,289.833 38.440,289.833 38.683 C 289.833 38.927,289.721 39.219,289.583 39.333 C 289.446 39.447,289.333 39.701,289.333 39.898 C 289.333 40.094,289.183 40.535,289.000 40.877 C 288.817 41.219,288.667 41.632,288.667 41.796 C 288.667 41.959,288.564 42.240,288.438 42.421 C 288.312 42.602,288.153 43.008,288.084 43.324 C 288.016 43.640,287.856 44.001,287.730 44.127 C 287.603 44.254,287.500 44.558,287.499 44.804 C 287.498 45.049,287.349 45.475,287.167 45.750 C 286.985 46.025,286.833 46.400,286.829 46.583 C 286.826 46.767,286.713 47.062,286.578 47.240 C 286.443 47.418,286.333 47.735,286.333 47.944 C 286.333 48.154,286.184 48.571,286.001 48.871 C 285.818 49.171,285.668 49.591,285.667 49.804 C 285.667 50.016,285.554 50.303,285.417 50.440 C 285.279 50.578,285.167 50.835,285.167 51.013 C 285.167 51.190,285.017 51.614,284.833 51.956 C 284.650 52.299,284.500 52.739,284.500 52.935 C 284.500 53.132,284.387 53.386,284.250 53.500 C 284.112 53.614,284.000 53.886,284.000 54.104 C 284.000 54.323,283.850 54.781,283.667 55.123 C 283.483 55.465,283.333 55.906,283.333 56.102 C 283.333 56.299,283.221 56.553,283.083 56.667 C 282.946 56.781,282.835 57.034,282.836 57.229 C 282.848 58.661,281.187 59.831,279.141 59.834 C 278.743 59.835,278.221 59.938,277.981 60.063 C 277.742 60.188,276.980 60.343,276.290 60.408 L 275.034 60.525 274.920 59.856 C 274.858 59.487,274.701 59.097,274.570 58.989 C 274.440 58.881,274.333 58.607,274.333 58.380 C 274.333 58.154,274.223 57.769,274.088 57.526 C 273.953 57.282,273.763 56.765,273.665 56.375 C 273.567 55.985,273.415 55.667,273.327 55.667 C 273.239 55.667,273.166 55.423,273.166 55.125 C 273.165 54.827,273.015 54.358,272.833 54.083 C 272.651 53.808,272.502 53.386,272.501 53.145 C 272.500 52.905,272.387 52.614,272.250 52.500 C 272.112 52.386,271.997 52.133,271.994 51.938 C 271.991 51.743,271.844 51.283,271.667 50.917 C 271.490 50.550,271.342 50.087,271.339 49.887 C 271.336 49.687,271.221 49.411,271.083 49.274 C 270.946 49.136,270.833 48.849,270.833 48.634 C 270.833 48.420,270.683 47.965,270.500 47.623 C 270.317 47.281,270.167 46.865,270.167 46.699 C 270.167 46.533,270.057 46.251,269.922 46.074 C 269.787 45.896,269.675 45.599,269.672 45.414 C 269.669 45.230,269.517 44.799,269.333 44.456 C 269.150 44.114,269.000 43.652,269.000 43.429 C 269.000 43.206,268.900 42.924,268.778 42.802 C 268.656 42.680,268.510 42.291,268.452 41.936 C 268.395 41.582,268.232 41.164,268.090 41.008 C 267.949 40.852,267.833 40.540,267.833 40.316 C 267.833 40.091,267.732 39.760,267.608 39.579 C 267.484 39.398,267.332 39.025,267.269 38.750 C 267.206 38.475,267.054 38.025,266.931 37.750 C 266.636 37.090,266.340 36.246,266.098 35.376 C 265.990 34.986,265.811 34.578,265.701 34.467 C 265.590 34.357,265.500 34.073,265.500 33.837 C 265.500 33.601,265.394 33.256,265.264 33.070 C 265.134 32.885,264.976 32.458,264.913 32.122 C 264.850 31.787,264.694 31.425,264.566 31.319 C 264.438 31.213,264.333 30.950,264.333 30.735 C 264.333 29.949,263.316 28.237,263.059 28.588 C 262.767 28.988,262.770 30.384,263.066 31.428 C 263.194 31.880,263.347 33.352,263.405 34.698 C 263.463 36.044,263.591 37.379,263.691 37.664 C 263.810 38.006,263.837 39.159,263.769 41.050 C 263.713 42.626,263.620 46.730,263.564 50.169 L 263.461 56.421 264.207 56.794 C 264.617 56.999,265.255 57.167,265.624 57.167 C 265.993 57.167,266.660 57.275,267.106 57.408 C 267.552 57.541,268.132 57.694,268.394 57.749 C 268.826 57.840,268.862 57.899,268.769 58.362 C 268.713 58.644,268.667 59.203,268.667 59.604 L 268.667 60.333 260.270 60.333 C 253.752 60.333,251.837 60.287,251.710 60.125 C 251.189 59.463,251.379 58.333,252.011 58.333 C 252.194 58.333,252.387 58.221,252.440 58.083 C 252.492 57.946,252.668 57.833,252.829 57.833 C 252.990 57.833,253.312 57.683,253.545 57.500 C 253.779 57.317,254.117 57.167,254.298 57.167 C 254.478 57.167,254.712 57.063,254.817 56.937 C 254.922 56.810,255.234 56.661,255.511 56.606 C 255.789 56.551,256.264 56.316,256.567 56.084 L 257.120 55.663 257.242 47.873 C 257.310 43.589,257.434 39.483,257.519 38.750 C 257.603 38.017,257.719 34.212,257.777 30.296 C 257.889 22.708,257.885 22.667,257.096 22.667 C 256.897 22.667,256.656 22.589,256.562 22.495 C 256.467 22.401,255.814 22.259,255.109 22.180 C 254.404 22.101,253.735 21.960,253.622 21.867 C 253.509 21.775,253.233 21.673,253.009 21.641 C 252.495 21.568,252.459 19.756,252.964 19.370 C 253.411 19.029,268.951 19.154,269.170 19.500 M224.762 22.734 C 223.904 22.847,223.245 23.016,223.206 23.132 C 223.169 23.243,222.952 23.333,222.723 23.333 C 222.291 23.333,221.000 24.441,221.000 24.813 C 221.000 24.921,220.887 25.054,220.750 25.106 C 220.612 25.159,220.500 25.276,220.500 25.367 C 220.500 25.457,220.350 25.721,220.167 25.955 C 219.983 26.188,219.833 26.518,219.833 26.689 C 219.833 26.860,219.759 27.000,219.669 27.000 C 219.579 27.000,219.420 27.335,219.317 27.745 C 219.214 28.155,219.025 28.576,218.898 28.682 C 218.771 28.788,218.667 29.111,218.667 29.400 C 218.667 29.689,218.563 30.074,218.437 30.255 C 218.311 30.435,218.153 31.059,218.086 31.641 C 218.019 32.223,217.860 32.898,217.733 33.141 C 217.397 33.784,217.396 43.261,217.731 44.063 C 217.858 44.367,218.017 45.021,218.084 45.516 C 218.151 46.011,218.309 46.619,218.436 46.867 C 218.563 47.114,218.666 47.452,218.666 47.617 C 218.666 47.878,219.095 48.901,219.527 49.667 C 219.604 49.804,219.745 50.097,219.840 50.318 C 219.934 50.538,220.234 51.048,220.506 51.451 C 220.778 51.854,221.000 52.229,221.000 52.286 C 221.000 52.504,223.515 54.833,223.751 54.833 C 223.888 54.833,224.000 54.910,224.000 55.004 C 224.000 55.098,224.206 55.250,224.458 55.342 C 224.710 55.434,225.142 55.611,225.417 55.737 C 226.973 56.445,230.492 56.739,231.688 56.261 C 232.047 56.117,232.542 56.000,232.788 56.000 C 233.264 56.000,235.163 54.231,235.509 53.465 C 235.604 53.255,235.899 52.708,236.164 52.250 C 236.430 51.792,236.652 51.295,236.657 51.145 C 236.662 50.996,236.779 50.781,236.917 50.667 C 237.054 50.553,237.167 50.299,237.167 50.102 C 237.167 49.906,237.317 49.465,237.500 49.123 C 237.683 48.781,237.833 48.236,237.833 47.911 C 237.833 47.587,237.951 47.141,238.096 46.921 C 238.249 46.687,238.419 45.874,238.503 44.969 C 238.582 44.115,238.723 42.678,238.817 41.775 C 238.930 40.682,238.931 39.625,238.822 38.609 C 238.731 37.770,238.589 36.394,238.504 35.551 C 238.420 34.708,238.235 33.793,238.092 33.518 C 237.950 33.242,237.833 32.788,237.833 32.508 C 237.833 32.228,237.683 31.719,237.500 31.377 C 237.317 31.035,237.167 30.632,237.167 30.481 C 237.167 30.331,237.054 30.114,236.917 30.000 C 236.779 29.886,236.667 29.692,236.667 29.568 C 236.667 29.164,235.876 27.759,235.000 26.607 C 234.465 25.904,233.055 24.500,232.883 24.500 C 232.784 24.500,232.665 24.406,232.619 24.292 C 232.574 24.177,232.172 23.903,231.726 23.683 C 231.281 23.463,230.725 23.185,230.490 23.067 C 229.503 22.569,227.078 22.428,224.762 22.734 M105.691 22.830 C 105.016 22.907,104.382 23.051,104.282 23.151 C 104.182 23.251,103.571 23.334,102.925 23.336 C 100.392 23.341,100.500 23.031,100.500 30.305 C 100.500 35.390,100.534 36.177,100.762 36.405 C 101.190 36.833,106.835 36.775,107.750 36.333 C 108.117 36.156,108.581 36.009,108.782 36.006 C 108.983 36.003,109.194 35.924,109.252 35.831 C 109.309 35.738,109.604 35.558,109.907 35.431 C 110.668 35.114,112.500 33.271,112.500 32.825 C 112.500 32.730,112.656 32.442,112.847 32.184 C 113.320 31.544,113.277 27.581,112.792 27.046 C 112.631 26.869,112.500 26.565,112.500 26.370 C 112.500 26.176,112.404 25.957,112.288 25.883 C 112.171 25.810,111.932 25.526,111.757 25.251 C 111.368 24.640,110.023 23.333,109.784 23.333 C 109.688 23.333,109.483 23.219,109.329 23.079 C 108.975 22.759,107.323 22.646,105.691 22.830 M108.801 23.353 C 110.431 24.087,111.755 25.581,112.490 27.513 C 112.848 28.455,112.985 31.095,112.693 31.425 C 112.616 31.512,112.450 31.846,112.325 32.167 C 112.054 32.856,112.052 32.859,111.156 33.875 C 110.772 34.310,110.355 34.667,110.229 34.667 C 110.103 34.667,110.000 34.728,110.000 34.804 C 110.000 34.992,108.520 35.644,107.368 35.963 C 106.701 36.148,105.645 36.230,103.833 36.238 L 101.250 36.250 101.203 30.500 C 101.178 27.337,101.196 24.590,101.244 24.393 C 101.359 23.918,101.538 23.865,103.984 23.579 C 105.138 23.444,106.346 23.266,106.667 23.184 C 107.591 22.947,107.965 22.976,108.801 23.353 M229.838 23.348 C 233.902 24.755,236.339 28.162,237.932 34.667 C 238.355 36.391,238.374 44.276,237.959 45.583 C 237.813 46.042,237.644 46.717,237.583 47.083 C 236.944 50.921,234.083 55.439,232.079 55.774 C 229.551 56.197,226.221 55.834,224.833 54.985 C 224.696 54.901,224.418 54.761,224.216 54.673 C 223.677 54.439,221.692 52.522,221.190 51.750 C 220.519 50.717,220.362 50.449,220.165 50.000 C 219.721 48.985,219.297 48.061,219.155 47.794 C 219.070 47.635,219.000 47.394,219.000 47.258 C 219.000 47.123,218.883 46.667,218.740 46.245 C 217.920 43.831,217.557 37.247,218.074 34.167 C 218.454 31.904,219.034 29.471,219.285 29.088 C 219.403 28.907,219.500 28.645,219.500 28.505 C 219.501 28.265,220.671 25.868,220.994 25.446 C 221.987 24.147,222.482 23.772,223.681 23.412 C 225.436 22.885,228.411 22.854,229.838 23.348 M101.061 40.518 C 100.540 40.785,100.504 41.264,100.504 47.917 C 100.504 55.869,100.359 55.295,102.417 55.516 C 103.058 55.585,103.958 55.718,104.417 55.811 C 105.747 56.081,108.831 56.043,109.394 55.749 C 109.657 55.612,110.040 55.500,110.247 55.500 C 110.453 55.500,110.812 55.350,111.045 55.167 C 111.279 54.983,111.517 54.833,111.575 54.833 C 112.115 54.833,114.329 52.243,114.339 51.600 C 114.342 51.408,114.454 51.104,114.589 50.926 C 114.944 50.456,114.940 46.796,114.583 46.500 C 114.446 46.386,114.333 46.081,114.333 45.823 C 114.333 45.564,114.251 45.302,114.150 45.239 C 114.049 45.177,113.860 44.873,113.731 44.563 C 113.601 44.253,113.422 44.000,113.331 44.000 C 113.241 44.000,113.167 43.918,113.167 43.818 C 113.167 43.597,111.718 42.167,111.494 42.167 C 111.405 42.167,111.333 42.088,111.333 41.991 C 111.333 41.895,111.076 41.709,110.761 41.577 C 110.447 41.446,110.142 41.262,110.085 41.169 C 110.027 41.076,109.757 41.000,109.484 41.000 C 109.211 41.000,108.790 40.870,108.548 40.711 C 108.010 40.359,101.690 40.196,101.061 40.518 M107.965 41.086 C 110.157 41.516,112.997 43.479,113.420 44.856 C 113.486 45.073,113.622 45.351,113.722 45.475 C 114.377 46.293,114.653 49.038,114.224 50.485 C 113.165 54.065,110.459 55.792,106.463 55.438 C 105.796 55.379,104.425 55.285,103.417 55.230 C 102.032 55.155,101.532 55.066,101.375 54.867 C 101.156 54.589,101.060 41.997,101.272 41.208 C 101.400 40.730,105.749 40.650,107.965 41.086 " stroke="none" fill="#87a8bf" fill-rule="evenodd"></path></g></svg>