<svg id="svg" version="1.1" xmlns="http://www.w3.org/2000/svg" xmlns:xlink="http://www.w3.org/1999/xlink" width="400" height="361.14790286975716" viewBox="0, 0, 400,361.14790286975716"><g id="svgg"><path id="path0" d="M0.000 180.668 L 0.000 361.337 200.000 361.337 L 400.000 361.337 400.000 180.668 L 400.000 0.000 200.000 0.000 L 0.000 0.000 0.000 180.668 M364.265 4.968 C 369.647 16.289,379.052 25.819,390.648 31.703 L 394.038 33.424 394.129 179.084 L 394.219 324.745 391.639 325.898 C 390.220 326.533,388.184 327.612,387.115 328.296 C 386.046 328.980,385.101 329.539,385.015 329.539 C 381.750 329.539,368.861 343.957,364.745 352.213 L 362.718 356.278 222.792 356.278 C 59.130 356.278,41.786 356.160,41.252 355.045 C 41.053 354.630,40.442 353.315,39.894 352.123 C 36.643 345.053,29.368 336.569,22.131 331.408 C 20.689 330.380,19.413 329.539,19.296 329.539 C 19.178 329.539,18.571 329.176,17.947 328.731 C 17.323 328.287,15.346 327.189,13.555 326.292 L 10.298 324.661 10.298 179.046 L 10.298 33.430 13.724 31.688 C 17.444 29.797,22.200 26.750,24.210 24.970 C 24.905 24.354,26.206 23.250,27.100 22.518 C 30.694 19.574,39.747 7.709,39.747 5.942 C 39.747 5.865,40.173 4.902,40.693 3.804 L 41.638 1.807 202.200 1.807 L 362.762 1.807 364.265 4.968 M58.296 43.372 C 53.322 44.066,49.997 49.993,51.982 54.625 C 55.704 63.308,68.121 61.033,68.109 51.671 C 68.102 46.146,63.896 42.590,58.296 43.372 M340.379 44.335 C 332.978 48.741,335.923 59.982,344.478 59.982 C 351.673 59.982,355.373 52.572,351.212 46.494 C 349.067 43.360,343.786 42.307,340.379 44.335 M56.440 298.677 C 54.444 299.672,52.033 302.149,52.033 303.205 C 52.033 303.555,51.870 303.942,51.671 304.065 C 50.966 304.501,51.279 307.838,52.210 309.806 C 55.015 315.736,62.605 316.526,66.553 311.298 C 71.757 304.407,64.106 294.857,56.440 298.677 M341.658 298.372 C 337.968 299.899,336.271 302.372,336.255 306.245 C 336.215 315.685,348.615 318.090,352.354 309.368 C 355.117 302.922,348.097 295.706,341.658 298.372 " stroke="none" fill="#bbe2eb" fill-rule="evenodd"></path><path id="path1" d="M40.693 3.804 C 40.173 4.902,39.747 5.865,39.747 5.942 C 39.747 7.709,30.694 19.574,27.100 22.518 C 26.206 23.250,24.905 24.354,24.210 24.970 C 22.200 26.750,17.444 29.797,13.724 31.688 L 10.298 33.430 10.298 179.046 L 10.298 324.661 13.555 326.292 C 15.346 327.189,17.323 328.287,17.947 328.731 C 18.571 329.176,19.178 329.539,19.296 329.539 C 20.513 329.539,28.098 336.091,32.483 340.930 C 34.783 343.469,38.486 349.062,39.894 352.123 C 40.442 353.315,41.053 354.630,41.252 355.045 C 41.786 356.160,59.130 356.278,222.792 356.278 L 362.718 356.278 364.745 352.213 C 368.861 343.957,381.750 329.539,385.015 329.539 C 385.101 329.539,386.046 328.980,387.115 328.296 C 388.184 327.612,390.220 326.533,391.639 325.898 L 394.219 324.745 394.129 179.084 L 394.038 33.424 390.648 31.703 C 379.052 25.819,369.647 16.289,364.265 4.968 L 362.762 1.807 202.200 1.807 L 41.638 1.807 40.693 3.804 M63.783 44.166 C 66.631 45.660,68.104 48.216,68.109 51.671 C 68.121 61.033,55.704 63.308,51.982 54.625 C 49.015 47.704,57.015 40.614,63.783 44.166 M348.641 44.273 C 356.274 48.429,353.212 59.982,344.478 59.982 C 337.233 59.982,333.582 51.650,338.294 45.867 C 340.373 43.316,345.448 42.533,348.641 44.273 M62.624 298.316 C 67.929 300.124,69.949 306.801,66.553 311.298 C 62.605 316.526,55.015 315.736,52.210 309.806 C 51.279 307.838,50.966 304.501,51.671 304.065 C 51.870 303.942,52.033 303.555,52.033 303.205 C 52.033 299.977,58.601 296.946,62.624 298.316 M348.191 298.841 C 357.746 303.769,351.403 318.005,341.380 314.127 C 336.158 312.107,334.348 304.675,338.136 300.813 C 341.279 297.610,344.558 296.967,348.191 298.841 " stroke="none" fill="#44648c" fill-rule="evenodd"></path></g></svg>