<svg id="svg" version="1.1" xmlns="http://www.w3.org/2000/svg" xmlns:xlink="http://www.w3.org/1999/xlink" width="400" height="366.5914221218962" viewBox="0, 0, 400,366.5914221218962"><g id="svgg"><path id="path1" d="M35.330 2.114 C 35.101 2.262,34.520 3.291,34.038 4.400 C 29.761 14.243,19.378 25.510,9.716 30.792 C 8.506 31.453,7.351 32.110,7.149 32.251 C 6.948 32.392,6.205 32.728,5.500 32.996 C 4.794 33.265,3.928 33.731,3.575 34.031 C 2.966 34.550,2.933 42.108,2.933 183.212 L 2.933 331.847 5.608 333.066 C 7.079 333.737,9.216 334.882,10.356 335.612 C 11.497 336.342,12.513 336.939,12.614 336.939 C 16.068 336.939,29.666 352.062,33.681 360.371 L 35.380 363.886 199.481 363.978 L 363.581 364.070 364.920 361.229 C 370.853 348.632,382.019 337.686,394.042 332.680 L 395.600 332.031 395.600 183.063 L 395.600 34.096 392.933 32.864 C 388.319 30.732,382.052 26.441,378.186 22.764 C 372.277 17.146,368.080 11.507,365.129 5.225 L 363.536 1.833 199.641 1.839 C 109.499 1.842,35.560 1.966,35.330 2.114 M58.295 45.418 C 64.052 48.865,63.633 57.512,57.562 60.553 C 48.931 64.877,40.730 53.318,47.732 46.698 C 50.757 43.839,54.833 43.345,58.295 45.418 M348.304 44.837 C 356.548 48.583,354.540 60.459,345.486 61.507 C 340.084 62.133,335.243 56.418,336.513 50.917 C 337.722 45.680,343.549 42.675,348.304 44.837 M56.440 304.850 C 61.691 306.703,63.971 312.613,61.259 317.342 C 56.905 324.933,45.146 321.819,45.104 313.062 C 45.077 307.338,51.108 302.969,56.440 304.850 M347.591 304.865 C 356.949 308.167,354.808 321.540,344.921 321.540 C 335.016 321.540,332.957 308.182,342.346 304.831 C 344.171 304.180,345.676 304.189,347.591 304.865 " stroke="none" fill="#7c9cb4" fill-rule="evenodd"></path><path id="path0" d="M0.000 183.318 L 0.000 366.636 200.000 366.636 L 400.000 366.636 400.000 183.318 L 400.000 0.000 200.000 0.000 L 0.000 0.000 0.000 183.318 M365.129 5.225 C 370.497 16.654,381.484 27.575,392.933 32.864 L 395.600 34.096 395.600 183.063 L 395.600 332.031 394.042 332.680 C 382.019 337.686,370.853 348.632,364.920 361.229 L 363.581 364.070 199.481 363.978 L 35.380 363.886 33.681 360.371 C 29.666 352.062,16.068 336.939,12.614 336.939 C 12.513 336.939,11.497 336.342,10.356 335.612 C 9.216 334.882,7.079 333.737,5.608 333.066 L 2.933 331.847 2.933 183.212 C 2.933 42.108,2.966 34.550,3.575 34.031 C 3.928 33.731,4.794 33.265,5.500 32.996 C 6.205 32.728,6.948 32.392,7.149 32.251 C 7.351 32.110,8.506 31.453,9.716 30.792 C 19.378 25.510,29.761 14.243,34.038 4.400 C 34.520 3.291,35.101 2.262,35.330 2.114 C 35.560 1.966,109.499 1.842,199.641 1.839 L 363.536 1.833 365.129 5.225 M52.062 44.333 C 46.446 45.473,43.391 51.850,46.163 56.645 C 48.838 61.273,53.164 62.756,57.562 60.553 C 66.515 56.069,61.862 42.344,52.062 44.333 M343.171 44.329 C 336.741 45.417,334.096 53.588,338.566 58.559 C 345.636 66.423,357.785 56.950,352.126 47.985 C 350.363 45.191,346.762 43.722,343.171 44.329 M50.335 305.240 C 45.846 307.477,43.916 312.132,45.781 316.224 C 49.786 325.009,62.321 322.648,62.321 313.107 C 62.321 306.685,55.897 302.469,50.335 305.240 M342.346 304.831 C 332.957 308.182,335.016 321.540,344.921 321.540 C 349.417 321.540,352.278 319.302,353.359 314.940 C 354.912 308.673,348.381 302.677,342.346 304.831 " stroke="none" fill="#bae2ea" fill-rule="evenodd"></path><path id="path1" d="M35.330 2.114 C 35.101 2.262,34.520 3.291,34.038 4.400 C 29.761 14.243,19.378 25.510,9.716 30.792 C 8.506 31.453,7.351 32.110,7.149 32.251 C 6.948 32.392,6.205 32.728,5.500 32.996 C 4.794 33.265,3.928 33.731,3.575 34.031 C 2.966 34.550,2.933 42.108,2.933 183.212 L 2.933 331.847 5.608 333.066 C 7.079 333.737,9.216 334.882,10.356 335.612 C 11.497 336.342,12.513 336.939,12.614 336.939 C 16.068 336.939,29.666 352.062,33.681 360.371 L 35.380 363.886 199.481 363.978 L 363.581 364.070 364.920 361.229 C 370.853 348.632,382.019 337.686,394.042 332.680 L 395.600 332.031 395.600 183.063 L 395.600 34.096 392.933 32.864 C 388.319 30.732,382.052 26.441,378.186 22.764 C 372.277 17.146,368.080 11.507,365.129 5.225 L 363.536 1.833 199.641 1.839 C 109.499 1.842,35.560 1.966,35.330 2.114 M58.295 45.418 C 64.052 48.865,63.633 57.512,57.562 60.553 C 48.931 64.877,40.730 53.318,47.732 46.698 C 50.757 43.839,54.833 43.345,58.295 45.418 M348.304 44.837 C 356.548 48.583,354.540 60.459,345.486 61.507 C 340.084 62.133,335.243 56.418,336.513 50.917 C 337.722 45.680,343.549 42.675,348.304 44.837 M56.440 304.850 C 61.691 306.703,63.971 312.613,61.259 317.342 C 56.905 324.933,45.146 321.819,45.104 313.062 C 45.077 307.338,51.108 302.969,56.440 304.850 M347.591 304.865 C 356.949 308.167,354.808 321.540,344.921 321.540 C 335.016 321.540,332.957 308.182,342.346 304.831 C 344.171 304.180,345.676 304.189,347.591 304.865 " stroke="none" fill="#7c9cb4" fill-rule="evenodd"></path><path id="path0" d="M0.000 183.318 L 0.000 366.636 200.000 366.636 L 400.000 366.636 400.000 183.318 L 400.000 0.000 200.000 0.000 L 0.000 0.000 0.000 183.318 M365.129 5.225 C 370.497 16.654,381.484 27.575,392.933 32.864 L 395.600 34.096 395.600 183.063 L 395.600 332.031 394.042 332.680 C 382.019 337.686,370.853 348.632,364.920 361.229 L 363.581 364.070 199.481 363.978 L 35.380 363.886 33.681 360.371 C 29.666 352.062,16.068 336.939,12.614 336.939 C 12.513 336.939,11.497 336.342,10.356 335.612 C 9.216 334.882,7.079 333.737,5.608 333.066 L 2.933 331.847 2.933 183.212 C 2.933 42.108,2.966 34.550,3.575 34.031 C 3.928 33.731,4.794 33.265,5.500 32.996 C 6.205 32.728,6.948 32.392,7.149 32.251 C 7.351 32.110,8.506 31.453,9.716 30.792 C 19.378 25.510,29.761 14.243,34.038 4.400 C 34.520 3.291,35.101 2.262,35.330 2.114 C 35.560 1.966,109.499 1.842,199.641 1.839 L 363.536 1.833 365.129 5.225 M52.062 44.333 C 46.446 45.473,43.391 51.850,46.163 56.645 C 48.838 61.273,53.164 62.756,57.562 60.553 C 66.515 56.069,61.862 42.344,52.062 44.333 M343.171 44.329 C 336.741 45.417,334.096 53.588,338.566 58.559 C 345.636 66.423,357.785 56.950,352.126 47.985 C 350.363 45.191,346.762 43.722,343.171 44.329 M50.335 305.240 C 45.846 307.477,43.916 312.132,45.781 316.224 C 49.786 325.009,62.321 322.648,62.321 313.107 C 62.321 306.685,55.897 302.469,50.335 305.240 M342.346 304.831 C 332.957 308.182,335.016 321.540,344.921 321.540 C 349.417 321.540,352.278 319.302,353.359 314.940 C 354.912 308.673,348.381 302.677,342.346 304.831 " stroke="none" fill="#bae2ea" fill-rule="evenodd"></path><path id="path1" d="M35.330 2.114 C 35.101 2.262,34.520 3.291,34.038 4.400 C 29.761 14.243,19.378 25.510,9.716 30.792 C 8.506 31.453,7.351 32.110,7.149 32.251 C 6.948 32.392,6.205 32.728,5.500 32.996 C 4.794 33.265,3.928 33.731,3.575 34.031 C 2.966 34.550,2.933 42.108,2.933 183.212 L 2.933 331.847 5.608 333.066 C 7.079 333.737,9.216 334.882,10.356 335.612 C 11.497 336.342,12.513 336.939,12.614 336.939 C 16.068 336.939,29.666 352.062,33.681 360.371 L 35.380 363.886 199.481 363.978 L 363.581 364.070 364.920 361.229 C 370.853 348.632,382.019 337.686,394.042 332.680 L 395.600 332.031 395.600 183.063 L 395.600 34.096 392.933 32.864 C 388.319 30.732,382.052 26.441,378.186 22.764 C 372.277 17.146,368.080 11.507,365.129 5.225 L 363.536 1.833 199.641 1.839 C 109.499 1.842,35.560 1.966,35.330 2.114 M58.295 45.418 C 64.052 48.865,63.633 57.512,57.562 60.553 C 48.931 64.877,40.730 53.318,47.732 46.698 C 50.757 43.839,54.833 43.345,58.295 45.418 M348.304 44.837 C 356.548 48.583,354.540 60.459,345.486 61.507 C 340.084 62.133,335.243 56.418,336.513 50.917 C 337.722 45.680,343.549 42.675,348.304 44.837 M56.440 304.850 C 61.691 306.703,63.971 312.613,61.259 317.342 C 56.905 324.933,45.146 321.819,45.104 313.062 C 45.077 307.338,51.108 302.969,56.440 304.850 M347.591 304.865 C 356.949 308.167,354.808 321.540,344.921 321.540 C 335.016 321.540,332.957 308.182,342.346 304.831 C 344.171 304.180,345.676 304.189,347.591 304.865 " stroke="none" fill="#7c9cb4" fill-rule="evenodd"></path></g></svg>