<?xml version="1.0" encoding="utf-8"?>
<!-- Generator: Adobe Illustrator 16.0.0, SVG Export Plug-In . SVG Version: 6.00 Build 0)  -->
<!DOCTYPE svg PUBLIC "-//W3C//DTD SVG 1.1//EN" "http://www.w3.org/Graphics/SVG/1.1/DTD/svg11.dtd">
<svg version="1.1" id="Layer_1" xmlns="http://www.w3.org/2000/svg" xmlns:xlink="http://www.w3.org/1999/xlink" x="0px" y="0px"
	 width="241.722px" height="123.368px" viewBox="0 0 241.722 123.368" enable-background="new 0 0 241.722 123.368"
	 xml:space="preserve">
<g>
	<defs>
		<rect id="SVGID_1_" x="2.902" y="9.067" width="245.978" height="108.489"/>
	</defs>
	<clipPath id="SVGID_2_">
		<use xlink:href="#SVGID_1_"  overflow="visible"/>
	</clipPath>
	<path clip-path="url(#SVGID_2_)" fill="none" stroke="#000000" stroke-width="2" stroke-miterlimit="10" d="M16.358,103.264
		c0,0-0.979-7.588,11.994-5.141c0,0,34.76,6.609,43.572,0.98c0,0,22.52,6.371,32.556-1.467c0,0,15.421,2.201,25.213,5.627
		c0,0,21.295,0.248,21.786-2.813c0,0,0.979-3.063,12.238-1.593l23.99,2.692l16.889-1.469c0,0,15.666,4.415,29.865,0.371"/>
</g>
<path fill="none" stroke="#000000" stroke-width="2" stroke-miterlimit="10" d="M34.248,98.735c0.163-25,0.163-49,0-74.276"/>
<line fill="none" stroke="#000000" stroke-width="2" stroke-miterlimit="10" x1="34.248" y1="25.09" x2="215.302" y2="25.09"/>
<path fill="none" stroke="#000000" stroke-width="2" stroke-miterlimit="10" d="M215.302,24.896c0.108,25.839,0.108,51.839,0,77.483
	"/>
<text transform="matrix(1 0 0 1 111.1606 114.2354)" font-family="'ArialMT'" font-size="12">Rio</text>
<text transform="matrix(1 0 0 1 94.7021 19.0005)" font-family="'ArialMT'" font-size="13">190 m</text>
<text transform="matrix(-0.0322 -0.9995 0.9995 -0.0322 27.3657 72.6982)" font-family="'ArialMT'" font-size="13">81M</text>
<text transform="matrix(-0.0322 -0.9995 0.9995 -0.0322 228.8091 72.6982)" font-family="'ArialMT'" font-size="13">81M</text>
</svg>
