<?xml version="1.0" encoding="UTF-8"?><svg xmlns="http://www.w3.org/2000/svg" xmlns:xlink="http://www.w3.org/1999/xlink" height="256.3" preserveAspectRatio="xMidYMid meet" version="1.1" viewBox="87.4 84.4 251.9 256.3" width="251.9" zoomAndPan="magnify">
 <g id="surface1">
  <g id="change1_1"><path d="m148.11 339.25c-1.72 0-3.12-1.39-3.12-3.12v-164.38c0-1.72 1.4-3.12 3.12-3.12h127.71c1.72 0 3.12 1.4 3.12 3.12v164.38c0 1.73-1.4 3.12-3.12 3.12h-127.71" fill="#fff"/></g>
  <g id="change2_1"><path d="m275.82 167.13h-127.71c-2.55 0-4.62 2.07-4.62 4.62v164.38c0 2.56 2.07 4.62 4.62 4.62h127.71c2.55 0 4.62-2.06 4.62-4.62v-164.38c0-2.55-2.07-4.62-4.62-4.62zm0 3c0.89 0 1.62 0.73 1.62 1.62v164.38c0 0.9-0.73 1.62-1.62 1.62h-127.71c-0.89 0-1.62-0.72-1.62-1.62v-164.38c0-0.89 0.73-1.62 1.62-1.62h127.71" fill="#565b9f"/></g>
  <g id="change1_2"><path d="m144.99 219.84v-48.09c0-1.72 1.4-3.12 3.12-3.12h127.71c1.72 0 3.12 1.4 3.12 3.12v48.09h-133.95" fill="#fff"/></g>
  <g id="change2_2"><path d="m275.82 167.13h-127.71c-2.55 0-4.62 2.07-4.62 4.62v49.59h136.95v-49.59c0-2.55-2.07-4.62-4.62-4.62zm0 3c0.89 0 1.62 0.73 1.62 1.62v46.59h-130.95v-46.59c0-0.89 0.73-1.62 1.62-1.62h127.71" fill="#565b9f"/></g>
  <g id="change3_1"><path d="m163.09 207.61c-2.95 0-5.35-2.4-5.35-5.35v-14.99c0-2.95 2.4-5.35 5.35-5.35h97.75c2.96 0 5.36 2.4 5.36 5.35v14.99c0 2.95-2.4 5.35-5.36 5.35h-97.75" fill="#63cdf5"/></g>
  <g id="change2_3"><path d="m260.84 180.42h-97.75c-3.79 0-6.85 3.06-6.85 6.85v14.99c0 3.78 3.06 6.85 6.85 6.85h97.75c3.79 0 6.86-3.07 6.86-6.85v-14.99c0-3.79-3.07-6.85-6.86-6.85zm0 3c2.13 0 3.86 1.72 3.86 3.85v14.99c0 2.12-1.73 3.85-3.86 3.85h-97.75c-2.12 0-3.85-1.73-3.85-3.85v-14.99c0-2.13 1.73-3.85 3.85-3.85h97.75" fill="#565b9f"/></g>
  <g id="change1_3"><path d="m163.83 237.76c-2.75 0-4.6-0.47-5.24-0.81v-2.12c0.64-0.33 2.49-0.81 5.24-0.81h10.6c2.75 0 4.6 0.48 5.25 0.81v2.12c-0.65 0.34-2.5 0.81-5.25 0.81h-10.6" fill="#fff"/></g>
  <g id="change2_4"><path d="m174.43 232.52h-10.6c-3.72 0-6.74 0.84-6.74 1.89v2.97c0 1.04 3.02 1.88 6.74 1.88h10.6c3.73 0 6.75-0.84 6.75-1.88v-2.97c0-1.05-3.02-1.89-6.75-1.89zm0 3c1.64 0 2.9 0.18 3.69 0.37-0.79 0.19-2.05 0.37-3.69 0.37h-10.6c-1.64 0-2.9-0.18-3.69-0.37 0.79-0.19 2.05-0.37 3.69-0.37h10.6" fill="#565b9f"/></g>
  <g id="change1_4"><path d="m192.39 237.76c-2.75 0-4.6-0.47-5.25-0.81v-2.12c0.65-0.33 2.5-0.81 5.25-0.81h10.6c2.74 0 4.6 0.48 5.24 0.81v2.12c-0.64 0.34-2.5 0.81-5.24 0.81h-10.6" fill="#fff"/></g>
  <g id="change2_5"><path d="m202.99 232.52h-10.6c-3.73 0-6.75 0.84-6.75 1.89v2.97c0 1.04 3.02 1.88 6.75 1.88h10.6c3.72 0 6.74-0.84 6.74-1.88v-2.97c0-1.05-3.02-1.89-6.74-1.89zm0 3c1.64 0 2.9 0.18 3.69 0.37-0.79 0.19-2.05 0.37-3.69 0.37h-10.6c-1.64 0-2.9-0.18-3.69-0.37 0.79-0.19 2.05-0.37 3.69-0.37h10.6" fill="#565b9f"/></g>
  <g id="change1_5"><path d="m220.94 237.76c-2.74 0-4.6-0.47-5.24-0.81v-2.12c0.64-0.33 2.5-0.81 5.24-0.81h10.61c2.74 0 4.59 0.47 5.24 0.81v2.12c-0.65 0.34-2.5 0.81-5.24 0.81h-10.61" fill="#fff"/></g>
  <g id="change2_6"><path d="m231.55 232.52h-10.61c-3.72 0-6.74 0.84-6.74 1.89v2.97c0 1.04 3.02 1.88 6.74 1.88h10.61c3.72 0 6.74-0.84 6.74-1.88v-2.97c0-1.05-3.02-1.89-6.74-1.89zm0 3c1.64 0 2.9 0.18 3.69 0.37-0.79 0.19-2.05 0.37-3.69 0.37h-10.61c-1.64 0-2.9-0.18-3.69-0.37 0.79-0.19 2.05-0.37 3.69-0.37h10.61" fill="#565b9f"/></g>
  <g id="change1_6"><path d="m249.5 237.76c-2.75 0-4.6-0.47-5.25-0.81v-2.12c0.65-0.33 2.5-0.81 5.25-0.81h10.61c2.74 0 4.59 0.47 5.24 0.81v2.12c-0.65 0.34-2.5 0.81-5.24 0.81h-10.61" fill="#fff"/></g>
  <g id="change2_7"><path d="m260.11 232.52h-10.61c-3.73 0-6.75 0.84-6.75 1.89v2.97c0 1.04 3.02 1.88 6.75 1.88h10.61c3.72 0 6.74-0.84 6.74-1.88v-2.97c0-1.05-3.02-1.89-6.74-1.89zm0 3c1.63 0 2.89 0.18 3.69 0.37-0.8 0.19-2.06 0.37-3.69 0.37h-10.61c-1.64 0-2.9-0.18-3.69-0.37 0.79-0.19 2.05-0.37 3.69-0.37h10.61" fill="#565b9f"/></g>
  <g id="change2_8"><path d="m181.18 262.62c0 3.73-3.02 6.75-6.75 6.75h-10.6c-3.72 0-6.74-3.02-6.74-6.75v-10.6c0-3.73 3.02-6.75 6.74-6.75h10.6c3.73 0 6.75 3.02 6.75 6.75v10.6" fill="#565b9f"/></g>
  <g id="change2_9"><path d="m209.73 262.62c0 3.73-3.02 6.75-6.74 6.75h-10.6c-3.73 0-6.75-3.02-6.75-6.75v-10.6c0-3.73 3.02-6.75 6.75-6.75h10.6c3.72 0 6.74 3.02 6.74 6.75v10.6" fill="#565b9f"/></g>
  <g id="change2_10"><path d="m238.29 262.62c0 3.73-3.02 6.75-6.74 6.75h-10.61c-3.72 0-6.74-3.02-6.74-6.75v-10.6c0-3.73 3.02-6.75 6.74-6.75h10.61c3.72 0 6.74 3.02 6.74 6.75v10.6" fill="#565b9f"/></g>
  <g id="change2_11"><path d="m266.85 262.62c0 3.73-3.02 6.75-6.74 6.75h-10.61c-3.73 0-6.75-3.02-6.75-6.75v-10.6c0-3.73 3.02-6.75 6.75-6.75h10.61c3.72 0 6.74 3.02 6.74 6.75v10.6" fill="#565b9f"/></g>
  <g id="change2_12"><path d="m181.18 292.73c0 3.73-3.02 6.75-6.75 6.75h-10.6c-3.72 0-6.74-3.02-6.74-6.75v-10.6c0-3.73 3.02-6.75 6.74-6.75h10.6c3.73 0 6.75 3.02 6.75 6.75v10.6" fill="#565b9f"/></g>
  <g id="change2_13"><path d="m209.73 292.73c0 3.73-3.02 6.75-6.74 6.75h-10.6c-3.73 0-6.75-3.02-6.75-6.75v-10.6c0-3.73 3.02-6.75 6.75-6.75h10.6c3.72 0 6.74 3.02 6.74 6.75v10.6" fill="#565b9f"/></g>
  <g id="change2_14"><path d="m238.29 292.73c0 3.73-3.02 6.75-6.74 6.75h-10.61c-3.72 0-6.74-3.02-6.74-6.75v-10.6c0-3.73 3.02-6.75 6.74-6.75h10.61c3.72 0 6.74 3.02 6.74 6.75v10.6" fill="#565b9f"/></g>
  <g id="change2_15"><path d="m181.18 322.04c0 3.72-3.02 6.74-6.75 6.74h-10.6c-3.72 0-6.74-3.02-6.74-6.74v-10.61c0-3.72 3.02-6.74 6.74-6.74h10.6c3.73 0 6.75 3.02 6.75 6.74v10.61" fill="#565b9f"/></g>
  <g id="change2_16"><path d="m209.73 322.04c0 3.72-3.02 6.74-6.74 6.74h-10.6c-3.73 0-6.75-3.02-6.75-6.74v-10.61c0-3.72 3.02-6.74 6.75-6.74h10.6c3.72 0 6.74 3.02 6.74 6.74v10.61" fill="#565b9f"/></g>
  <g id="change2_17"><path d="m238.29 322.04c0 3.72-3.02 6.74-6.74 6.74h-10.61c-3.72 0-6.74-3.02-6.74-6.74v-10.61c0-3.72 3.02-6.74 6.74-6.74h10.61c3.72 0 6.74 3.02 6.74 6.74v10.61" fill="#565b9f"/></g>
  <g id="change1_7"><path d="m249.5 327.28c-2.89 0-5.25-2.35-5.25-5.24v-39.91c0-2.9 2.36-5.25 5.25-5.25h10.61c2.89 0 5.24 2.35 5.24 5.25v39.91c0 2.89-2.35 5.24-5.24 5.24h-10.61" fill="#fff"/></g>
  <g id="change2_18"><path d="m260.11 275.38h-10.61c-3.73 0-6.75 3.02-6.75 6.75v39.91c0 3.72 3.02 6.74 6.75 6.74h10.61c3.72 0 6.74-3.02 6.74-6.74v-39.91c0-3.73-3.02-6.75-6.74-6.75zm0 3c2.06 0 3.74 1.68 3.74 3.75v39.91c0 2.06-1.68 3.74-3.74 3.74h-10.61c-2.06 0-3.75-1.68-3.75-3.74v-39.91c0-2.07 1.69-3.75 3.75-3.75h10.61" fill="#565b9f"/></g>
  <g id="change2_19"><path d="m231.87 116.3l-12.75 28.62 2.04 0.64 11.91-28.74-1.2-0.52" fill="#565b9f"/></g>
  <g id="change2_20"><path d="m231.87 116.3l-12.75 28.62 2.04 0.64 11.91-28.74-1.2-0.52" fill="#565b9f"/></g>
  <g id="change2_21"><path d="m215.05 152.1c2.01-3.3 3.63-4.71 4.28-4.98 0.26 0.66 0.35 2.8-0.67 6.53l-3.61-1.55" fill="#565b9f"/></g>
  <g id="change2_22"><path d="m219.49 145.58c-1.61 0-4.19 2.89-6.58 7.23l6.7 2.89c1.67-5.21 1.9-9.36 0.35-10.03-0.15-0.06-0.3-0.09-0.47-0.09zm-1.7 5.14c-0.05 0.26-0.11 0.55-0.17 0.85l-0.35-0.14c0.18-0.26 0.35-0.5 0.52-0.71" fill="#565b9f"/></g>
  <g id="change2_23"><path d="m219.96 146.93c-0.17 0-0.34-0.04-0.5-0.11-0.31-0.13-0.54-0.37-0.67-0.68-0.12-0.32-0.11-0.66 0.02-0.96 0.2-0.47 0.65-0.76 1.15-0.76 0.17 0 0.34 0.03 0.5 0.1 0.63 0.27 0.92 1.01 0.65 1.65-0.2 0.46-0.65 0.76-1.15 0.76" fill="#565b9f"/></g>
  <g id="change2_24"><path d="m219.96 142.92c-1.07 0-2.08 0.62-2.53 1.66-0.6 1.4 0.04 3.02 1.44 3.62 0.35 0.16 0.72 0.23 1.09 0.23 1.06 0 2.08-0.63 2.52-1.67 0.61-1.4-0.04-3.02-1.43-3.62-0.35-0.15-0.73-0.22-1.09-0.22" fill="#565b9f"/></g>
  <g id="change1_8"><path d="m283.2 195.84c-6.84 0-18.58-3.23-30.63-8.43-19.2-8.27-30.08-17.47-29.43-20.43l0.02-0.07 19.46-45.16 64.51 27.8-19.46 45.17-0.05 0.05c-0.34 0.52-1.69 1.07-4.42 1.07" fill="#fff"/></g>
  <g id="change2_25"><path d="m241.84 119.78l-20.2 46.86 0.04 0.02c-1.02 4.61 12.25 14.35 30.3 22.13 12.67 5.46 24.43 8.55 31.22 8.55 2.89 0 4.87-0.56 5.67-1.72l0.04 0.01 20.19-46.86zm1.56 3.95l61.76 26.61-18.76 43.53c-0.24 0.13-1.09 0.47-3.2 0.47-6.65 0-18.16-3.19-30.04-8.3-8.03-3.47-15.45-7.49-20.87-11.31-5.84-4.14-7.47-6.69-7.65-7.47l18.76-43.53" fill="#565b9f"/></g>
  <g id="change2_26"><path d="m217.32 117.4l0.35-0.82 110.06 47.43-0.35 0.82-67.25 4.63-42.81-52.06" fill="#565b9f"/></g>
  <g id="change2_27"><path d="m216.89 114.61l-1.31 3.04 43.88 53.37 68.94-4.75 1.31-3.04zm4.28 5.11l101.88 43.91-62.25 4.28-39.63-48.19" fill="#565b9f"/></g>
  <g id="change3_2"><path d="m220.09 116.14l62.8 0.53 43.51 45.28-64.96 4.48-41.35-50.29" fill="#63cdf5"/></g>
  <g id="change2_28"><path d="m216.89 114.61l43.88 53.37 68.94-4.75-46.18-48.05zm6.39 3.05l58.96 0.5 40.86 42.52-60.99 4.2-38.83-47.22" fill="#565b9f"/></g>
  <g id="change2_29"><path d="m274.29 138.18l-0.84 1.96-40.79-25.4 2.49 0.03 39.14 23.41" fill="#565b9f"/></g>
  <g id="change2_30"><path d="m232.66 114.74l40.79 25.4 0.84-1.96-39.14-23.41-2.49-0.03" fill="#565b9f"/></g>
  <g id="change2_31"><path d="m272.22 138.34c1.35-1.8 2.52-2.51 3.02-2.51 0.28 0.11 0.82 1.33 0.37 3.97l-3.39-1.46" fill="#565b9f"/></g>
  <g id="change2_32"><path d="m275.24 134.33c-1.52 0-3.55 1.83-5.28 4.67l6.71 2.89c1.02-3.69 0.78-6.76-0.78-7.43-0.2-0.08-0.42-0.13-0.65-0.13" fill="#565b9f"/></g>
  <g id="change2_33"><path d="m94.141 198.98c-3.719 0-6.731 3.01-6.731 6.72 0 3.72 3.012 6.73 6.731 6.73 3.714 0 6.729-3.01 6.729-6.73 0-3.71-3.015-6.72-6.729-6.72zm0 3c2.054 0 3.726 1.67 3.726 3.72 0 2.06-1.672 3.73-3.726 3.73-2.055 0-3.731-1.67-3.731-3.73 0-2.05 1.676-3.72 3.731-3.72" fill="#565b9f"/></g>
  <g id="change2_34"><path d="m309.1 216.52c-3.71 0-6.73 3.01-6.73 6.72 0 3.72 3.02 6.73 6.73 6.73 3.72 0 6.72-3.01 6.72-6.73 0-3.71-3-6.72-6.72-6.72zm0 3c2.05 0 3.72 1.67 3.72 3.72 0 2.06-1.67 3.73-3.72 3.73s-3.73-1.67-3.73-3.73c0-2.05 1.68-3.72 3.73-3.72" fill="#565b9f"/></g>
  <g id="change2_35"><path d="m209.52 84.445c-3.72 0-6.73 3.016-6.73 6.731s3.01 6.722 6.73 6.722c3.71 0 6.72-3.007 6.72-6.722s-3.01-6.731-6.72-6.731zm0 3c2.05 0 3.72 1.672 3.72 3.731 0 2.054-1.67 3.722-3.72 3.722-2.06 0-3.73-1.668-3.73-3.722 0-2.059 1.67-3.731 3.73-3.731" fill="#565b9f"/></g>
  <g id="change2_36"><path d="m143.31 132.62l8.13 12.61c0.45 0.7 1.38 0.9 2.07 0.45 0.7-0.45 0.9-1.38 0.45-2.07l-8.13-12.62c-0.45-0.69-1.37-0.89-2.07-0.44s-0.9 1.37-0.45 2.07" fill="#565b9f"/></g>
  <g id="change2_37"><path d="m141.2 139.9l14.99-0.58c0.83-0.03 1.47-0.73 1.44-1.55-0.03-0.83-0.73-1.48-1.56-1.45l-14.99 0.58c-0.83 0.03-1.47 0.73-1.44 1.56s0.73 1.47 1.56 1.44" fill="#565b9f"/></g>
  <g id="change2_38"><path d="m151.44 130.99l-8.13 12.62c-0.45 0.69-0.25 1.62 0.45 2.07s1.62 0.25 2.07-0.45l8.13-12.61c0.45-0.7 0.25-1.62-0.45-2.07-0.69-0.45-1.62-0.25-2.07 0.44" fill="#565b9f"/></g>
  <g id="change2_39"><path d="m322.07 283.89l14.88 2c0.82 0.11 1.57-0.47 1.68-1.29s-0.47-1.57-1.29-1.69l-14.87-1.99c-0.82-0.11-1.58 0.47-1.68 1.29-0.11 0.82 0.46 1.57 1.28 1.68" fill="#565b9f"/></g>
  <g id="change2_40"><path d="m326.24 290.23l9.29-11.79c0.51-0.65 0.4-1.6-0.25-2.11s-1.6-0.4-2.11 0.25l-9.28 11.79c-0.52 0.65-0.41 1.59 0.25 2.11 0.65 0.51 1.59 0.4 2.1-0.25" fill="#565b9f"/></g>
  <g id="change2_41"><path d="m326.11 276.65l4.32 14.37c0.24 0.79 1.08 1.24 1.87 1 0.8-0.24 1.25-1.07 1.01-1.87l-4.33-14.36c-0.24-0.8-1.07-1.25-1.87-1.01-0.79 0.24-1.24 1.08-1 1.87" fill="#565b9f"/></g>
  <g id="change2_42"><path d="m324.96 130.72l8.13 12.61c0.45 0.7 1.38 0.9 2.08 0.45 0.69-0.45 0.9-1.38 0.45-2.08l-8.14-12.61c-0.44-0.7-1.37-0.89-2.07-0.45-0.7 0.45-0.89 1.38-0.45 2.08" fill="#565b9f"/></g>
  <g id="change2_43"><path d="m322.85 138l14.99-0.58c0.83-0.03 1.48-0.73 1.45-1.56-0.04-0.82-0.73-1.47-1.56-1.44l-15 0.58c-0.82 0.04-1.47 0.73-1.44 1.56s0.73 1.47 1.56 1.44" fill="#565b9f"/></g>
  <g id="change2_44"><path d="m333.09 129.09l-8.13 12.61c-0.44 0.7-0.24 1.63 0.45 2.08 0.7 0.45 1.63 0.25 2.08-0.45l8.13-12.61c0.45-0.7 0.24-1.63-0.45-2.08-0.7-0.44-1.63-0.25-2.08 0.45" fill="#565b9f"/></g>
  <g id="change2_45"><path d="m119.36 297.43l8.13 12.61c0.45 0.7 1.38 0.9 2.08 0.45 0.69-0.45 0.89-1.38 0.45-2.08l-8.13-12.61c-0.45-0.69-1.38-0.89-2.08-0.45-0.69 0.45-0.9 1.38-0.45 2.08" fill="#565b9f"/></g>
  <g id="change2_46"><path d="m117.25 304.71l15-0.58c0.82-0.03 1.47-0.73 1.44-1.56-0.04-0.83-0.73-1.47-1.56-1.44l-15 0.58c-0.83 0.04-1.47 0.73-1.44 1.56 0.04 0.83 0.73 1.47 1.56 1.44" fill="#565b9f"/></g>
  <g id="change2_47"><path d="m127.49 295.8l-8.13 12.61c-0.45 0.7-0.24 1.63 0.45 2.08 0.7 0.45 1.63 0.25 2.08-0.45l8.13-12.61c0.44-0.7 0.24-1.63-0.45-2.08-0.7-0.44-1.63-0.24-2.08 0.45" fill="#565b9f"/></g>
 </g>
</svg>