<?xml version="1.0" encoding="UTF-8"?><svg xmlns="http://www.w3.org/2000/svg" xmlns:xlink="http://www.w3.org/1999/xlink" height="226.8" preserveAspectRatio="xMidYMid meet" version="1.1" viewBox="173.1 99.2 78.9 226.8" width="78.9" zoomAndPan="magnify">
 <g id="surface1">
  <g id="change1_1"><path d="m245.91 115.17h-64.95v-6.16h64.95v6.16" fill="#1f3a68"/></g>
  <g id="change1_2"><path d="m245.91 131.97h-64.95v-6.16h64.95v6.16" fill="#1f3a68"/></g>
  <g id="change1_3"><path d="m243.68 299.95h-64.96v-6.16h64.96v6.16" fill="#1f3a68"/></g>
  <g id="change1_4"><path d="m243.68 316.75h-64.96v-6.16h64.96v6.16" fill="#1f3a68"/></g>
  <g id="change1_5"><path d="m240.55 186.07c-1-1.45-2.05-2.96-2.95-4.55h-53.01c-0.95 2.15-2.15 4.16-3.41 6.16h60.41c-0.33-0.54-0.68-1.08-1.04-1.61" fill="#1f3a68"/></g>
  <g id="change1_6"><path d="m242.98 205.67h-64.96v-6.16h64.96v6.16" fill="#1f3a68"/></g>
  <g id="change1_7"><path d="m245.07 223.66h-64.95v-6.16h64.95v6.16" fill="#1f3a68"/></g>
  <g id="change1_8"><path d="m243.02 235.49h-58.98c1.5 2.08 3.12 4.08 4.59 6.15h50.75c1.23-2.03 2.45-4.09 3.64-6.15" fill="#1f3a68"/></g>
  <g id="change1_9"><path d="m246.17 325.98c-3.25 0-5.88-2.62-5.88-5.87 0-24.06-15.24-36.25-31.36-49.17-16.77-13.42-35.78-28.64-35.78-58.34s19.01-44.92 35.78-58.34c16.12-12.92 31.36-25.12 31.36-49.17 0-3.24 2.63-5.875 5.88-5.875s5.88 2.635 5.88 5.875c0 29.7-19.01 44.92-35.78 58.35-16.13 12.91-31.36 25.11-31.36 49.16s15.23 36.25 31.36 49.17c16.77 13.42 35.78 28.64 35.78 58.34 0 3.25-2.63 5.87-5.88 5.87" fill="#1f3a68"/></g>
  <g id="change2_1"><path d="m179.03 325.98c-3.25 0-5.88-2.62-5.88-5.87 0-29.7 19.01-44.92 35.78-58.34 16.12-12.92 31.36-25.12 31.36-49.17s-15.24-36.25-31.36-49.16c-16.77-13.43-35.78-28.65-35.78-58.35 0-3.24 2.63-5.875 5.88-5.875s5.88 2.635 5.88 5.875c0 24.05 15.23 36.25 31.36 49.17 16.77 13.42 35.78 28.64 35.78 58.34s-19.01 44.92-35.78 58.34c-16.13 12.92-31.36 25.11-31.36 49.17 0 3.25-2.63 5.87-5.88 5.87" fill="#4eb1cb"/></g>
 </g>
</svg>